<ttFont>
<head>
    <!-- Most of this table will be recalculated by the compiler -->
    <tableVersion value="1.0"/>
    <fontRevision value="1.29999"/>
    <checkSumAdjustment value="0xbd58ac40"/>
    <magicNumber value="0x5f0f3cf5"/>
    <flags value="00000000 00001001"/>
    <unitsPerEm value="1000"/>
    <created value="Mon Oct 19 13:13:03 2015"/>
    <modified value="Mon Aug  1 23:07:34 2016"/>
    <xMin value="-4"/>
    <yMin value="-316"/>
    <xMax value="687"/>
    <yMax value="1266"/>
    <macStyle value="00000000 00000000"/>
    <lowestRecPPEM value="9"/>
    <fontDirectionHint value="2"/>
    <indexToLocFormat value="0"/>
    <glyphDataFormat value="0"/>
  </head>
    <TTGlyph name=".notdef" xMin="5" yMin="-200" xMax="545" yMax="800">
      <contour>
        <pt x="5" y="800" on="1"/>
        <pt x="545" y="800" on="1"/>
        <pt x="545" y="-200" on="1"/>
        <pt x="5" y="-200" on="1"/>
      </contour>
      <contour>
        <pt x="275" y="360" on="1"/>
        <pt x="468" y="750" on="1"/>
        <pt x="82" y="750" on="1"/>
      </contour>
      <contour>
        <pt x="305" y="300" on="1"/>
        <pt x="491" y="-76" on="1"/>
        <pt x="491" y="676" on="1"/>
      </contour>
      <contour>
        <pt x="245" y="300" on="1"/>
        <pt x="59" y="676" on="1"/>
        <pt x="59" y="-76" on="1"/>
      </contour>
      <contour>
        <pt x="82" y="-150" on="1"/>
        <pt x="468" y="-150" on="1"/>
        <pt x="275" y="240" on="1"/>
      </contour>
    </TTGlyph>
    <TTGlyph name="A" xMin="53" yMin="-3" xMax="572" yMax="691">
      <contour>
        <pt x="498" y="-3" on="1"/>
        <pt x="482" y="54" on="0"/>
        <pt x="451" y="165" on="0"/>
        <pt x="434" y="222" on="1"/>
        <pt x="188" y="222" on="1"/>
        <pt x="172" y="166" on="0"/>
        <pt x="141" y="57" on="0"/>
        <pt x="126" y="0" on="1"/>
        <pt x="53" y="0" on="1"/>
        <pt x="103" y="174" on="0"/>
        <pt x="205" y="516" on="0"/>
        <pt x="261" y="691" on="1"/>
        <pt x="364" y="691" on="1"/>
        <pt x="420" y="517" on="0"/>
        <pt x="522" y="176" on="0"/>
        <pt x="572" y="3" on="1"/>
      </contour>
      <contour>
        <pt x="307" y="626" on="1"/>
        <pt x="281" y="538" on="0"/>
        <pt x="230" y="366" on="0"/>
        <pt x="204" y="278" on="1"/>
        <pt x="418" y="278" on="1"/>
        <pt x="393" y="366" on="0"/>
        <pt x="341" y="538" on="0"/>
        <pt x="315" y="626" on="1"/>
      </contour>
    </TTGlyph>
    <TTGlyph name="AE" xMin="16" yMin="0" xMax="570" yMax="688">
      <contour>
        <pt x="294" y="625" on="1"/>
        <pt x="265" y="537" on="0"/>
        <pt x="204" y="359" on="0"/>
        <pt x="175" y="268" on="1"/>
        <pt x="300" y="268" on="1"/>
        <pt x="300" y="625" on="1"/>
      </contour>
      <contour>
        <pt x="300" y="212" on="1"/>
        <pt x="157" y="212" on="1"/>
        <pt x="139" y="158" on="0"/>
        <pt x="105" y="52" on="0"/>
        <pt x="88" y="0" on="1"/>
        <pt x="16" y="0" on="1"/>
        <pt x="73" y="173" on="0"/>
        <pt x="190" y="515" on="0"/>
        <pt x="250" y="688" on="1"/>
        <pt x="566" y="688" on="1"/>
        <pt x="566" y="625" on="1"/>
        <pt x="367" y="625" on="1"/>
        <pt x="367" y="377" on="1"/>
        <pt x="538" y="377" on="1"/>
        <pt x="538" y="321" on="1"/>
        <pt x="367" y="321" on="1"/>
        <pt x="367" y="63" on="1"/>
        <pt x="570" y="63" on="1"/>
        <pt x="564" y="0" on="1"/>
        <pt x="300" y="0" on="1"/>
      </contour>
    </TTGlyph>
    <TTGlyph name="AEacute" xMin="16" yMin="0" xMax="570" yMax="998">
      <component glyphName="acute.cap" x="54" y="149" flags="0x204"/>
      <component glyphName="AE" x="0" y="0" flags="0x4"/>
    </TTGlyph>
    <TTGlyph name="Aacute" xMin="53" yMin="-3" xMax="572" yMax="998">
      <component glyphName="A" x="0" y="0" flags="0x204"/>
      <component glyphName="acute.cap" x="5" y="149" flags="0x4"/>
    </TTGlyph>
    <TTGlyph name="Abreve" xMin="53" yMin="-3" xMax="572" yMax="965">
      <component glyphName="A" x="0" y="0" flags="0x204"/>
      <component glyphName="breve.cap" x="0" y="149" flags="0x4"/>
    </TTGlyph>
    <TTGlyph name="Acircumflex" xMin="53" yMin="-3" xMax="572" yMax="976">
      <component glyphName="A" x="0" y="0" flags="0x204"/>
      <component glyphName="circumflex.cap" x="-1" y="149" flags="0x4"/>
    </TTGlyph>
    <TTGlyph name="Adieresis" xMin="53" yMin="-3" xMax="572" yMax="926">
      <component glyphName="A" x="0" y="0" flags="0x204"/>
      <component glyphName="dieresis.cap" x="-1" y="149" flags="0x4"/>
    </TTGlyph>
    <TTGlyph name="Agrave" xMin="53" yMin="-3" xMax="572" yMax="991">
      <component glyphName="A" x="0" y="0" flags="0x204"/>
      <component glyphName="grave.cap" x="-16" y="149" flags="0x4"/>
    </TTGlyph>
    <TTGlyph name="Amacron" xMin="53" yMin="-3" xMax="572" yMax="887">
      <component glyphName="A" x="0" y="0" flags="0x204"/>
      <component glyphName="macron.cap" x="-1" y="149" flags="0x4"/>
    </TTGlyph>
    <TTGlyph name="Aogonek" xMin="53" yMin="-231" xMax="572" yMax="691">
      <contour>
        <pt x="547" y="-231" on="1"/>
        <pt x="494" y="-226" on="0"/>
        <pt x="420" y="-209" on="0"/>
        <pt x="374" y="-184" on="0"/>
        <pt x="354" y="-152" on="0"/>
        <pt x="354" y="-133" on="1"/>
        <pt x="354" y="-102" on="0"/>
        <pt x="418" y="-35" on="0"/>
        <pt x="495" y="6" on="1"/>
        <pt x="480" y="60" on="0"/>
        <pt x="450" y="168" on="0"/>
        <pt x="434" y="222" on="1"/>
        <pt x="188" y="222" on="1"/>
        <pt x="172" y="166" on="0"/>
        <pt x="141" y="57" on="0"/>
        <pt x="126" y="0" on="1"/>
        <pt x="53" y="0" on="1"/>
        <pt x="103" y="174" on="0"/>
        <pt x="205" y="516" on="0"/>
        <pt x="261" y="691" on="1"/>
        <pt x="364" y="691" on="1"/>
        <pt x="420" y="517" on="0"/>
        <pt x="522" y="176" on="0"/>
        <pt x="572" y="3" on="1"/>
        <pt x="527" y="-18" on="0"/>
        <pt x="468" y="-54" on="0"/>
        <pt x="434" y="-83" on="0"/>
        <pt x="420" y="-106" on="0"/>
        <pt x="420" y="-116" on="1"/>
        <pt x="420" y="-137" on="0"/>
        <pt x="481" y="-164" on="0"/>
        <pt x="554" y="-172" on="1"/>
      </contour>
      <contour>
        <pt x="307" y="626" on="1"/>
        <pt x="281" y="538" on="0"/>
        <pt x="230" y="366" on="0"/>
        <pt x="204" y="278" on="1"/>
        <pt x="418" y="278" on="1"/>
        <pt x="393" y="366" on="0"/>
        <pt x="341" y="538" on="0"/>
        <pt x="315" y="626" on="1"/>
      </contour>
    </TTGlyph>
    <TTGlyph name="Aring" xMin="53" yMin="-3" xMax="572" yMax="987">
      <component glyphName="A" x="0" y="0" flags="0x204"/>
      <component glyphName="ring.cap" x="-12" y="149" flags="0x4"/>
    </TTGlyph>
    <TTGlyph name="Aringacute" xMin="53" yMin="-3" xMax="572" yMax="1266">
      <component glyphName="A" x="0" y="0" flags="0x204"/>
      <component glyphName="ring.cap" x="-12" y="149" flags="0x4"/>
      <component glyphName="acute" x="5" y="417" flags="0x4"/>
    </TTGlyph>
    <TTGlyph name="Atilde" xMin="53" yMin="-3" xMax="572" yMax="958">
      <component glyphName="A" x="0" y="0" flags="0x204"/>
      <component glyphName="tilde.cap" x="6" y="149" flags="0x4"/>
    </TTGlyph>
    <TTGlyph name="B" xMin="118" yMin="-10" xMax="552" yMax="697">
      <contour>
        <pt x="118" y="688" on="1"/>
        <pt x="194" y="697" on="0"/>
        <pt x="258" y="697" on="1"/>
        <pt x="385" y="697" on="0"/>
        <pt x="528" y="618" on="0"/>
        <pt x="528" y="530" on="1"/>
        <pt x="528" y="495" on="0"/>
        <pt x="506" y="439" on="0"/>
        <pt x="468" y="397" on="0"/>
        <pt x="415" y="367" on="0"/>
        <pt x="385" y="358" on="1"/>
        <pt x="460" y="345" on="0"/>
        <pt x="552" y="266" on="0"/>
        <pt x="552" y="191" on="1"/>
        <pt x="552" y="138" on="0"/>
        <pt x="508" y="63" on="0"/>
        <pt x="428" y="13" on="0"/>
        <pt x="317" y="-10" on="0"/>
        <pt x="250" y="-10" on="1"/>
        <pt x="219" y="-10" on="0"/>
        <pt x="153" y="-5" on="0"/>
        <pt x="118" y="0" on="1"/>
      </contour>
      <contour>
        <pt x="191" y="374" on="1"/>
        <pt x="214" y="374" on="1"/>
        <pt x="281" y="374" on="0"/>
        <pt x="374" y="391" on="0"/>
        <pt x="432" y="425" on="0"/>
        <pt x="458" y="478" on="0"/>
        <pt x="458" y="513" on="1"/>
        <pt x="458" y="579" on="0"/>
        <pt x="358" y="638" on="0"/>
        <pt x="270" y="638" on="1"/>
        <pt x="252" y="638" on="0"/>
        <pt x="212" y="635" on="0"/>
        <pt x="191" y="633" on="1"/>
      </contour>
      <contour>
        <pt x="191" y="57" on="1"/>
        <pt x="217" y="53" on="0"/>
        <pt x="265" y="50" on="0"/>
        <pt x="288" y="50" on="1"/>
        <pt x="376" y="50" on="0"/>
        <pt x="480" y="113" on="0"/>
        <pt x="480" y="187" on="1"/>
        <pt x="480" y="263" on="0"/>
        <pt x="359" y="320" on="0"/>
        <pt x="239" y="320" on="1"/>
        <pt x="228" y="320" on="0"/>
        <pt x="204" y="320" on="0"/>
        <pt x="191" y="319" on="1"/>
      </contour>
    </TTGlyph>
    <TTGlyph name="C" xMin="83" yMin="-6" xMax="536" yMax="696">
      <contour>
        <pt x="529" y="626" on="1"/>
        <pt x="413" y="623" on="0"/>
        <pt x="268" y="579" on="0"/>
        <pt x="187" y="505" on="0"/>
        <pt x="158" y="403" on="0"/>
        <pt x="158" y="342" on="1"/>
        <pt x="158" y="275" on="0"/>
        <pt x="188" y="170" on="0"/>
        <pt x="263" y="97" on="0"/>
        <pt x="392" y="59" on="0"/>
        <pt x="491" y="59" on="1"/>
        <pt x="502" y="59" on="0"/>
        <pt x="525" y="59" on="0"/>
        <pt x="536" y="60" on="1"/>
        <pt x="529" y="-4" on="1"/>
        <pt x="512" y="-5" on="0"/>
        <pt x="482" y="-6" on="0"/>
        <pt x="467" y="-6" on="1"/>
        <pt x="355" y="-6" on="0"/>
        <pt x="207" y="46" on="0"/>
        <pt x="119" y="137" on="0"/>
        <pt x="83" y="260" on="0"/>
        <pt x="83" y="332" on="1"/>
        <pt x="83" y="402" on="0"/>
        <pt x="127" y="530" on="0"/>
        <pt x="230" y="629" on="0"/>
        <pt x="399" y="691" on="0"/>
        <pt x="525" y="696" on="1"/>
        <pt x="529" y="626" on="1"/>
      </contour>
    </TTGlyph>
    <TTGlyph name="Cacute" xMin="83" yMin="-6" xMax="536" yMax="998">
      <component glyphName="C" x="0" y="0" flags="0x204"/>
      <component glyphName="acute.cap" x="48" y="149" flags="0x4"/>
    </TTGlyph>
    <TTGlyph name="Ccaron" xMin="83" yMin="-6" xMax="554" yMax="969">
      <component glyphName="C" x="0" y="0" flags="0x204"/>
      <component glyphName="caron.cap" x="49" y="149" flags="0x4"/>
    </TTGlyph>
    <TTGlyph name="Ccedilla" xMin="83" yMin="-233" xMax="536" yMax="696">
      <contour>
        <pt x="529" y="626" on="1"/>
        <pt x="413" y="623" on="0"/>
        <pt x="268" y="579" on="0"/>
        <pt x="187" y="505" on="0"/>
        <pt x="158" y="403" on="0"/>
        <pt x="158" y="342" on="1"/>
        <pt x="158" y="275" on="0"/>
        <pt x="188" y="170" on="0"/>
        <pt x="263" y="97" on="0"/>
        <pt x="392" y="59" on="0"/>
        <pt x="491" y="59" on="1"/>
        <pt x="502" y="59" on="0"/>
        <pt x="525" y="59" on="0"/>
        <pt x="536" y="60" on="1"/>
        <pt x="529" y="-4" on="1"/>
        <pt x="513" y="-5" on="0"/>
        <pt x="483" y="-6" on="0"/>
        <pt x="468" y="-6" on="1"/>
        <pt x="385" y="-6" on="0"/>
        <pt x="322" y="9" on="1"/>
        <pt x="380" y="-27" on="0"/>
        <pt x="434" y="-93" on="0"/>
        <pt x="434" y="-123" on="1"/>
        <pt x="434" y="-163" on="0"/>
        <pt x="339" y="-219" on="0"/>
        <pt x="242" y="-233" on="1"/>
        <pt x="236" y="-175" on="1"/>
        <pt x="308" y="-164" on="0"/>
        <pt x="371" y="-137" on="0"/>
        <pt x="371" y="-117" on="1"/>
        <pt x="371" y="-98" on="0"/>
        <pt x="321" y="-44" on="0"/>
        <pt x="263" y="-9" on="1"/>
        <pt x="279" y="21" on="1"/>
        <pt x="223" y="40" on="0"/>
        <pt x="148" y="101" on="0"/>
        <pt x="103" y="182" on="0"/>
        <pt x="83" y="278" on="0"/>
        <pt x="83" y="332" on="1"/>
        <pt x="83" y="402" on="0"/>
        <pt x="127" y="530" on="0"/>
        <pt x="230" y="629" on="0"/>
        <pt x="399" y="691" on="0"/>
        <pt x="525" y="696" on="1"/>
      </contour>
    </TTGlyph>
    <TTGlyph name="Cdotaccent" xMin="83" yMin="-6" xMax="536" yMax="926">
      <component glyphName="dotaccent.cap" x="45" y="149" flags="0x204"/>
      <component glyphName="C" x="0" y="0" flags="0x4"/>
    </TTGlyph>
    <TTGlyph name="D" xMin="107" yMin="-10" xMax="559" yMax="699">
      <contour>
        <pt x="559" y="358" on="1"/>
        <pt x="559" y="181" on="0"/>
        <pt x="386" y="-10" on="0"/>
        <pt x="216" y="-10" on="1"/>
        <pt x="165" y="-10" on="0"/>
        <pt x="107" y="-1" on="1"/>
        <pt x="107" y="689" on="1"/>
        <pt x="143" y="694" on="0"/>
        <pt x="208" y="699" on="0"/>
        <pt x="237" y="699" on="1"/>
        <pt x="323" y="699" on="0"/>
        <pt x="445" y="656" on="0"/>
        <pt x="523" y="570" on="0"/>
        <pt x="559" y="442" on="0"/>
      </contour>
      <contour>
        <pt x="485" y="345" on="1"/>
        <pt x="485" y="494" on="0"/>
        <pt x="374" y="636" on="0"/>
        <pt x="249" y="636" on="1"/>
        <pt x="232" y="636" on="0"/>
        <pt x="199" y="633" on="0"/>
        <pt x="180" y="631" on="1"/>
        <pt x="180" y="59" on="1"/>
        <pt x="216" y="53" on="0"/>
        <pt x="249" y="53" on="1"/>
        <pt x="369" y="53" on="0"/>
        <pt x="485" y="203" on="0"/>
      </contour>
    </TTGlyph>
    <TTGlyph name="Dcaron" xMin="107" yMin="-10" xMax="559" yMax="977">
      <component glyphName="caron.cap" x="-2" y="157" flags="0x204"/>
      <component glyphName="D" x="0" y="0" flags="0x4"/>
    </TTGlyph>
    <TTGlyph name="Dcroat" xMin="25" yMin="-10" xMax="559" yMax="699">
      <contour>
        <pt x="559" y="358" on="1"/>
        <pt x="559" y="181" on="0"/>
        <pt x="386" y="-10" on="0"/>
        <pt x="216" y="-10" on="1"/>
        <pt x="165" y="-10" on="0"/>
        <pt x="107" y="-1" on="1"/>
        <pt x="107" y="323" on="1"/>
        <pt x="25" y="323" on="1"/>
        <pt x="25" y="376" on="1"/>
        <pt x="107" y="376" on="1"/>
        <pt x="107" y="689" on="1"/>
        <pt x="143" y="694" on="0"/>
        <pt x="208" y="699" on="0"/>
        <pt x="237" y="699" on="1"/>
        <pt x="323" y="699" on="0"/>
        <pt x="445" y="656" on="0"/>
        <pt x="523" y="570" on="0"/>
        <pt x="559" y="442" on="0"/>
      </contour>
      <contour>
        <pt x="180" y="59" on="1"/>
        <pt x="216" y="53" on="0"/>
        <pt x="249" y="53" on="1"/>
        <pt x="369" y="53" on="0"/>
        <pt x="485" y="203" on="0"/>
        <pt x="485" y="345" on="1"/>
        <pt x="485" y="494" on="0"/>
        <pt x="374" y="636" on="0"/>
        <pt x="249" y="636" on="1"/>
        <pt x="232" y="636" on="0"/>
        <pt x="199" y="633" on="0"/>
        <pt x="180" y="631" on="1"/>
        <pt x="180" y="376" on="1"/>
        <pt x="338" y="376" on="1"/>
        <pt x="335" y="323" on="1"/>
        <pt x="180" y="323" on="1"/>
      </contour>
    </TTGlyph>
    <TTGlyph name="E" xMin="129" yMin="0" xMax="544" yMax="688">
      <contour>
        <pt x="537" y="0" on="1"/>
        <pt x="129" y="0" on="1"/>
        <pt x="129" y="688" on="1"/>
        <pt x="539" y="688" on="1"/>
        <pt x="539" y="625" on="1"/>
        <pt x="202" y="625" on="1"/>
        <pt x="202" y="377" on="1"/>
        <pt x="495" y="377" on="1"/>
        <pt x="495" y="321" on="1"/>
        <pt x="202" y="321" on="1"/>
        <pt x="202" y="63" on="1"/>
        <pt x="544" y="63" on="1"/>
      </contour>
    </TTGlyph>
    <TTGlyph name="Eacute" xMin="129" yMin="0" xMax="544" yMax="998">
      <component glyphName="acute.cap" x="31" y="149" flags="0x204"/>
      <component glyphName="E" x="0" y="0" flags="0x4"/>
    </TTGlyph>
    <TTGlyph name="Ebreve" xMin="129" yMin="0" xMax="544" yMax="965">
      <component glyphName="breve.cap" x="26" y="149" flags="0x204"/>
      <component glyphName="E" x="0" y="0" flags="0x4"/>
    </TTGlyph>
    <TTGlyph name="Ecaron" xMin="129" yMin="0" xMax="544" yMax="969">
      <component glyphName="caron.cap" x="31" y="149" flags="0x204"/>
      <component glyphName="E" x="0" y="0" flags="0x4"/>
    </TTGlyph>
    <TTGlyph name="Ecircumflex" xMin="129" yMin="0" xMax="544" yMax="976">
      <component glyphName="E" x="0" y="0" flags="0x204"/>
      <component glyphName="circumflex.cap" x="25" y="149" flags="0x4"/>
    </TTGlyph>
    <TTGlyph name="Edieresis" xMin="129" yMin="0" xMax="544" yMax="926">
      <component glyphName="dieresis.cap" x="25" y="149" flags="0x204"/>
      <component glyphName="E" x="0" y="0" flags="0x4"/>
    </TTGlyph>
    <TTGlyph name="Edotaccent" xMin="129" yMin="0" xMax="544" yMax="926">
      <component glyphName="dotaccent.cap" x="27" y="149" flags="0x204"/>
      <component glyphName="E" x="0" y="0" flags="0x4"/>
    </TTGlyph>
    <TTGlyph name="Egrave" xMin="129" yMin="0" xMax="544" yMax="991">
      <component glyphName="grave.cap" x="10" y="149" flags="0x204"/>
      <component glyphName="E" x="0" y="0" flags="0x4"/>
    </TTGlyph>
    <TTGlyph name="Emacron" xMin="129" yMin="0" xMax="544" yMax="887">
      <component glyphName="macron.cap" x="25" y="149" flags="0x204"/>
      <component glyphName="E" x="0" y="0" flags="0x4"/>
    </TTGlyph>
    <TTGlyph name="Eogonek" xMin="129" yMin="-234" xMax="544" yMax="688">
      <contour>
        <pt x="513" y="-234" on="1"/>
        <pt x="460" y="-229" on="0"/>
        <pt x="386" y="-212" on="0"/>
        <pt x="340" y="-187" on="0"/>
        <pt x="320" y="-155" on="0"/>
        <pt x="320" y="-136" on="1"/>
        <pt x="320" y="-105" on="0"/>
        <pt x="381" y="-40" on="0"/>
        <pt x="455" y="0" on="1"/>
        <pt x="129" y="0" on="1"/>
        <pt x="129" y="688" on="1"/>
        <pt x="539" y="688" on="1"/>
        <pt x="539" y="625" on="1"/>
        <pt x="202" y="625" on="1"/>
        <pt x="202" y="377" on="1"/>
        <pt x="495" y="377" on="1"/>
        <pt x="495" y="321" on="1"/>
        <pt x="202" y="321" on="1"/>
        <pt x="202" y="63" on="1"/>
        <pt x="544" y="63" on="1"/>
        <pt x="537" y="0" on="1"/>
        <pt x="493" y="-21" on="0"/>
        <pt x="434" y="-56" on="0"/>
        <pt x="400" y="-85" on="0"/>
        <pt x="386" y="-109" on="0"/>
        <pt x="386" y="-119" on="1"/>
        <pt x="386" y="-140" on="0"/>
        <pt x="447" y="-167" on="0"/>
        <pt x="520" y="-175" on="1"/>
      </contour>
    </TTGlyph>
    <TTGlyph name="Eth" xMin="25" yMin="-10" xMax="559" yMax="699">
      <component glyphName="Dcroat" x="0" y="0" flags="0x204"/>
    </TTGlyph>
    <TTGlyph name="Euro" xMin="78" yMin="-23" xMax="545" yMax="712">
      <contour>
        <pt x="535" y="-23" on="1"/>
        <pt x="449" y="-13" on="0"/>
        <pt x="321" y="30" on="0"/>
        <pt x="231" y="92" on="0"/>
        <pt x="176" y="173" on="0"/>
        <pt x="163" y="223" on="1"/>
        <pt x="79" y="223" on="1"/>
        <pt x="79" y="279" on="1"/>
        <pt x="152" y="279" on="1"/>
        <pt x="149" y="309" on="0"/>
        <pt x="149" y="341" on="1"/>
        <pt x="149" y="370" on="0"/>
        <pt x="152" y="399" on="1"/>
        <pt x="78" y="399" on="1"/>
        <pt x="78" y="455" on="1"/>
        <pt x="162" y="455" on="1"/>
        <pt x="174" y="502" on="0"/>
        <pt x="224" y="581" on="0"/>
        <pt x="311" y="646" on="0"/>
        <pt x="437" y="695" on="0"/>
        <pt x="525" y="712" on="1"/>
        <pt x="538" y="643" on="1"/>
        <pt x="461" y="631" on="0"/>
        <pt x="351" y="597" on="0"/>
        <pt x="278" y="551" on="0"/>
        <pt x="236" y="490" on="0"/>
        <pt x="227" y="451" on="1"/>
        <pt x="482" y="451" on="1"/>
        <pt x="480" y="399" on="1"/>
        <pt x="218" y="399" on="1"/>
        <pt x="217" y="386" on="0"/>
        <pt x="216" y="359" on="0"/>
        <pt x="216" y="345" on="1"/>
        <pt x="216" y="328" on="0"/>
        <pt x="218" y="295" on="0"/>
        <pt x="220" y="280" on="1"/>
        <pt x="479" y="280" on="1"/>
        <pt x="476" y="229" on="1"/>
        <pt x="231" y="229" on="1"/>
        <pt x="243" y="191" on="0"/>
        <pt x="288" y="130" on="0"/>
        <pt x="363" y="83" on="0"/>
        <pt x="471" y="49" on="0"/>
        <pt x="545" y="38" on="1"/>
      </contour>
    </TTGlyph>
    <TTGlyph name="F" xMin="136" yMin="0" xMax="552" yMax="688">
      <contour>
        <pt x="210" y="308" on="1"/>
        <pt x="210" y="0" on="1"/>
        <pt x="136" y="0" on="1"/>
        <pt x="136" y="688" on="1"/>
        <pt x="552" y="688" on="1"/>
        <pt x="552" y="625" on="1"/>
        <pt x="210" y="625" on="1"/>
        <pt x="210" y="366" on="1"/>
        <pt x="506" y="366" on="1"/>
        <pt x="506" y="308" on="1"/>
      </contour>
    </TTGlyph>
    <TTGlyph name="G" xMin="70" yMin="-10" xMax="531" yMax="696">
      <contour>
        <pt x="509" y="626" on="1"/>
        <pt x="395" y="624" on="0"/>
        <pt x="252" y="579" on="0"/>
        <pt x="172" y="503" on="0"/>
        <pt x="144" y="400" on="0"/>
        <pt x="144" y="340" on="1"/>
        <pt x="144" y="274" on="0"/>
        <pt x="171" y="168" on="0"/>
        <pt x="233" y="92" on="0"/>
        <pt x="335" y="51" on="0"/>
        <pt x="410" y="51" on="1"/>
        <pt x="423" y="51" on="0"/>
        <pt x="449" y="51" on="0"/>
        <pt x="463" y="53" on="1"/>
        <pt x="462" y="111" on="0"/>
        <pt x="460" y="261" on="0"/>
        <pt x="460" y="345" on="1"/>
        <pt x="530" y="345" on="1"/>
        <pt x="530" y="238" on="0"/>
        <pt x="529" y="74" on="0"/>
        <pt x="531" y="6" on="1"/>
        <pt x="454" y="-10" on="0"/>
        <pt x="386" y="-10" on="1"/>
        <pt x="303" y="-10" on="0"/>
        <pt x="183" y="39" on="0"/>
        <pt x="106" y="128" on="0"/>
        <pt x="70" y="252" on="0"/>
        <pt x="70" y="326" on="1"/>
        <pt x="70" y="399" on="0"/>
        <pt x="112" y="530" on="0"/>
        <pt x="212" y="630" on="0"/>
        <pt x="379" y="691" on="0"/>
        <pt x="504" y="696" on="1"/>
        <pt x="509" y="626" on="1"/>
      </contour>
    </TTGlyph>
    <TTGlyph name="Gbreve" xMin="70" yMin="-10" xMax="537" yMax="965">
      <component glyphName="breve.cap" x="19" y="149" flags="0x204"/>
      <component glyphName="G" x="0" y="0" flags="0x4"/>
    </TTGlyph>
    <TTGlyph name="Gcommaaccent" xMin="70" yMin="-313" xMax="531" yMax="696">
      <component glyphName="G" x="0" y="0" flags="0x204"/>
      <component glyphName="commaaccent.cap" x="24" y="-10" flags="0x4"/>
    </TTGlyph>
    <TTGlyph name="Gdotaccent" xMin="70" yMin="-10" xMax="531" yMax="926">
      <component glyphName="dotaccent.cap" x="20" y="149" flags="0x204"/>
      <component glyphName="G" x="0" y="0" flags="0x4"/>
    </TTGlyph>
    <TTGlyph name="H" xMin="101" yMin="0" xMax="523" yMax="688">
      <contour>
        <pt x="449" y="320" on="1"/>
        <pt x="175" y="320" on="1"/>
        <pt x="175" y="0" on="1"/>
        <pt x="101" y="0" on="1"/>
        <pt x="101" y="688" on="1"/>
        <pt x="175" y="688" on="1"/>
        <pt x="175" y="378" on="1"/>
        <pt x="449" y="378" on="1"/>
        <pt x="449" y="688" on="1"/>
        <pt x="523" y="688" on="1"/>
        <pt x="523" y="0" on="1"/>
        <pt x="449" y="0" on="1"/>
      </contour>
    </TTGlyph>
    <TTGlyph name="Hbar" xMin="19" yMin="0" xMax="606" yMax="688">
      <contour>
        <pt x="449" y="499" on="1"/>
        <pt x="175" y="499" on="1"/>
        <pt x="175" y="364" on="1"/>
        <pt x="449" y="364" on="1"/>
      </contour>
      <contour>
        <pt x="449" y="307" on="1"/>
        <pt x="175" y="307" on="1"/>
        <pt x="175" y="0" on="1"/>
        <pt x="101" y="0" on="1"/>
        <pt x="101" y="497" on="1"/>
        <pt x="19" y="497" on="1"/>
        <pt x="19" y="550" on="1"/>
        <pt x="101" y="550" on="1"/>
        <pt x="101" y="688" on="1"/>
        <pt x="175" y="688" on="1"/>
        <pt x="175" y="548" on="1"/>
        <pt x="449" y="548" on="1"/>
        <pt x="449" y="688" on="1"/>
        <pt x="523" y="688" on="1"/>
        <pt x="523" y="550" on="1"/>
        <pt x="606" y="550" on="1"/>
        <pt x="606" y="497" on="1"/>
        <pt x="523" y="497" on="1"/>
        <pt x="523" y="0" on="1"/>
        <pt x="449" y="0" on="1"/>
      </contour>
    </TTGlyph>
    <TTGlyph name="I" xMin="98" yMin="0" xMax="529" yMax="688">
      <contour>
        <pt x="348" y="58" on="1"/>
        <pt x="529" y="58" on="1"/>
        <pt x="523" y="0" on="1"/>
        <pt x="98" y="0" on="1"/>
        <pt x="98" y="58" on="1"/>
        <pt x="275" y="58" on="1"/>
        <pt x="275" y="630" on="1"/>
        <pt x="98" y="630" on="1"/>
        <pt x="98" y="688" on="1"/>
        <pt x="524" y="688" on="1"/>
        <pt x="524" y="630" on="1"/>
        <pt x="348" y="630" on="1"/>
      </contour>
    </TTGlyph>
    <TTGlyph name="Iacute" xMin="98" yMin="0" xMax="529" yMax="998">
      <component glyphName="I" x="0" y="0" flags="0x204"/>
      <component glyphName="acute.cap" x="7" y="149" flags="0x4"/>
    </TTGlyph>
    <TTGlyph name="Ibreve" xMin="98" yMin="0" xMax="529" yMax="965">
      <component glyphName="I" x="0" y="0" flags="0x204"/>
      <component glyphName="breve.cap" x="3" y="149" flags="0x4"/>
    </TTGlyph>
    <TTGlyph name="Icircumflex" xMin="98" yMin="0" xMax="529" yMax="976">
      <component glyphName="I" x="0" y="0" flags="0x204"/>
      <component glyphName="circumflex.cap" x="2" y="149" flags="0x4"/>
    </TTGlyph>
    <TTGlyph name="Idieresis" xMin="98" yMin="0" xMax="529" yMax="926">
      <component glyphName="I" x="0" y="0" flags="0x204"/>
      <component glyphName="dieresis.cap" x="1" y="149" flags="0x4"/>
    </TTGlyph>
    <TTGlyph name="Idotaccent" xMin="98" yMin="0" xMax="529" yMax="926">
      <component glyphName="I" x="0" y="0" flags="0x204"/>
      <component glyphName="dotaccent.cap" x="4" y="149" flags="0x4"/>
    </TTGlyph>
    <TTGlyph name="Igrave" xMin="98" yMin="0" xMax="529" yMax="991">
      <component glyphName="I" x="0" y="0" flags="0x204"/>
      <component glyphName="grave.cap" x="-13" y="149" flags="0x4"/>
    </TTGlyph>
    <TTGlyph name="Imacron" xMin="98" yMin="0" xMax="529" yMax="887">
      <component glyphName="I" x="0" y="0" flags="0x204"/>
      <component glyphName="macron.cap" x="1" y="149" flags="0x4"/>
    </TTGlyph>
    <TTGlyph name="Iogonek" xMin="98" yMin="-233" xMax="529" yMax="688">
      <contour>
        <pt x="382" y="-233" on="1"/>
        <pt x="329" y="-228" on="0"/>
        <pt x="255" y="-210" on="0"/>
        <pt x="209" y="-184" on="0"/>
        <pt x="189" y="-151" on="0"/>
        <pt x="189" y="-130" on="1"/>
        <pt x="189" y="-100" on="0"/>
        <pt x="231" y="-39" on="0"/>
        <pt x="282" y="0" on="1"/>
        <pt x="98" y="0" on="1"/>
        <pt x="98" y="58" on="1"/>
        <pt x="275" y="58" on="1"/>
        <pt x="275" y="630" on="1"/>
        <pt x="98" y="630" on="1"/>
        <pt x="98" y="688" on="1"/>
        <pt x="524" y="688" on="1"/>
        <pt x="524" y="630" on="1"/>
        <pt x="348" y="630" on="1"/>
        <pt x="348" y="58" on="1"/>
        <pt x="529" y="58" on="1"/>
        <pt x="523" y="0" on="1"/>
        <pt x="345" y="0" on="1"/>
        <pt x="294" y="-42" on="0"/>
        <pt x="255" y="-95" on="0"/>
        <pt x="255" y="-115" on="1"/>
        <pt x="255" y="-138" on="0"/>
        <pt x="316" y="-166" on="0"/>
        <pt x="389" y="-174" on="1"/>
      </contour>
    </TTGlyph>
    <TTGlyph name="J" xMin="110" yMin="-12" xMax="469" yMax="688">
      <contour>
        <pt x="469" y="688" on="1"/>
        <pt x="469" y="218" on="1"/>
        <pt x="469" y="159" on="0"/>
        <pt x="437" y="73" on="0"/>
        <pt x="361" y="16" on="0"/>
        <pt x="237" y="-12" on="0"/>
        <pt x="144" y="-12" on="1"/>
        <pt x="110" y="-12" on="1"/>
        <pt x="110" y="55" on="1"/>
        <pt x="130" y="54" on="0"/>
        <pt x="165" y="53" on="0"/>
        <pt x="181" y="53" on="1"/>
        <pt x="249" y="53" on="0"/>
        <pt x="333" y="70" on="0"/>
        <pt x="380" y="108" on="0"/>
        <pt x="396" y="171" on="0"/>
        <pt x="396" y="218" on="1"/>
        <pt x="396" y="629" on="1"/>
        <pt x="152" y="629" on="1"/>
        <pt x="152" y="688" on="1"/>
      </contour>
    </TTGlyph>
    <TTGlyph name="K" xMin="116" yMin="-6" xMax="577" yMax="688">
      <contour>
        <pt x="266" y="318" on="1"/>
        <pt x="189" y="318" on="1"/>
        <pt x="189" y="0" on="1"/>
        <pt x="116" y="0" on="1"/>
        <pt x="116" y="688" on="1"/>
        <pt x="189" y="688" on="1"/>
        <pt x="189" y="377" on="1"/>
        <pt x="271" y="377" on="1"/>
        <pt x="483" y="688" on="1"/>
        <pt x="561" y="688" on="1"/>
        <pt x="328" y="351" on="1"/>
        <pt x="577" y="5" on="1"/>
        <pt x="497" y="-6" on="1"/>
      </contour>
    </TTGlyph>
    <TTGlyph name="Kcommaaccent" xMin="116" yMin="-309" xMax="577" yMax="688">
      <component glyphName="K" x="0" y="0" flags="0x204"/>
      <component glyphName="commaaccent.cap" x="6" y="-6" flags="0x4"/>
    </TTGlyph>
    <TTGlyph name="L" xMin="139" yMin="0" xMax="558" yMax="688">
      <contour>
        <pt x="139" y="0" on="1"/>
        <pt x="139" y="688" on="1"/>
        <pt x="212" y="688" on="1"/>
        <pt x="212" y="63" on="1"/>
        <pt x="558" y="63" on="1"/>
        <pt x="552" y="0" on="1"/>
      </contour>
    </TTGlyph>
    <TTGlyph name="Lacute" xMin="139" yMin="0" xMax="558" yMax="998">
      <component glyphName="acute.cap" x="40" y="149" flags="0x204"/>
      <component glyphName="L" x="0" y="0" flags="0x4"/>
    </TTGlyph>
    <TTGlyph name="Lcaron" xMin="139" yMin="0" xMax="558" yMax="775">
      <component glyphName="L" x="0" y="0" flags="0x204"/>
      <component glyphName="caron.alt" x="188" y="-115" flags="0x4"/>
    </TTGlyph>
    <TTGlyph name="Lcommaaccent" xMin="139" yMin="-303" xMax="558" yMax="688">
      <component glyphName="L" x="0" y="0" flags="0x204"/>
      <component glyphName="commaaccent.cap" x="41" y="0" flags="0x4"/>
    </TTGlyph>
    <TTGlyph name="Ldot" xMin="139" yMin="0" xMax="558" yMax="688">
      <contour>
        <pt x="432" y="298" on="1"/>
        <pt x="438" y="407" on="1"/>
        <pt x="529" y="407" on="1"/>
        <pt x="523" y="298" on="1"/>
      </contour>
      <contour>
        <pt x="139" y="0" on="1"/>
        <pt x="139" y="688" on="1"/>
        <pt x="212" y="688" on="1"/>
        <pt x="212" y="63" on="1"/>
        <pt x="558" y="63" on="1"/>
        <pt x="552" y="0" on="1"/>
      </contour>
    </TTGlyph>
    <TTGlyph name="Lslash" xMin="45" yMin="0" xMax="558" yMax="688">
      <contour>
        <pt x="139" y="0" on="1"/>
        <pt x="139" y="337" on="1"/>
        <pt x="57" y="295" on="1"/>
        <pt x="45" y="346" on="1"/>
        <pt x="139" y="395" on="1"/>
        <pt x="139" y="688" on="1"/>
        <pt x="212" y="688" on="1"/>
        <pt x="212" y="433" on="1"/>
        <pt x="378" y="520" on="1"/>
        <pt x="391" y="468" on="1"/>
        <pt x="212" y="375" on="1"/>
        <pt x="212" y="63" on="1"/>
        <pt x="558" y="63" on="1"/>
        <pt x="552" y="0" on="1"/>
      </contour>
    </TTGlyph>
    <TTGlyph name="M" xMin="85" yMin="0" xMax="539" yMax="688">
      <contour>
        <pt x="539" y="688" on="1"/>
        <pt x="539" y="0" on="1"/>
        <pt x="468" y="0" on="1"/>
        <pt x="471" y="575" on="1"/>
        <pt x="466" y="575" on="1"/>
        <pt x="341" y="111" on="1"/>
        <pt x="283" y="111" on="1"/>
        <pt x="154" y="575" on="1"/>
        <pt x="150" y="575" on="1"/>
        <pt x="153" y="0" on="1"/>
        <pt x="85" y="0" on="1"/>
        <pt x="85" y="688" on="1"/>
        <pt x="178" y="688" on="1"/>
        <pt x="210" y="573" on="0"/>
        <pt x="237" y="474" on="1"/>
        <pt x="249" y="432" on="0"/>
        <pt x="272" y="347" on="0"/>
        <pt x="292" y="274" on="0"/>
        <pt x="307" y="217" on="0"/>
        <pt x="311" y="203" on="1"/>
        <pt x="316" y="203" on="1"/>
        <pt x="320" y="217" on="0"/>
        <pt x="335" y="274" on="0"/>
        <pt x="355" y="347" on="0"/>
        <pt x="378" y="432" on="0"/>
        <pt x="389" y="474" on="1"/>
        <pt x="415" y="573" on="0"/>
        <pt x="447" y="688" on="1"/>
      </contour>
    </TTGlyph>
    <TTGlyph name="N" xMin="102" yMin="0" xMax="523" yMax="688">
      <contour>
        <pt x="174" y="575" on="1"/>
        <pt x="168" y="575" on="1"/>
        <pt x="170" y="0" on="1"/>
        <pt x="102" y="0" on="1"/>
        <pt x="102" y="688" on="1"/>
        <pt x="186" y="688" on="1"/>
        <pt x="452" y="125" on="1"/>
        <pt x="457" y="125" on="1"/>
        <pt x="454" y="688" on="1"/>
        <pt x="523" y="688" on="1"/>
        <pt x="523" y="0" on="1"/>
        <pt x="448" y="0" on="1"/>
      </contour>
    </TTGlyph>
    <TTGlyph name="Nacute" xMin="102" yMin="0" xMax="523" yMax="998">
      <component glyphName="acute.cap" x="4" y="149" flags="0x204"/>
      <component glyphName="N" x="0" y="0" flags="0x4"/>
    </TTGlyph>
    <TTGlyph name="Ncaron" xMin="102" yMin="0" xMax="523" yMax="969">
      <component glyphName="caron.cap" x="5" y="149" flags="0x204"/>
      <component glyphName="N" x="0" y="0" flags="0x4"/>
    </TTGlyph>
    <TTGlyph name="Ncommaaccent" xMin="102" yMin="-303" xMax="523" yMax="688">
      <component glyphName="commaaccent.cap" x="5" y="0" flags="0x204"/>
      <component glyphName="N" x="0" y="0" flags="0x4"/>
    </TTGlyph>
    <TTGlyph name="Ntilde" xMin="99" yMin="0" xMax="537" yMax="958">
      <component glyphName="tilde.cap" x="5" y="149" flags="0x204"/>
      <component glyphName="N" x="0" y="0" flags="0x4"/>
    </TTGlyph>
    <TTGlyph name="O" xMin="61" yMin="-17" xMax="564" yMax="705">
      <contour>
        <pt x="302" y="-17" on="1"/>
        <pt x="187" y="-17" on="0"/>
        <pt x="61" y="163" on="0"/>
        <pt x="61" y="331" on="1"/>
        <pt x="61" y="421" on="0"/>
        <pt x="98" y="561" on="0"/>
        <pt x="166" y="656" on="0"/>
        <pt x="263" y="705" on="0"/>
        <pt x="323" y="705" on="1"/>
        <pt x="438" y="705" on="0"/>
        <pt x="564" y="525" on="0"/>
        <pt x="564" y="357" on="1"/>
        <pt x="564" y="267" on="0"/>
        <pt x="527" y="128" on="0"/>
        <pt x="459" y="32" on="0"/>
        <pt x="362" y="-17" on="0"/>
      </contour>
      <contour>
        <pt x="310" y="643" on="1"/>
        <pt x="225" y="643" on="0"/>
        <pt x="135" y="493" on="0"/>
        <pt x="135" y="347" on="1"/>
        <pt x="135" y="198" on="0"/>
        <pt x="226" y="45" on="0"/>
        <pt x="314" y="45" on="1"/>
        <pt x="399" y="45" on="0"/>
        <pt x="489" y="196" on="0"/>
        <pt x="489" y="342" on="1"/>
        <pt x="489" y="490" on="0"/>
        <pt x="398" y="643" on="0"/>
      </contour>
    </TTGlyph>
    <TTGlyph name="OE" xMin="52" yMin="0" xMax="569" yMax="688">
      <contour>
        <pt x="125" y="344" on="1"/>
        <pt x="125" y="198" on="0"/>
        <pt x="213" y="65" on="0"/>
        <pt x="311" y="64" on="1"/>
        <pt x="311" y="624" on="1"/>
        <pt x="216" y="622" on="0"/>
        <pt x="125" y="489" on="0"/>
      </contour>
      <contour>
        <pt x="564" y="0" on="1"/>
        <pt x="334" y="0" on="1"/>
        <pt x="188" y="0" on="0"/>
        <pt x="52" y="161" on="0"/>
        <pt x="52" y="331" on="1"/>
        <pt x="52" y="501" on="0"/>
        <pt x="191" y="688" on="0"/>
        <pt x="336" y="688" on="1"/>
        <pt x="565" y="688" on="1"/>
        <pt x="565" y="625" on="1"/>
        <pt x="378" y="625" on="1"/>
        <pt x="378" y="377" on="1"/>
        <pt x="537" y="377" on="1"/>
        <pt x="537" y="321" on="1"/>
        <pt x="378" y="321" on="1"/>
        <pt x="378" y="63" on="1"/>
        <pt x="569" y="63" on="1"/>
      </contour>
    </TTGlyph>
    <TTGlyph name="Oacute" xMin="61" yMin="-17" xMax="564" yMax="1006">
      <component glyphName="acute.cap" x="9" y="157" flags="0x204"/>
      <component glyphName="O" x="0" y="0" flags="0x4"/>
    </TTGlyph>
    <TTGlyph name="Obreve" xMin="61" yMin="-17" xMax="564" yMax="973">
      <component glyphName="breve.cap" x="4" y="157" flags="0x204"/>
      <component glyphName="O" x="0" y="0" flags="0x4"/>
    </TTGlyph>
    <TTGlyph name="Ocircumflex" xMin="61" yMin="-17" xMax="564" yMax="984">
      <component glyphName="O" x="0" y="0" flags="0x204"/>
      <component glyphName="circumflex.cap" x="3" y="157" flags="0x4"/>
    </TTGlyph>
    <TTGlyph name="Odieresis" xMin="61" yMin="-17" xMax="564" yMax="934">
      <component glyphName="dieresis.cap" x="3" y="157" flags="0x204"/>
      <component glyphName="O" x="0" y="0" flags="0x4"/>
    </TTGlyph>
    <TTGlyph name="Ograve" xMin="61" yMin="-17" xMax="564" yMax="999">
      <component glyphName="grave.cap" x="-12" y="157" flags="0x204"/>
      <component glyphName="O" x="0" y="0" flags="0x4"/>
    </TTGlyph>
    <TTGlyph name="Ohungarumlaut" xMin="61" yMin="-17" xMax="582" yMax="1019">
      <component glyphName="O" x="0" y="0" flags="0x204"/>
      <component glyphName="hungarumlaut.cap" x="6" y="157" flags="0x4"/>
    </TTGlyph>
    <TTGlyph name="Omacron" xMin="61" yMin="-17" xMax="564" yMax="895">
      <component glyphName="macron.cap" x="3" y="157" flags="0x204"/>
      <component glyphName="O" x="0" y="0" flags="0x4"/>
    </TTGlyph>
    <TTGlyph name="Omega" xMin="58" yMin="0" xMax="567" yMax="703">
      <contour>
        <pt x="253" y="0" on="1"/>
        <pt x="58" y="0" on="1"/>
        <pt x="58" y="58" on="1"/>
        <pt x="179" y="58" on="1"/>
        <pt x="133" y="161" on="0"/>
        <pt x="89" y="342" on="0"/>
        <pt x="89" y="419" on="1"/>
        <pt x="89" y="483" on="0"/>
        <pt x="119" y="588" on="0"/>
        <pt x="177" y="662" on="0"/>
        <pt x="262" y="703" on="0"/>
        <pt x="316" y="703" on="1"/>
        <pt x="370" y="703" on="0"/>
        <pt x="453" y="663" on="0"/>
        <pt x="508" y="589" on="0"/>
        <pt x="537" y="484" on="0"/>
        <pt x="537" y="420" on="1"/>
        <pt x="537" y="344" on="0"/>
        <pt x="493" y="162" on="0"/>
        <pt x="447" y="58" on="1"/>
        <pt x="567" y="58" on="1"/>
        <pt x="567" y="0" on="1"/>
        <pt x="372" y="0" on="1"/>
        <pt x="370" y="5" on="1"/>
        <pt x="421" y="127" on="0"/>
        <pt x="466" y="330" on="0"/>
        <pt x="466" y="409" on="1"/>
        <pt x="466" y="517" on="0"/>
        <pt x="387" y="637" on="0"/>
        <pt x="312" y="637" on="1"/>
        <pt x="237" y="637" on="0"/>
        <pt x="157" y="517" on="0"/>
        <pt x="157" y="411" on="1"/>
        <pt x="157" y="332" on="0"/>
        <pt x="205" y="129" on="0"/>
        <pt x="256" y="5" on="1"/>
      </contour>
    </TTGlyph>
    <TTGlyph name="Oslash" xMin="61" yMin="-35" xMax="564" yMax="724">
      <contour>
        <pt x="134" y="347" on="1"/>
        <pt x="134" y="216" on="0"/>
        <pt x="171" y="139" on="1"/>
        <pt x="425" y="593" on="1"/>
        <pt x="381" y="644" on="0"/>
        <pt x="310" y="644" on="1"/>
        <pt x="225" y="644" on="0"/>
        <pt x="134" y="493" on="0"/>
      </contour>
      <contour>
        <pt x="314" y="45" on="1"/>
        <pt x="399" y="45" on="0"/>
        <pt x="490" y="196" on="0"/>
        <pt x="490" y="342" on="1"/>
        <pt x="490" y="472" on="0"/>
        <pt x="453" y="549" on="1"/>
        <pt x="200" y="95" on="1"/>
        <pt x="244" y="45" on="0"/>
      </contour>
      <contour>
        <pt x="302" y="-17" on="1"/>
        <pt x="223" y="-17" on="0"/>
        <pt x="166" y="28" on="1"/>
        <pt x="132" y="-35" on="1"/>
        <pt x="84" y="-10" on="1"/>
        <pt x="128" y="69" on="1"/>
        <pt x="96" y="114" on="0"/>
        <pt x="61" y="245" on="0"/>
        <pt x="61" y="331" on="1"/>
        <pt x="61" y="421" on="0"/>
        <pt x="98" y="561" on="0"/>
        <pt x="166" y="656" on="0"/>
        <pt x="263" y="705" on="0"/>
        <pt x="323" y="705" on="1"/>
        <pt x="404" y="705" on="0"/>
        <pt x="459" y="659" on="1"/>
        <pt x="495" y="724" on="1"/>
        <pt x="542" y="698" on="1"/>
        <pt x="497" y="619" on="1"/>
        <pt x="529" y="574" on="0"/>
        <pt x="564" y="443" on="0"/>
        <pt x="564" y="357" on="1"/>
        <pt x="564" y="267" on="0"/>
        <pt x="527" y="128" on="0"/>
        <pt x="459" y="32" on="0"/>
        <pt x="362" y="-17" on="0"/>
      </contour>
    </TTGlyph>
    <TTGlyph name="Oslashacute" xMin="61" yMin="-35" xMax="564" yMax="1006">
      <component glyphName="Oslash" x="0" y="0" flags="0x204"/>
      <component glyphName="acute.cap" x="6" y="157" flags="0x4"/>
    </TTGlyph>
    <TTGlyph name="Otilde" xMin="61" yMin="-17" xMax="564" yMax="966">
      <component glyphName="tilde.cap" x="10" y="157" flags="0x204"/>
      <component glyphName="O" x="0" y="0" flags="0x4"/>
    </TTGlyph>
    <TTGlyph name="P" xMin="123" yMin="0" xMax="558" yMax="698">
      <contour>
        <pt x="123" y="0" on="1"/>
        <pt x="123" y="686" on="1"/>
        <pt x="201" y="698" on="0"/>
        <pt x="264" y="698" on="1"/>
        <pt x="410" y="698" on="0"/>
        <pt x="558" y="582" on="0"/>
        <pt x="558" y="479" on="1"/>
        <pt x="558" y="418" on="0"/>
        <pt x="506" y="329" on="0"/>
        <pt x="412" y="269" on="0"/>
        <pt x="278" y="236" on="0"/>
        <pt x="196" y="232" on="1"/>
        <pt x="196" y="0" on="1"/>
      </contour>
      <contour>
        <pt x="486" y="466" on="1"/>
        <pt x="486" y="545" on="0"/>
        <pt x="383" y="636" on="0"/>
        <pt x="276" y="636" on="1"/>
        <pt x="239" y="636" on="0"/>
        <pt x="196" y="630" on="1"/>
        <pt x="196" y="298" on="1"/>
        <pt x="209" y="297" on="0"/>
        <pt x="233" y="296" on="0"/>
        <pt x="245" y="296" on="1"/>
        <pt x="361" y="296" on="0"/>
        <pt x="486" y="376" on="0"/>
      </contour>
    </TTGlyph>
    <TTGlyph name="Q" xMin="61" yMin="-144" xMax="564" yMax="705">
      <contour>
        <pt x="260" y="-54" on="1"/>
        <pt x="274" y="-15" on="1"/>
        <pt x="172" y="-4" on="0"/>
        <pt x="61" y="174" on="0"/>
        <pt x="61" y="331" on="1"/>
        <pt x="61" y="421" on="0"/>
        <pt x="98" y="561" on="0"/>
        <pt x="166" y="656" on="0"/>
        <pt x="263" y="705" on="0"/>
        <pt x="323" y="705" on="1"/>
        <pt x="438" y="705" on="0"/>
        <pt x="564" y="525" on="0"/>
        <pt x="564" y="357" on="1"/>
        <pt x="564" y="193" on="0"/>
        <pt x="448" y="4" on="0"/>
        <pt x="346" y="-13" on="1"/>
        <pt x="346" y="-14" on="1"/>
        <pt x="527" y="-83" on="1"/>
        <pt x="505" y="-144" on="1"/>
      </contour>
      <contour>
        <pt x="310" y="643" on="1"/>
        <pt x="224" y="643" on="0"/>
        <pt x="135" y="493" on="0"/>
        <pt x="135" y="347" on="1"/>
        <pt x="135" y="198" on="0"/>
        <pt x="225" y="45" on="0"/>
        <pt x="314" y="45" on="1"/>
        <pt x="400" y="45" on="0"/>
        <pt x="489" y="196" on="0"/>
        <pt x="489" y="342" on="1"/>
        <pt x="489" y="490" on="0"/>
        <pt x="398" y="643" on="0"/>
      </contour>
    </TTGlyph>
    <TTGlyph name="R" xMin="116" yMin="-11" xMax="573" yMax="699">
      <contour>
        <pt x="348" y="264" on="1"/>
        <pt x="189" y="260" on="1"/>
        <pt x="189" y="0" on="1"/>
        <pt x="116" y="0" on="1"/>
        <pt x="116" y="686" on="1"/>
        <pt x="159" y="693" on="0"/>
        <pt x="233" y="699" on="0"/>
        <pt x="266" y="699" on="1"/>
        <pt x="337" y="699" on="0"/>
        <pt x="436" y="670" on="0"/>
        <pt x="498" y="618" on="0"/>
        <pt x="526" y="547" on="0"/>
        <pt x="526" y="504" on="1"/>
        <pt x="526" y="434" on="0"/>
        <pt x="458" y="335" on="0"/>
        <pt x="407" y="299" on="1"/>
        <pt x="573" y="2" on="1"/>
        <pt x="496" y="-11" on="1"/>
      </contour>
      <contour>
        <pt x="189" y="315" on="1"/>
        <pt x="356" y="318" on="1"/>
        <pt x="399" y="347" on="0"/>
        <pt x="454" y="431" on="0"/>
        <pt x="454" y="489" on="1"/>
        <pt x="454" y="555" on="0"/>
        <pt x="367" y="637" on="0"/>
        <pt x="271" y="637" on="1"/>
        <pt x="253" y="637" on="0"/>
        <pt x="212" y="634" on="0"/>
        <pt x="189" y="630" on="1"/>
      </contour>
    </TTGlyph>
    <TTGlyph name="R_p" xMin="57" yMin="-189" xMax="588" yMax="696">
      <contour>
        <pt x="177" y="265" on="1"/>
        <pt x="119" y="262" on="1"/>
        <pt x="119" y="0" on="1"/>
        <pt x="57" y="0" on="1"/>
        <pt x="57" y="686" on="1"/>
        <pt x="100" y="696" on="0"/>
        <pt x="137" y="696" on="1"/>
        <pt x="180" y="696" on="0"/>
        <pt x="239" y="669" on="0"/>
        <pt x="276" y="618" on="0"/>
        <pt x="292" y="547" on="0"/>
        <pt x="292" y="504" on="1"/>
        <pt x="292" y="433" on="0"/>
        <pt x="258" y="333" on="0"/>
        <pt x="230" y="300" on="1"/>
        <pt x="315" y="6" on="1"/>
        <pt x="253" y="-4" on="1"/>
      </contour>
      <contour>
        <pt x="119" y="314" on="1"/>
        <pt x="189" y="317" on="1"/>
        <pt x="208" y="348" on="0"/>
        <pt x="230" y="436" on="0"/>
        <pt x="230" y="492" on="1"/>
        <pt x="230" y="564" on="0"/>
        <pt x="191" y="638" on="0"/>
        <pt x="145" y="638" on="1"/>
        <pt x="132" y="638" on="0"/>
        <pt x="119" y="635" on="1"/>
      </contour>
      <contour>
        <pt x="456" y="46" on="1"/>
        <pt x="496" y="46" on="0"/>
        <pt x="528" y="153" on="0"/>
        <pt x="528" y="271" on="1"/>
        <pt x="528" y="383" on="0"/>
        <pt x="500" y="492" on="0"/>
        <pt x="468" y="492" on="1"/>
        <pt x="453" y="492" on="0"/>
        <pt x="423" y="472" on="0"/>
        <pt x="409" y="456" on="1"/>
        <pt x="410" y="418" on="0"/>
        <pt x="411" y="336" on="0"/>
        <pt x="412" y="239" on="0"/>
        <pt x="413" y="125" on="0"/>
        <pt x="413" y="56" on="1"/>
        <pt x="424" y="50" on="0"/>
        <pt x="444" y="46" on="0"/>
      </contour>
      <contour>
        <pt x="351" y="-189" on="1"/>
        <pt x="351" y="-1" on="1"/>
        <pt x="351" y="185" on="0"/>
        <pt x="349" y="447" on="0"/>
        <pt x="347" y="535" on="1"/>
        <pt x="403" y="539" on="1"/>
        <pt x="406" y="500" on="1"/>
        <pt x="422" y="520" on="0"/>
        <pt x="466" y="550" on="0"/>
        <pt x="493" y="550" on="1"/>
        <pt x="543" y="550" on="0"/>
        <pt x="588" y="416" on="0"/>
        <pt x="588" y="298" on="1"/>
        <pt x="588" y="216" on="0"/>
        <pt x="569" y="99" on="0"/>
        <pt x="532" y="23" on="0"/>
        <pt x="478" y="-13" on="0"/>
        <pt x="443" y="-13" on="1"/>
        <pt x="435" y="-13" on="0"/>
        <pt x="421" y="-11" on="0"/>
        <pt x="413" y="-9" on="1"/>
        <pt x="413" y="-182" on="1"/>
      </contour>
    </TTGlyph>
    <TTGlyph name="Racute" xMin="116" yMin="-11" xMax="573" yMax="1008">
      <component glyphName="R" x="0" y="0" flags="0x204"/>
      <component glyphName="acute.cap" x="-4" y="159" flags="0x4"/>
    </TTGlyph>
    <TTGlyph name="Rcaron" xMin="116" yMin="-11" xMax="573" yMax="979">
      <component glyphName="caron.cap" x="-3" y="159" flags="0x204"/>
      <component glyphName="R" x="0" y="0" flags="0x4"/>
    </TTGlyph>
    <TTGlyph name="Rcommaaccent" xMin="116" yMin="-314" xMax="573" yMax="699">
      <component glyphName="R" x="0" y="0" flags="0x204"/>
      <component glyphName="commaaccent.cap" x="35" y="-11" flags="0x4"/>
    </TTGlyph>
    <TTGlyph name="S" xMin="104" yMin="-8" xMax="535" yMax="695">
      <contour>
        <pt x="105" y="63" on="1"/>
        <pt x="133" y="61" on="0"/>
        <pt x="182" y="58" on="0"/>
        <pt x="205" y="58" on="1"/>
        <pt x="275" y="58" on="0"/>
        <pt x="372" y="78" on="0"/>
        <pt x="433" y="111" on="0"/>
        <pt x="461" y="153" on="0"/>
        <pt x="461" y="176" on="1"/>
        <pt x="461" y="209" on="0"/>
        <pt x="408" y="264" on="0"/>
        <pt x="330" y="312" on="0"/>
        <pt x="237" y="359" on="0"/>
        <pt x="159" y="413" on="0"/>
        <pt x="106" y="476" on="0"/>
        <pt x="106" y="516" on="1"/>
        <pt x="106" y="549" on="0"/>
        <pt x="142" y="613" on="0"/>
        <pt x="220" y="664" on="0"/>
        <pt x="344" y="695" on="0"/>
        <pt x="433" y="695" on="1"/>
        <pt x="447" y="695" on="0"/>
        <pt x="477" y="694" on="0"/>
        <pt x="492" y="693" on="1"/>
        <pt x="497" y="625" on="1"/>
        <pt x="449" y="628" on="0"/>
        <pt x="411" y="628" on="1"/>
        <pt x="343" y="628" on="0"/>
        <pt x="254" y="612" on="0"/>
        <pt x="202" y="585" on="0"/>
        <pt x="180" y="548" on="0"/>
        <pt x="180" y="528" on="1"/>
        <pt x="180" y="496" on="0"/>
        <pt x="233" y="444" on="0"/>
        <pt x="311" y="396" on="0"/>
        <pt x="404" y="348" on="0"/>
        <pt x="482" y="294" on="0"/>
        <pt x="535" y="228" on="0"/>
        <pt x="535" y="187" on="1"/>
        <pt x="535" y="152" on="0"/>
        <pt x="495" y="82" on="0"/>
        <pt x="408" y="26" on="0"/>
        <pt x="272" y="-8" on="0"/>
        <pt x="175" y="-8" on="1"/>
        <pt x="158" y="-8" on="0"/>
        <pt x="123" y="-8" on="0"/>
        <pt x="104" y="-6" on="1"/>
        <pt x="105" y="63" on="1"/>
      </contour>
    </TTGlyph>
    <TTGlyph name="Sacute" xMin="104" yMin="-8" xMax="535" yMax="1002">
      <component glyphName="S" x="0" y="0" flags="0x204"/>
      <component glyphName="acute.cap" x="28" y="153" flags="0x4"/>
    </TTGlyph>
    <TTGlyph name="Scaron" xMin="104" yMin="-8" xMax="535" yMax="973">
      <component glyphName="S" x="0" y="0" flags="0x204"/>
      <component glyphName="caron.cap" x="29" y="153" flags="0x4"/>
    </TTGlyph>
    <TTGlyph name="Scedilla" xMin="104" yMin="-245" xMax="535" yMax="695">
      <contour>
        <pt x="203" y="-187" on="1"/>
        <pt x="275" y="-176" on="0"/>
        <pt x="338" y="-149" on="0"/>
        <pt x="338" y="-129" on="1"/>
        <pt x="338" y="-110" on="0"/>
        <pt x="288" y="-56" on="0"/>
        <pt x="230" y="-21" on="1"/>
        <pt x="238" y="-6" on="1"/>
        <pt x="223" y="-8" on="0"/>
        <pt x="191" y="-8" on="0"/>
        <pt x="174" y="-8" on="1"/>
        <pt x="157" y="-8" on="0"/>
        <pt x="123" y="-8" on="0"/>
        <pt x="104" y="-6" on="1"/>
        <pt x="105" y="63" on="1"/>
        <pt x="133" y="61" on="0"/>
        <pt x="182" y="58" on="0"/>
        <pt x="205" y="58" on="1"/>
        <pt x="275" y="58" on="0"/>
        <pt x="372" y="78" on="0"/>
        <pt x="433" y="111" on="0"/>
        <pt x="461" y="153" on="0"/>
        <pt x="461" y="176" on="1"/>
        <pt x="461" y="209" on="0"/>
        <pt x="408" y="264" on="0"/>
        <pt x="330" y="312" on="0"/>
        <pt x="237" y="359" on="0"/>
        <pt x="159" y="413" on="0"/>
        <pt x="106" y="476" on="0"/>
        <pt x="106" y="516" on="1"/>
        <pt x="106" y="549" on="0"/>
        <pt x="142" y="613" on="0"/>
        <pt x="220" y="664" on="0"/>
        <pt x="344" y="695" on="0"/>
        <pt x="433" y="695" on="1"/>
        <pt x="447" y="695" on="0"/>
        <pt x="477" y="694" on="0"/>
        <pt x="492" y="693" on="1"/>
        <pt x="497" y="625" on="1"/>
        <pt x="449" y="628" on="0"/>
        <pt x="411" y="628" on="1"/>
        <pt x="343" y="628" on="0"/>
        <pt x="254" y="612" on="0"/>
        <pt x="202" y="585" on="0"/>
        <pt x="180" y="548" on="0"/>
        <pt x="180" y="528" on="1"/>
        <pt x="180" y="496" on="0"/>
        <pt x="233" y="444" on="0"/>
        <pt x="311" y="396" on="0"/>
        <pt x="404" y="348" on="0"/>
        <pt x="482" y="294" on="0"/>
        <pt x="535" y="228" on="0"/>
        <pt x="535" y="187" on="1"/>
        <pt x="535" y="157" on="0"/>
        <pt x="507" y="98" on="0"/>
        <pt x="447" y="47" on="0"/>
        <pt x="352" y="8" on="0"/>
        <pt x="286" y="-1" on="1"/>
        <pt x="346" y="-38" on="0"/>
        <pt x="401" y="-105" on="0"/>
        <pt x="401" y="-135" on="1"/>
        <pt x="401" y="-175" on="0"/>
        <pt x="306" y="-231" on="0"/>
        <pt x="209" y="-245" on="1"/>
      </contour>
    </TTGlyph>
    <TTGlyph name="Scommaaccent" xMin="104" yMin="-316" xMax="535" yMax="695">
      <component glyphName="S" x="0" y="0" flags="0x204"/>
      <component glyphName="commaaccent.cap" x="7" y="-13" flags="0x4"/>
    </TTGlyph>
    <TTGlyph name="T" xMin="53" yMin="0" xMax="570" yMax="688">
      <contour>
        <pt x="350" y="0" on="1"/>
        <pt x="276" y="0" on="1"/>
        <pt x="276" y="625" on="1"/>
        <pt x="53" y="625" on="1"/>
        <pt x="59" y="688" on="1"/>
        <pt x="570" y="688" on="1"/>
        <pt x="570" y="625" on="1"/>
        <pt x="350" y="625" on="1"/>
      </contour>
    </TTGlyph>
    <TTGlyph name="Tcaron" xMin="53" yMin="0" xMax="570" yMax="969">
      <component glyphName="caron.cap" x="5" y="149" flags="0x204"/>
      <component glyphName="T" x="0" y="0" flags="0x4"/>
    </TTGlyph>
    <TTGlyph name="Tcommaaccent" xMin="53" yMin="-303" xMax="570" yMax="688">
      <component glyphName="T" x="0" y="0" flags="0x204"/>
      <component glyphName="commaaccent.cap" x="5" y="0" flags="0x4"/>
    </TTGlyph>
    <TTGlyph name="Thorn" xMin="124" yMin="0" xMax="562" yMax="688">
      <contour>
        <pt x="124" y="0" on="1"/>
        <pt x="124" y="688" on="1"/>
        <pt x="197" y="688" on="1"/>
        <pt x="197" y="575" on="1"/>
        <pt x="217" y="577" on="0"/>
        <pt x="253" y="579" on="0"/>
        <pt x="270" y="579" on="1"/>
        <pt x="413" y="579" on="0"/>
        <pt x="562" y="466" on="0"/>
        <pt x="562" y="363" on="1"/>
        <pt x="562" y="303" on="0"/>
        <pt x="510" y="216" on="0"/>
        <pt x="414" y="156" on="0"/>
        <pt x="279" y="123" on="0"/>
        <pt x="197" y="119" on="1"/>
        <pt x="197" y="0" on="1"/>
      </contour>
      <contour>
        <pt x="489" y="350" on="1"/>
        <pt x="489" y="428" on="0"/>
        <pt x="382" y="516" on="0"/>
        <pt x="276" y="516" on="1"/>
        <pt x="239" y="516" on="0"/>
        <pt x="197" y="510" on="1"/>
        <pt x="197" y="186" on="1"/>
        <pt x="208" y="185" on="0"/>
        <pt x="230" y="185" on="0"/>
        <pt x="241" y="185" on="1"/>
        <pt x="360" y="185" on="0"/>
        <pt x="489" y="261" on="0"/>
      </contour>
    </TTGlyph>
    <TTGlyph name="U" xMin="97" yMin="-17" xMax="527" yMax="688">
      <contour>
        <pt x="307" y="-17" on="1"/>
        <pt x="208" y="-17" on="0"/>
        <pt x="97" y="103" on="0"/>
        <pt x="97" y="218" on="1"/>
        <pt x="97" y="688" on="1"/>
        <pt x="170" y="688" on="1"/>
        <pt x="170" y="226" on="1"/>
        <pt x="170" y="134" on="0"/>
        <pt x="247" y="47" on="0"/>
        <pt x="315" y="47" on="1"/>
        <pt x="386" y="47" on="0"/>
        <pt x="454" y="124" on="0"/>
        <pt x="454" y="210" on="1"/>
        <pt x="454" y="688" on="1"/>
        <pt x="527" y="688" on="1"/>
        <pt x="527" y="220" on="1"/>
        <pt x="527" y="105" on="0"/>
        <pt x="411" y="-17" on="0"/>
      </contour>
    </TTGlyph>
    <TTGlyph name="Uacute" xMin="97" yMin="-17" xMax="527" yMax="998">
      <component glyphName="acute.cap" x="6" y="149" flags="0x204"/>
      <component glyphName="U" x="0" y="0" flags="0x4"/>
    </TTGlyph>
    <TTGlyph name="Ubreve" xMin="97" yMin="-17" xMax="527" yMax="965">
      <component glyphName="breve.cap" x="1" y="149" flags="0x204"/>
      <component glyphName="U" x="0" y="0" flags="0x4"/>
    </TTGlyph>
    <TTGlyph name="Ucircumflex" xMin="97" yMin="-17" xMax="527" yMax="976">
      <component glyphName="U" x="0" y="0" flags="0x204"/>
      <component glyphName="circumflex.cap" x="0" y="149" flags="0x4"/>
    </TTGlyph>
    <TTGlyph name="Udieresis" xMin="97" yMin="-17" xMax="527" yMax="926">
      <component glyphName="dieresis.cap" x="0" y="149" flags="0x204"/>
      <component glyphName="U" x="0" y="0" flags="0x4"/>
    </TTGlyph>
    <TTGlyph name="Ugrave" xMin="97" yMin="-17" xMax="527" yMax="991">
      <component glyphName="grave.cap" x="-15" y="149" flags="0x204"/>
      <component glyphName="U" x="0" y="0" flags="0x4"/>
    </TTGlyph>
    <TTGlyph name="Uhungarumlaut" xMin="97" yMin="-17" xMax="579" yMax="1011">
      <component glyphName="U" x="0" y="0" flags="0x204"/>
      <component glyphName="hungarumlaut.cap" x="3" y="149" flags="0x4"/>
    </TTGlyph>
    <TTGlyph name="Umacron" xMin="97" yMin="-17" xMax="527" yMax="887">
      <component glyphName="macron.cap" x="0" y="149" flags="0x204"/>
      <component glyphName="U" x="0" y="0" flags="0x4"/>
    </TTGlyph>
    <TTGlyph name="Uogonek" xMin="97" yMin="-234" xMax="527" yMax="688">
      <contour>
        <pt x="410" y="-234" on="1"/>
        <pt x="357" y="-229" on="0"/>
        <pt x="283" y="-212" on="0"/>
        <pt x="237" y="-187" on="0"/>
        <pt x="217" y="-155" on="0"/>
        <pt x="217" y="-136" on="1"/>
        <pt x="217" y="-108" on="0"/>
        <pt x="257" y="-52" on="0"/>
        <pt x="308" y="-18" on="1"/>
        <pt x="205" y="-15" on="0"/>
        <pt x="97" y="106" on="0"/>
        <pt x="97" y="218" on="1"/>
        <pt x="97" y="688" on="1"/>
        <pt x="170" y="688" on="1"/>
        <pt x="170" y="226" on="1"/>
        <pt x="170" y="134" on="0"/>
        <pt x="247" y="47" on="0"/>
        <pt x="315" y="47" on="1"/>
        <pt x="386" y="47" on="0"/>
        <pt x="454" y="124" on="0"/>
        <pt x="454" y="210" on="1"/>
        <pt x="454" y="688" on="1"/>
        <pt x="527" y="688" on="1"/>
        <pt x="527" y="220" on="1"/>
        <pt x="527" y="142" on="0"/>
        <pt x="475" y="44" on="0"/>
        <pt x="414" y="7" on="1"/>
        <pt x="376" y="-17" on="0"/>
        <pt x="326" y="-53" on="0"/>
        <pt x="296" y="-83" on="0"/>
        <pt x="283" y="-107" on="0"/>
        <pt x="283" y="-118" on="1"/>
        <pt x="283" y="-140" on="0"/>
        <pt x="344" y="-167" on="0"/>
        <pt x="417" y="-175" on="1"/>
        <pt x="410" y="-234" on="1"/>
      </contour>
    </TTGlyph>
    <TTGlyph name="Uring" xMin="97" yMin="-17" xMax="527" yMax="987">
      <component glyphName="U" x="0" y="0" flags="0x204"/>
      <component glyphName="ring.cap" x="-11" y="149" flags="0x4"/>
    </TTGlyph>
    <TTGlyph name="V" xMin="55" yMin="-2" xMax="569" yMax="691">
      <contour>
        <pt x="259" y="-2" on="1"/>
        <pt x="204" y="173" on="0"/>
        <pt x="103" y="512" on="0"/>
        <pt x="55" y="685" on="1"/>
        <pt x="129" y="691" on="1"/>
        <pt x="172" y="533" on="0"/>
        <pt x="261" y="222" on="0"/>
        <pt x="309" y="65" on="1"/>
        <pt x="319" y="65" on="1"/>
        <pt x="367" y="222" on="0"/>
        <pt x="455" y="530" on="0"/>
        <pt x="498" y="688" on="1"/>
        <pt x="569" y="688" on="1"/>
        <pt x="521" y="515" on="0"/>
        <pt x="421" y="173" on="0"/>
        <pt x="365" y="-2" on="1"/>
      </contour>
    </TTGlyph>
    <TTGlyph name="W" xMin="71" yMin="0" xMax="554" yMax="688">
      <contour>
        <pt x="312" y="383" on="1"/>
        <pt x="209" y="0" on="1"/>
        <pt x="126" y="0" on="1"/>
        <pt x="119" y="49" on="0"/>
        <pt x="105" y="193" on="0"/>
        <pt x="90" y="371" on="0"/>
        <pt x="77" y="577" on="0"/>
        <pt x="71" y="688" on="1"/>
        <pt x="144" y="688" on="1"/>
        <pt x="146" y="644" on="0"/>
        <pt x="151" y="534" on="0"/>
        <pt x="158" y="415" on="0"/>
        <pt x="165" y="296" on="0"/>
        <pt x="172" y="193" on="0"/>
        <pt x="179" y="111" on="0"/>
        <pt x="181" y="90" on="1"/>
        <pt x="185" y="90" on="1"/>
        <pt x="215" y="199" on="0"/>
        <pt x="265" y="391" on="0"/>
        <pt x="290" y="486" on="1"/>
        <pt x="338" y="486" on="1"/>
        <pt x="364" y="389" on="0"/>
        <pt x="419" y="187" on="0"/>
        <pt x="446" y="90" on="1"/>
        <pt x="449" y="90" on="1"/>
        <pt x="451" y="111" on="0"/>
        <pt x="458" y="193" on="0"/>
        <pt x="465" y="296" on="0"/>
        <pt x="472" y="415" on="0"/>
        <pt x="478" y="534" on="0"/>
        <pt x="483" y="644" on="0"/>
        <pt x="485" y="688" on="1"/>
        <pt x="554" y="688" on="1"/>
        <pt x="549" y="577" on="0"/>
        <pt x="535" y="371" on="0"/>
        <pt x="520" y="193" on="0"/>
        <pt x="505" y="49" on="0"/>
        <pt x="499" y="0" on="1"/>
        <pt x="418" y="0" on="1"/>
      </contour>
    </TTGlyph>
    <TTGlyph name="Wacute" xMin="71" yMin="0" xMax="554" yMax="998">
      <component glyphName="acute.cap" x="10" y="149" flags="0x204"/>
      <component glyphName="W" x="0" y="0" flags="0x4"/>
    </TTGlyph>
    <TTGlyph name="Wcircumflex" xMin="71" yMin="0" xMax="554" yMax="976">
      <component glyphName="W" x="0" y="0" flags="0x204"/>
      <component glyphName="circumflex.cap" x="4" y="149" flags="0x4"/>
    </TTGlyph>
    <TTGlyph name="Wdieresis" xMin="71" yMin="0" xMax="554" yMax="926">
      <component glyphName="dieresis.cap" x="4" y="149" flags="0x204"/>
      <component glyphName="W" x="0" y="0" flags="0x4"/>
    </TTGlyph>
    <TTGlyph name="Wgrave" xMin="71" yMin="0" xMax="554" yMax="991">
      <component glyphName="grave.cap" x="-10" y="149" flags="0x204"/>
      <component glyphName="W" x="0" y="0" flags="0x4"/>
    </TTGlyph>
    <TTGlyph name="X" xMin="59" yMin="-3" xMax="569" yMax="692">
      <contour>
        <pt x="310" y="293" on="1"/>
        <pt x="137" y="0" on="1"/>
        <pt x="59" y="0" on="1"/>
        <pt x="269" y="343" on="1"/>
        <pt x="59" y="685" on="1"/>
        <pt x="138" y="692" on="1"/>
        <pt x="317" y="395" on="1"/>
        <pt x="490" y="688" on="1"/>
        <pt x="569" y="688" on="1"/>
        <pt x="359" y="345" on="1"/>
        <pt x="568" y="3" on="1"/>
        <pt x="490" y="-3" on="1"/>
      </contour>
    </TTGlyph>
    <TTGlyph name="Y" xMin="52" yMin="0" xMax="574" yMax="690">
      <contour>
        <pt x="276" y="0" on="1"/>
        <pt x="276" y="228" on="1"/>
        <pt x="52" y="687" on="1"/>
        <pt x="130" y="690" on="1"/>
        <pt x="315" y="300" on="1"/>
        <pt x="498" y="688" on="1"/>
        <pt x="574" y="688" on="1"/>
        <pt x="350" y="230" on="1"/>
        <pt x="350" y="0" on="1"/>
      </contour>
    </TTGlyph>
    <TTGlyph name="Yacute" xMin="52" yMin="0" xMax="574" yMax="1000">
      <component glyphName="Y" x="0" y="0" flags="0x204"/>
      <component glyphName="acute.cap" x="9" y="151" flags="0x4"/>
    </TTGlyph>
    <TTGlyph name="Ycircumflex" xMin="52" yMin="0" xMax="574" yMax="978">
      <component glyphName="Y" x="0" y="0" flags="0x204"/>
      <component glyphName="circumflex.cap" x="3" y="151" flags="0x4"/>
    </TTGlyph>
    <TTGlyph name="Ydieresis" xMin="52" yMin="0" xMax="574" yMax="928">
      <component glyphName="Y" x="0" y="0" flags="0x204"/>
      <component glyphName="dieresis.cap" x="3" y="151" flags="0x4"/>
    </TTGlyph>
    <TTGlyph name="Ygrave" xMin="52" yMin="0" xMax="574" yMax="993">
      <component glyphName="Y" x="0" y="0" flags="0x204"/>
      <component glyphName="grave.cap" x="-11" y="151" flags="0x4"/>
    </TTGlyph>
    <TTGlyph name="Z" xMin="84" yMin="0" xMax="544" yMax="688">
      <contour>
        <pt x="84" y="0" on="1"/>
        <pt x="84" y="63" on="1"/>
        <pt x="462" y="625" on="1"/>
        <pt x="89" y="623" on="1"/>
        <pt x="96" y="688" on="1"/>
        <pt x="539" y="688" on="1"/>
        <pt x="539" y="625" on="1"/>
        <pt x="163" y="64" on="1"/>
        <pt x="544" y="65" on="1"/>
        <pt x="539" y="0" on="1"/>
      </contour>
    </TTGlyph>
    <TTGlyph name="Zacute" xMin="84" yMin="0" xMax="544" yMax="998">
      <component glyphName="Z" x="0" y="0" flags="0x204"/>
      <component glyphName="acute.cap" x="19" y="149" flags="0x4"/>
    </TTGlyph>
    <TTGlyph name="Zcaron" xMin="84" yMin="0" xMax="544" yMax="969">
      <component glyphName="caron.cap" x="19" y="149" flags="0x204"/>
      <component glyphName="Z" x="0" y="0" flags="0x4"/>
    </TTGlyph>
    <TTGlyph name="Zdotaccent" xMin="84" yMin="0" xMax="544" yMax="926">
      <component glyphName="dotaccent.cap" x="15" y="149" flags="0x204"/>
      <component glyphName="Z" x="0" y="0" flags="0x4"/>
    </TTGlyph>
    <TTGlyph name="a" xMin="86" yMin="-14" xMax="524" yMax="548">
      <contour>
        <pt x="279" y="45" on="1"/>
        <pt x="326" y="45" on="0"/>
        <pt x="415" y="83" on="0"/>
        <pt x="449" y="111" on="1"/>
        <pt x="447" y="140" on="0"/>
        <pt x="446" y="205" on="0"/>
        <pt x="446" y="249" on="1"/>
        <pt x="392" y="255" on="0"/>
        <pt x="349" y="255" on="1"/>
        <pt x="244" y="255" on="0"/>
        <pt x="157" y="193" on="0"/>
        <pt x="157" y="142" on="1"/>
        <pt x="157" y="95" on="0"/>
        <pt x="224" y="45" on="0"/>
      </contour>
      <contour>
        <pt x="459" y="-3" on="1"/>
        <pt x="452" y="68" on="1"/>
        <pt x="419" y="37" on="0"/>
        <pt x="318" y="-14" on="0"/>
        <pt x="252" y="-14" on="1"/>
        <pt x="178" y="-14" on="0"/>
        <pt x="86" y="60" on="0"/>
        <pt x="86" y="126" on="1"/>
        <pt x="86" y="165" on="0"/>
        <pt x="122" y="231" on="0"/>
        <pt x="195" y="279" on="0"/>
        <pt x="306" y="306" on="0"/>
        <pt x="381" y="306" on="1"/>
        <pt x="412" y="306" on="0"/>
        <pt x="445" y="303" on="1"/>
        <pt x="442" y="354" on="0"/>
        <pt x="409" y="421" on="0"/>
        <pt x="334" y="462" on="0"/>
        <pt x="211" y="482" on="0"/>
        <pt x="119" y="486" on="1"/>
        <pt x="128" y="548" on="1"/>
        <pt x="242" y="544" on="0"/>
        <pt x="392" y="513" on="0"/>
        <pt x="481" y="448" on="0"/>
        <pt x="517" y="345" on="0"/>
        <pt x="517" y="268" on="1"/>
        <pt x="517" y="224" on="0"/>
        <pt x="518" y="152" on="0"/>
        <pt x="520" y="89" on="0"/>
        <pt x="522" y="31" on="0"/>
        <pt x="524" y="2" on="1"/>
      </contour>
    </TTGlyph>
    <TTGlyph name="aacute" xMin="86" yMin="-14" xMax="524" yMax="851">
      <component glyphName="a" x="0" y="0" flags="0x204"/>
      <component glyphName="acute" x="5" y="2" flags="0x4"/>
    </TTGlyph>
    <TTGlyph name="abreve" xMin="86" yMin="-14" xMax="524" yMax="818">
      <component glyphName="a" x="0" y="0" flags="0x204"/>
      <component glyphName="breve" x="1" y="2" flags="0x4"/>
    </TTGlyph>
    <TTGlyph name="acircumflex" xMin="86" yMin="-14" xMax="524" yMax="829">
      <component glyphName="a" x="0" y="0" flags="0x204"/>
      <component glyphName="circumflex" x="0" y="2" flags="0x4"/>
    </TTGlyph>
    <TTGlyph name="acute" xMin="199" yMin="618" xMax="466" yMax="849">
      <contour>
        <pt x="199" y="651" on="1"/>
        <pt x="223" y="668" on="0"/>
        <pt x="279" y="717" on="0"/>
        <pt x="335" y="771" on="0"/>
        <pt x="386" y="825" on="0"/>
        <pt x="405" y="849" on="1"/>
        <pt x="466" y="792" on="1"/>
        <pt x="443" y="770" on="0"/>
        <pt x="381" y="722" on="0"/>
        <pt x="314" y="675" on="0"/>
        <pt x="248" y="633" on="0"/>
        <pt x="221" y="618" on="1"/>
        <pt x="199" y="651" on="1"/>
      </contour>
    </TTGlyph>
    <TTGlyph name="acute.cap" xMin="199" yMin="618" xMax="466" yMax="849">
      <contour>
        <pt x="199" y="651" on="1"/>
        <pt x="223" y="668" on="0"/>
        <pt x="279" y="717" on="0"/>
        <pt x="335" y="771" on="0"/>
        <pt x="386" y="825" on="0"/>
        <pt x="405" y="849" on="1"/>
        <pt x="466" y="792" on="1"/>
        <pt x="443" y="770" on="0"/>
        <pt x="381" y="722" on="0"/>
        <pt x="314" y="675" on="0"/>
        <pt x="248" y="633" on="0"/>
        <pt x="221" y="618" on="1"/>
        <pt x="199" y="651" on="1"/>
      </contour>
    </TTGlyph>
    <TTGlyph name="adieresis" xMin="86" yMin="-14" xMax="524" yMax="779">
      <component glyphName="a" x="0" y="0" flags="0x204"/>
      <component glyphName="dieresis" x="0" y="2" flags="0x4"/>
    </TTGlyph>
    <TTGlyph name="ae" xMin="49" yMin="-7" xMax="573" yMax="545">
      <contour>
        <pt x="426" y="485" on="1"/>
        <pt x="384" y="485" on="0"/>
        <pt x="339" y="394" on="0"/>
        <pt x="337" y="298" on="1"/>
        <pt x="505" y="301" on="1"/>
        <pt x="507" y="392" on="0"/>
        <pt x="470" y="485" on="0"/>
      </contour>
      <contour>
        <pt x="273" y="249" on="1"/>
        <pt x="196" y="247" on="0"/>
        <pt x="118" y="199" on="0"/>
        <pt x="118" y="143" on="1"/>
        <pt x="118" y="95" on="0"/>
        <pt x="158" y="53" on="0"/>
        <pt x="189" y="53" on="1"/>
        <pt x="221" y="53" on="0"/>
        <pt x="272" y="92" on="0"/>
        <pt x="291" y="123" on="1"/>
        <pt x="281" y="149" on="0"/>
        <pt x="273" y="213" on="0"/>
      </contour>
      <contour>
        <pt x="554" y="-7" on="1"/>
        <pt x="454" y="-5" on="0"/>
        <pt x="340" y="40" on="0"/>
        <pt x="311" y="82" on="1"/>
        <pt x="288" y="47" on="0"/>
        <pt x="215" y="-7" on="0"/>
        <pt x="165" y="-7" on="1"/>
        <pt x="115" y="-7" on="0"/>
        <pt x="49" y="61" on="0"/>
        <pt x="49" y="126" on="1"/>
        <pt x="49" y="207" on="0"/>
        <pt x="163" y="295" on="0"/>
        <pt x="273" y="298" on="1"/>
        <pt x="272" y="350" on="0"/>
        <pt x="253" y="418" on="0"/>
        <pt x="208" y="458" on="0"/>
        <pt x="132" y="477" on="0"/>
        <pt x="72" y="481" on="1"/>
        <pt x="79" y="543" on="1"/>
        <pt x="128" y="540" on="0"/>
        <pt x="202" y="527" on="0"/>
        <pt x="257" y="504" on="0"/>
        <pt x="294" y="468" on="0"/>
        <pt x="305" y="441" on="1"/>
        <pt x="325" y="491" on="0"/>
        <pt x="392" y="545" on="0"/>
        <pt x="438" y="545" on="1"/>
        <pt x="504" y="545" on="0"/>
        <pt x="573" y="421" on="0"/>
        <pt x="573" y="309" on="1"/>
        <pt x="573" y="297" on="0"/>
        <pt x="572" y="271" on="0"/>
        <pt x="571" y="257" on="1"/>
        <pt x="337" y="251" on="1"/>
        <pt x="337" y="200" on="0"/>
        <pt x="356" y="128" on="0"/>
        <pt x="406" y="80" on="0"/>
        <pt x="492" y="56" on="0"/>
        <pt x="560" y="55" on="1"/>
      </contour>
    </TTGlyph>
    <TTGlyph name="aeacute" xMin="49" yMin="-7" xMax="573" yMax="849">
      <component glyphName="acute" x="5" y="0" flags="0x204"/>
      <component glyphName="ae" x="0" y="0" flags="0x4"/>
    </TTGlyph>
    <TTGlyph name="agrave" xMin="86" yMin="-14" xMax="524" yMax="844">
      <component glyphName="a" x="0" y="0" flags="0x204"/>
      <component glyphName="grave" x="-15" y="2" flags="0x4"/>
    </TTGlyph>
    <TTGlyph name="amacron" xMin="86" yMin="-14" xMax="524" yMax="740">
      <component glyphName="a" x="0" y="0" flags="0x204"/>
      <component glyphName="macron" x="0" y="2" flags="0x4"/>
    </TTGlyph>
    <TTGlyph name="ampersand" xMin="53" yMin="-15" xMax="575" yMax="700">
      <contour>
        <pt x="519" y="-15" on="1"/>
        <pt x="490" y="22" on="0"/>
        <pt x="435" y="87" on="0"/>
        <pt x="410" y="116" on="1"/>
        <pt x="365" y="49" on="0"/>
        <pt x="261" y="-13" on="0"/>
        <pt x="208" y="-13" on="1"/>
        <pt x="170" y="-13" on="0"/>
        <pt x="113" y="11" on="0"/>
        <pt x="73" y="53" on="0"/>
        <pt x="53" y="109" on="0"/>
        <pt x="53" y="141" on="1"/>
        <pt x="53" y="264" on="0"/>
        <pt x="202" y="358" on="1"/>
        <pt x="167" y="403" on="0"/>
        <pt x="133" y="474" on="0"/>
        <pt x="133" y="511" on="1"/>
        <pt x="133" y="545" on="0"/>
        <pt x="162" y="613" on="0"/>
        <pt x="229" y="667" on="0"/>
        <pt x="341" y="700" on="0"/>
        <pt x="424" y="700" on="1"/>
        <pt x="441" y="700" on="1"/>
        <pt x="447" y="633" on="1"/>
        <pt x="437" y="634" on="0"/>
        <pt x="419" y="634" on="0"/>
        <pt x="410" y="634" on="1"/>
        <pt x="348" y="634" on="0"/>
        <pt x="268" y="615" on="0"/>
        <pt x="221" y="582" on="0"/>
        <pt x="202" y="540" on="0"/>
        <pt x="202" y="517" on="1"/>
        <pt x="202" y="493" on="0"/>
        <pt x="227" y="440" on="0"/>
        <pt x="278" y="372" on="0"/>
        <pt x="357" y="282" on="0"/>
        <pt x="411" y="221" on="1"/>
        <pt x="433" y="268" on="0"/>
        <pt x="471" y="383" on="0"/>
        <pt x="485" y="448" on="1"/>
        <pt x="548" y="441" on="1"/>
        <pt x="528" y="361" on="0"/>
        <pt x="478" y="229" on="0"/>
        <pt x="449" y="178" on="1"/>
        <pt x="477" y="146" on="0"/>
        <pt x="540" y="74" on="0"/>
        <pt x="575" y="32" on="1"/>
      </contour>
      <contour>
        <pt x="222" y="47" on="1"/>
        <pt x="260" y="47" on="0"/>
        <pt x="339" y="101" on="0"/>
        <pt x="374" y="157" on="1"/>
        <pt x="330" y="208" on="0"/>
        <pt x="259" y="289" on="0"/>
        <pt x="231" y="322" on="1"/>
        <pt x="176" y="284" on="0"/>
        <pt x="123" y="198" on="0"/>
        <pt x="123" y="156" on="1"/>
        <pt x="123" y="108" on="0"/>
        <pt x="172" y="47" on="0"/>
      </contour>
    </TTGlyph>
    <TTGlyph name="aogonek" xMin="86" yMin="-232" xMax="524" yMax="548">
      <contour>
        <pt x="499" y="-232" on="1"/>
        <pt x="446" y="-227" on="0"/>
        <pt x="372" y="-210" on="0"/>
        <pt x="326" y="-185" on="0"/>
        <pt x="306" y="-153" on="0"/>
        <pt x="306" y="-134" on="1"/>
        <pt x="306" y="-101" on="0"/>
        <pt x="374" y="-33" on="0"/>
        <pt x="458" y="11" on="1"/>
        <pt x="456" y="29" on="0"/>
        <pt x="452" y="82" on="0"/>
        <pt x="450" y="99" on="1"/>
        <pt x="433" y="78" on="0"/>
        <pt x="389" y="37" on="0"/>
        <pt x="337" y="6" on="0"/>
        <pt x="277" y="-14" on="0"/>
        <pt x="243" y="-14" on="1"/>
        <pt x="208" y="-14" on="0"/>
        <pt x="151" y="5" on="0"/>
        <pt x="109" y="41" on="0"/>
        <pt x="86" y="93" on="0"/>
        <pt x="86" y="126" on="1"/>
        <pt x="86" y="165" on="0"/>
        <pt x="122" y="231" on="0"/>
        <pt x="195" y="279" on="0"/>
        <pt x="306" y="306" on="0"/>
        <pt x="381" y="306" on="1"/>
        <pt x="396" y="306" on="0"/>
        <pt x="428" y="306" on="0"/>
        <pt x="445" y="304" on="1"/>
        <pt x="442" y="355" on="0"/>
        <pt x="409" y="421" on="0"/>
        <pt x="334" y="462" on="0"/>
        <pt x="211" y="482" on="0"/>
        <pt x="119" y="486" on="1"/>
        <pt x="128" y="548" on="1"/>
        <pt x="242" y="544" on="0"/>
        <pt x="392" y="513" on="0"/>
        <pt x="481" y="448" on="0"/>
        <pt x="517" y="345" on="0"/>
        <pt x="517" y="268" on="1"/>
        <pt x="517" y="224" on="0"/>
        <pt x="518" y="152" on="0"/>
        <pt x="520" y="89" on="0"/>
        <pt x="522" y="31" on="0"/>
        <pt x="524" y="2" on="1"/>
        <pt x="479" y="-20" on="0"/>
        <pt x="421" y="-55" on="0"/>
        <pt x="386" y="-84" on="0"/>
        <pt x="372" y="-108" on="0"/>
        <pt x="372" y="-118" on="1"/>
        <pt x="372" y="-138" on="0"/>
        <pt x="433" y="-166" on="0"/>
        <pt x="506" y="-174" on="1"/>
      </contour>
      <contour>
        <pt x="270" y="45" on="1"/>
        <pt x="319" y="45" on="0"/>
        <pt x="413" y="101" on="0"/>
        <pt x="448" y="142" on="1"/>
        <pt x="446" y="166" on="0"/>
        <pt x="446" y="212" on="0"/>
        <pt x="446" y="249" on="1"/>
        <pt x="392" y="255" on="0"/>
        <pt x="349" y="255" on="1"/>
        <pt x="244" y="255" on="0"/>
        <pt x="157" y="193" on="0"/>
        <pt x="157" y="142" on="1"/>
        <pt x="157" y="95" on="0"/>
        <pt x="219" y="45" on="0"/>
      </contour>
    </TTGlyph>
    <TTGlyph name="approxequal" xMin="71" yMin="114" xMax="549" yMax="533">
      <contour>
        <pt x="410" y="346" on="1"/>
        <pt x="377" y="346" on="0"/>
        <pt x="324" y="385" on="0"/>
        <pt x="276" y="433" on="0"/>
        <pt x="233" y="472" on="0"/>
        <pt x="211" y="472" on="1"/>
        <pt x="184" y="472" on="0"/>
        <pt x="140" y="402" on="0"/>
        <pt x="117" y="348" on="1"/>
        <pt x="71" y="367" on="1"/>
        <pt x="103" y="450" on="0"/>
        <pt x="171" y="533" on="0"/>
        <pt x="216" y="533" on="1"/>
        <pt x="249" y="533" on="0"/>
        <pt x="302" y="493" on="0"/>
        <pt x="349" y="446" on="0"/>
        <pt x="391" y="406" on="0"/>
        <pt x="412" y="406" on="1"/>
        <pt x="438" y="406" on="0"/>
        <pt x="481" y="475" on="0"/>
        <pt x="503" y="526" on="1"/>
        <pt x="549" y="508" on="1"/>
        <pt x="518" y="426" on="0"/>
        <pt x="455" y="346" on="0"/>
      </contour>
      <contour>
        <pt x="410" y="114" on="1"/>
        <pt x="377" y="114" on="0"/>
        <pt x="324" y="154" on="0"/>
        <pt x="276" y="201" on="0"/>
        <pt x="233" y="241" on="0"/>
        <pt x="211" y="241" on="1"/>
        <pt x="184" y="241" on="0"/>
        <pt x="141" y="170" on="0"/>
        <pt x="118" y="117" on="1"/>
        <pt x="71" y="135" on="1"/>
        <pt x="103" y="218" on="0"/>
        <pt x="171" y="301" on="0"/>
        <pt x="216" y="301" on="1"/>
        <pt x="249" y="301" on="0"/>
        <pt x="302" y="261" on="0"/>
        <pt x="349" y="214" on="0"/>
        <pt x="391" y="174" on="0"/>
        <pt x="412" y="174" on="1"/>
        <pt x="439" y="174" on="0"/>
        <pt x="481" y="243" on="0"/>
        <pt x="504" y="295" on="1"/>
        <pt x="549" y="276" on="1"/>
        <pt x="518" y="194" on="0"/>
        <pt x="455" y="114" on="0"/>
      </contour>
    </TTGlyph>
    <TTGlyph name="aring" xMin="86" yMin="-14" xMax="524" yMax="840">
      <component glyphName="a" x="0" y="0" flags="0x204"/>
      <component glyphName="ring" x="-11" y="2" flags="0x4"/>
    </TTGlyph>
    <TTGlyph name="aringacute" xMin="86" yMin="-14" xMax="524" yMax="1122">
      <component glyphName="a" x="0" y="0" flags="0x204"/>
      <component glyphName="ring" x="-11" y="2" flags="0x4"/>
      <component glyphName="acute" x="5" y="273" flags="0x4"/>
    </TTGlyph>
    <TTGlyph name="asciicircum" xMin="72" yMin="180" xMax="556" yMax="547">
      <contour>
        <pt x="308" y="450" on="1"/>
        <pt x="123" y="180" on="1"/>
        <pt x="72" y="218" on="1"/>
        <pt x="300" y="543" on="1"/>
        <pt x="317" y="547" on="1"/>
        <pt x="556" y="219" on="1"/>
        <pt x="501" y="180" on="1"/>
      </contour>
    </TTGlyph>
    <TTGlyph name="asciitilde" xMin="51" yMin="221" xMax="573" yMax="456">
      <contour>
        <pt x="422" y="221" on="1"/>
        <pt x="399" y="221" on="0"/>
        <pt x="357" y="246" on="0"/>
        <pt x="318" y="283" on="0"/>
        <pt x="282" y="327" on="0"/>
        <pt x="247" y="364" on="0"/>
        <pt x="215" y="389" on="0"/>
        <pt x="199" y="389" on="1"/>
        <pt x="185" y="389" on="0"/>
        <pt x="159" y="365" on="0"/>
        <pt x="135" y="323" on="0"/>
        <pt x="112" y="266" on="0"/>
        <pt x="101" y="232" on="1"/>
        <pt x="51" y="251" on="1"/>
        <pt x="83" y="350" on="0"/>
        <pt x="155" y="456" on="0"/>
        <pt x="204" y="456" on="1"/>
        <pt x="227" y="456" on="0"/>
        <pt x="269" y="431" on="0"/>
        <pt x="307" y="394" on="0"/>
        <pt x="343" y="350" on="0"/>
        <pt x="377" y="313" on="0"/>
        <pt x="409" y="288" on="0"/>
        <pt x="424" y="288" on="1"/>
        <pt x="439" y="288" on="0"/>
        <pt x="464" y="312" on="0"/>
        <pt x="488" y="354" on="0"/>
        <pt x="511" y="411" on="0"/>
        <pt x="523" y="445" on="1"/>
        <pt x="573" y="426" on="1"/>
        <pt x="541" y="326" on="0"/>
        <pt x="471" y="221" on="0"/>
      </contour>
    </TTGlyph>
    <TTGlyph name="asterisk" xMin="93" yMin="325" xMax="549" yMax="766">
      <contour>
        <pt x="310" y="461" on="1"/>
        <pt x="183" y="346" on="1"/>
        <pt x="148" y="375" on="1"/>
        <pt x="246" y="516" on="1"/>
        <pt x="93" y="603" on="1"/>
        <pt x="113" y="645" on="1"/>
        <pt x="277" y="594" on="1"/>
        <pt x="313" y="766" on="1"/>
        <pt x="360" y="762" on="1"/>
        <pt x="364" y="588" on="1"/>
        <pt x="537" y="606" on="1"/>
        <pt x="549" y="563" on="1"/>
        <pt x="382" y="506" on="1"/>
        <pt x="454" y="348" on="1"/>
        <pt x="415" y="325" on="1"/>
      </contour>
    </TTGlyph>
    <TTGlyph name="asterisk.alt" xMin="87" yMin="303" xMax="539" yMax="771">
      <contour>
        <pt x="308" y="621" on="1"/>
        <pt x="311" y="771" on="1"/>
        <pt x="381" y="759" on="1"/>
        <pt x="343" y="615" on="1"/>
      </contour>
      <contour>
        <pt x="238" y="574" on="1"/>
        <pt x="110" y="652" on="1"/>
        <pt x="155" y="707" on="1"/>
        <pt x="260" y="602" on="1"/>
      </contour>
      <contour>
        <pt x="383" y="584" on="1"/>
        <pt x="515" y="656" on="1"/>
        <pt x="539" y="589" on="1"/>
        <pt x="396" y="550" on="1"/>
      </contour>
      <contour>
        <pt x="243" y="489" on="1"/>
        <pt x="112" y="418" on="1"/>
        <pt x="87" y="484" on="1"/>
        <pt x="231" y="523" on="1"/>
      </contour>
      <contour>
        <pt x="390" y="500" on="1"/>
        <pt x="517" y="421" on="1"/>
        <pt x="473" y="366" on="1"/>
        <pt x="366" y="472" on="1"/>
      </contour>
      <contour>
        <pt x="318" y="453" on="1"/>
        <pt x="315" y="303" on="1"/>
        <pt x="245" y="314" on="1"/>
        <pt x="283" y="459" on="1"/>
      </contour>
    </TTGlyph>
    <TTGlyph name="at" xMin="70" yMin="-174" xMax="549" yMax="756">
      <contour>
        <pt x="503" y="-168" on="1"/>
        <pt x="456" y="-174" on="0"/>
        <pt x="415" y="-174" on="1"/>
        <pt x="316" y="-174" on="0"/>
        <pt x="184" y="-108" on="0"/>
        <pt x="104" y="11" on="0"/>
        <pt x="70" y="176" on="0"/>
        <pt x="70" y="274" on="1"/>
        <pt x="70" y="384" on="0"/>
        <pt x="114" y="562" on="0"/>
        <pt x="191" y="688" on="0"/>
        <pt x="298" y="756" on="0"/>
        <pt x="361" y="756" on="1"/>
        <pt x="456" y="756" on="0"/>
        <pt x="543" y="623" on="0"/>
        <pt x="543" y="497" on="1"/>
        <pt x="543" y="417" on="0"/>
        <pt x="544" y="298" on="0"/>
        <pt x="546" y="202" on="0"/>
        <pt x="548" y="121" on="0"/>
        <pt x="549" y="81" on="1"/>
        <pt x="489" y="74" on="1"/>
        <pt x="488" y="84" on="0"/>
        <pt x="486" y="110" on="0"/>
        <pt x="485" y="122" on="1"/>
        <pt x="462" y="96" on="0"/>
        <pt x="412" y="65" on="0"/>
        <pt x="378" y="65" on="1"/>
        <pt x="321" y="65" on="0"/>
        <pt x="249" y="177" on="0"/>
        <pt x="249" y="275" on="1"/>
        <pt x="249" y="400" on="0"/>
        <pt x="362" y="532" on="0"/>
        <pt x="456" y="532" on="1"/>
        <pt x="461" y="532" on="0"/>
        <pt x="473" y="532" on="0"/>
        <pt x="478" y="531" on="1"/>
        <pt x="473" y="612" on="0"/>
        <pt x="414" y="697" on="0"/>
        <pt x="354" y="697" on="1"/>
        <pt x="306" y="697" on="0"/>
        <pt x="225" y="644" on="0"/>
        <pt x="166" y="539" on="0"/>
        <pt x="132" y="384" on="0"/>
        <pt x="132" y="282" on="1"/>
        <pt x="132" y="191" on="0"/>
        <pt x="158" y="44" on="0"/>
        <pt x="224" y="-59" on="0"/>
        <pt x="338" y="-115" on="0"/>
        <pt x="425" y="-115" on="1"/>
        <pt x="443" y="-115" on="0"/>
        <pt x="482" y="-112" on="0"/>
        <pt x="503" y="-110" on="1"/>
      </contour>
      <contour>
        <pt x="399" y="123" on="1"/>
        <pt x="423" y="123" on="0"/>
        <pt x="462" y="146" on="0"/>
        <pt x="479" y="163" on="1"/>
        <pt x="479" y="466" on="1"/>
        <pt x="453" y="472" on="0"/>
        <pt x="432" y="472" on="1"/>
        <pt x="366" y="472" on="0"/>
        <pt x="315" y="372" on="0"/>
        <pt x="315" y="288" on="1"/>
        <pt x="315" y="207" on="0"/>
        <pt x="357" y="123" on="0"/>
      </contour>
    </TTGlyph>
    <TTGlyph name="atilde" xMin="86" yMin="-14" xMax="538" yMax="811">
      <component glyphName="a" x="0" y="0" flags="0x204"/>
      <component glyphName="tilde" x="6" y="2" flags="0x4"/>
    </TTGlyph>
    <TTGlyph name="b" xMin="115" yMin="-12" xMax="551" yMax="781">
      <contour>
        <pt x="270" y="-12" on="1"/>
        <pt x="187" y="-12" on="0"/>
        <pt x="115" y="15" on="1"/>
        <pt x="115" y="775" on="1"/>
        <pt x="186" y="781" on="1"/>
        <pt x="186" y="489" on="1"/>
        <pt x="217" y="514" on="0"/>
        <pt x="298" y="551" on="0"/>
        <pt x="348" y="551" on="1"/>
        <pt x="392" y="551" on="0"/>
        <pt x="466" y="514" on="0"/>
        <pt x="520" y="447" on="0"/>
        <pt x="551" y="351" on="0"/>
        <pt x="551" y="292" on="1"/>
        <pt x="551" y="221" on="0"/>
        <pt x="504" y="108" on="0"/>
        <pt x="426" y="30" on="0"/>
        <pt x="325" y="-12" on="0"/>
      </contour>
      <contour>
        <pt x="294" y="49" on="1"/>
        <pt x="334" y="49" on="0"/>
        <pt x="402" y="79" on="0"/>
        <pt x="452" y="136" on="0"/>
        <pt x="481" y="220" on="0"/>
        <pt x="481" y="275" on="1"/>
        <pt x="481" y="327" on="0"/>
        <pt x="457" y="408" on="0"/>
        <pt x="414" y="463" on="0"/>
        <pt x="355" y="491" on="0"/>
        <pt x="321" y="491" on="1"/>
        <pt x="285" y="491" on="0"/>
        <pt x="215" y="464" on="0"/>
        <pt x="186" y="441" on="1"/>
        <pt x="186" y="69" on="1"/>
        <pt x="243" y="49" on="0"/>
      </contour>
    </TTGlyph>
    <TTGlyph name="backslash" xMin="20" yMin="-198" xMax="602" yMax="796">
      <contour>
        <pt x="602" y="-179" on="1"/>
        <pt x="537" y="-198" on="1"/>
        <pt x="20" y="769" on="1"/>
        <pt x="81" y="796" on="1"/>
      </contour>
    </TTGlyph>
    <TTGlyph name="bar" xMin="281" yMin="-201" xMax="347" yMax="784">
      <contour>
        <pt x="347" y="784" on="1"/>
        <pt x="347" y="-201" on="1"/>
        <pt x="281" y="-201" on="1"/>
        <pt x="281" y="778" on="1"/>
      </contour>
    </TTGlyph>
    <TTGlyph name="braceleft" xMin="104" yMin="-230" xMax="544" yMax="802">
      <contour>
        <pt x="517" y="-230" on="1"/>
        <pt x="424" y="-200" on="0"/>
        <pt x="297" y="-149" on="0"/>
        <pt x="217" y="-100" on="0"/>
        <pt x="182" y="-48" on="0"/>
        <pt x="182" y="-18" on="1"/>
        <pt x="182" y="15" on="0"/>
        <pt x="214" y="67" on="0"/>
        <pt x="253" y="112" on="0"/>
        <pt x="286" y="152" on="0"/>
        <pt x="286" y="172" on="1"/>
        <pt x="286" y="204" on="0"/>
        <pt x="200" y="255" on="0"/>
        <pt x="104" y="260" on="1"/>
        <pt x="106" y="313" on="1"/>
        <pt x="160" y="317" on="0"/>
        <pt x="232" y="332" on="0"/>
        <pt x="275" y="351" on="0"/>
        <pt x="292" y="375" on="0"/>
        <pt x="292" y="388" on="1"/>
        <pt x="292" y="407" on="0"/>
        <pt x="257" y="447" on="0"/>
        <pt x="214" y="491" on="0"/>
        <pt x="179" y="541" on="0"/>
        <pt x="179" y="572" on="1"/>
        <pt x="179" y="600" on="0"/>
        <pt x="215" y="657" on="0"/>
        <pt x="296" y="714" on="0"/>
        <pt x="427" y="772" on="0"/>
        <pt x="522" y="802" on="1"/>
        <pt x="544" y="741" on="1"/>
        <pt x="388" y="696" on="0"/>
        <pt x="247" y="620" on="0"/>
        <pt x="247" y="580" on="1"/>
        <pt x="247" y="557" on="0"/>
        <pt x="281" y="514" on="0"/>
        <pt x="322" y="470" on="0"/>
        <pt x="356" y="425" on="0"/>
        <pt x="356" y="402" on="1"/>
        <pt x="356" y="371" on="0"/>
        <pt x="296" y="310" on="0"/>
        <pt x="225" y="291" on="1"/>
        <pt x="295" y="274" on="0"/>
        <pt x="353" y="214" on="0"/>
        <pt x="353" y="182" on="1"/>
        <pt x="353" y="156" on="0"/>
        <pt x="322" y="111" on="0"/>
        <pt x="285" y="67" on="0"/>
        <pt x="254" y="23" on="0"/>
        <pt x="254" y="-2" on="1"/>
        <pt x="254" y="-25" on="0"/>
        <pt x="287" y="-66" on="0"/>
        <pt x="357" y="-106" on="0"/>
        <pt x="466" y="-147" on="0"/>
        <pt x="542" y="-170" on="1"/>
        <pt x="517" y="-230" on="1"/>
      </contour>
    </TTGlyph>
    <TTGlyph name="braceleft.cap" xMin="104" yMin="-176" xMax="544" yMax="856">
      <component glyphName="braceleft" x="0" y="54" flags="0x204"/>
    </TTGlyph>
    <TTGlyph name="braceright" xMin="82" yMin="-229" xMax="523" yMax="803">
      <contour>
        <pt x="82" y="-167" on="1"/>
        <pt x="238" y="-123" on="0"/>
        <pt x="379" y="-46" on="0"/>
        <pt x="379" y="-7" on="1"/>
        <pt x="379" y="16" on="0"/>
        <pt x="345" y="60" on="0"/>
        <pt x="305" y="103" on="0"/>
        <pt x="271" y="148" on="0"/>
        <pt x="271" y="171" on="1"/>
        <pt x="271" y="202" on="0"/>
        <pt x="331" y="263" on="0"/>
        <pt x="402" y="282" on="1"/>
        <pt x="332" y="299" on="0"/>
        <pt x="273" y="359" on="0"/>
        <pt x="273" y="391" on="1"/>
        <pt x="273" y="417" on="0"/>
        <pt x="304" y="462" on="0"/>
        <pt x="342" y="506" on="0"/>
        <pt x="373" y="550" on="0"/>
        <pt x="373" y="575" on="1"/>
        <pt x="373" y="599" on="0"/>
        <pt x="340" y="640" on="0"/>
        <pt x="270" y="680" on="0"/>
        <pt x="161" y="720" on="0"/>
        <pt x="85" y="743" on="1"/>
        <pt x="109" y="803" on="1"/>
        <pt x="202" y="773" on="0"/>
        <pt x="330" y="722" on="0"/>
        <pt x="409" y="673" on="0"/>
        <pt x="444" y="621" on="0"/>
        <pt x="444" y="591" on="1"/>
        <pt x="444" y="559" on="0"/>
        <pt x="411" y="506" on="0"/>
        <pt x="372" y="461" on="0"/>
        <pt x="340" y="421" on="0"/>
        <pt x="340" y="401" on="1"/>
        <pt x="340" y="369" on="0"/>
        <pt x="426" y="318" on="0"/>
        <pt x="523" y="313" on="1"/>
        <pt x="520" y="261" on="1"/>
        <pt x="466" y="257" on="0"/>
        <pt x="394" y="242" on="0"/>
        <pt x="352" y="222" on="0"/>
        <pt x="334" y="198" on="0"/>
        <pt x="334" y="185" on="1"/>
        <pt x="334" y="165" on="0"/>
        <pt x="369" y="126" on="0"/>
        <pt x="412" y="83" on="0"/>
        <pt x="447" y="32" on="0"/>
        <pt x="447" y="1" on="1"/>
        <pt x="447" y="-27" on="0"/>
        <pt x="411" y="-83" on="0"/>
        <pt x="331" y="-140" on="0"/>
        <pt x="200" y="-199" on="0"/>
        <pt x="106" y="-229" on="1"/>
      </contour>
    </TTGlyph>
    <TTGlyph name="braceright.cap" xMin="82" yMin="-176" xMax="523" yMax="856">
      <component glyphName="braceright" x="0" y="53" flags="0x204"/>
    </TTGlyph>
    <TTGlyph name="bracketleft" xMin="165" yMin="-198" xMax="526" yMax="769">
      <contour>
        <pt x="165" y="769" on="1"/>
        <pt x="522" y="769" on="1"/>
        <pt x="522" y="710" on="1"/>
        <pt x="233" y="710" on="1"/>
        <pt x="233" y="-139" on="1"/>
        <pt x="526" y="-139" on="1"/>
        <pt x="519" y="-198" on="1"/>
        <pt x="165" y="-198" on="1"/>
      </contour>
    </TTGlyph>
    <TTGlyph name="bracketleft.cap" xMin="165" yMin="-144" xMax="526" yMax="823">
      <component glyphName="bracketleft" x="0" y="54" flags="0x204"/>
    </TTGlyph>
    <TTGlyph name="bracketright" xMin="104" yMin="-197" xMax="461" yMax="770">
      <contour>
        <pt x="394" y="-138" on="1"/>
        <pt x="394" y="710" on="1"/>
        <pt x="105" y="710" on="1"/>
        <pt x="105" y="770" on="1"/>
        <pt x="461" y="770" on="1"/>
        <pt x="461" y="-197" on="1"/>
        <pt x="104" y="-197" on="1"/>
        <pt x="105" y="-138" on="1"/>
      </contour>
    </TTGlyph>
    <TTGlyph name="bracketright.cap" xMin="104" yMin="-144" xMax="461" yMax="823">
      <component glyphName="bracketright" x="0" y="53" flags="0x204"/>
    </TTGlyph>
    <TTGlyph name="breve" xMin="109" yMin="627" xMax="518" yMax="816">
      <contour>
        <pt x="308" y="627" on="1"/>
        <pt x="252" y="627" on="0"/>
        <pt x="155" y="705" on="0"/>
        <pt x="109" y="786" on="1"/>
        <pt x="160" y="816" on="1"/>
        <pt x="181" y="781" on="0"/>
        <pt x="219" y="731" on="0"/>
        <pt x="256" y="700" on="0"/>
        <pt x="293" y="686" on="0"/>
        <pt x="314" y="686" on="1"/>
        <pt x="359" y="686" on="0"/>
        <pt x="432" y="750" on="0"/>
        <pt x="474" y="812" on="1"/>
        <pt x="518" y="789" on="1"/>
        <pt x="471" y="713" on="0"/>
        <pt x="366" y="627" on="0"/>
      </contour>
    </TTGlyph>
    <TTGlyph name="breve.cap" xMin="109" yMin="627" xMax="518" yMax="816">
      <contour>
        <pt x="308" y="627" on="1"/>
        <pt x="252" y="627" on="0"/>
        <pt x="155" y="705" on="0"/>
        <pt x="109" y="786" on="1"/>
        <pt x="160" y="816" on="1"/>
        <pt x="181" y="781" on="0"/>
        <pt x="219" y="731" on="0"/>
        <pt x="256" y="700" on="0"/>
        <pt x="293" y="686" on="0"/>
        <pt x="314" y="686" on="1"/>
        <pt x="359" y="686" on="0"/>
        <pt x="432" y="750" on="0"/>
        <pt x="474" y="812" on="1"/>
        <pt x="518" y="789" on="1"/>
        <pt x="471" y="713" on="0"/>
        <pt x="366" y="627" on="0"/>
      </contour>
    </TTGlyph>
    <TTGlyph name="bullet" xMin="177" yMin="199" xMax="447" yMax="462">
      <contour>
        <pt x="447" y="332" on="1"/>
        <pt x="447" y="302" on="0"/>
        <pt x="426" y="252" on="0"/>
        <pt x="390" y="218" on="0"/>
        <pt x="340" y="199" on="0"/>
        <pt x="312" y="199" on="1"/>
        <pt x="283" y="199" on="0"/>
        <pt x="234" y="219" on="0"/>
        <pt x="198" y="253" on="0"/>
        <pt x="177" y="301" on="0"/>
        <pt x="177" y="330" on="1"/>
        <pt x="177" y="360" on="0"/>
        <pt x="198" y="409" on="0"/>
        <pt x="235" y="443" on="0"/>
        <pt x="284" y="462" on="0"/>
        <pt x="313" y="462" on="1"/>
        <pt x="342" y="462" on="0"/>
        <pt x="391" y="443" on="0"/>
        <pt x="427" y="408" on="0"/>
        <pt x="447" y="360" on="0"/>
      </contour>
    </TTGlyph>
    <TTGlyph name="bullet.alt" xMin="202" yMin="218" xMax="422" yMax="441">
      <contour>
        <pt x="202" y="218" on="1"/>
        <pt x="204" y="441" on="1"/>
        <pt x="422" y="441" on="1"/>
        <pt x="420" y="218" on="1"/>
      </contour>
    </TTGlyph>
    <TTGlyph name="c" xMin="100" yMin="-6" xMax="524" yMax="547">
      <contour>
        <pt x="515" y="479" on="1"/>
        <pt x="409" y="478" on="0"/>
        <pt x="275" y="446" on="0"/>
        <pt x="199" y="391" on="0"/>
        <pt x="171" y="316" on="0"/>
        <pt x="171" y="271" on="1"/>
        <pt x="171" y="220" on="0"/>
        <pt x="199" y="140" on="0"/>
        <pt x="268" y="84" on="0"/>
        <pt x="385" y="55" on="0"/>
        <pt x="473" y="55" on="1"/>
        <pt x="485" y="55" on="0"/>
        <pt x="510" y="55" on="0"/>
        <pt x="524" y="56" on="1"/>
        <pt x="515" y="-4" on="1"/>
        <pt x="498" y="-5" on="0"/>
        <pt x="466" y="-6" on="0"/>
        <pt x="451" y="-6" on="1"/>
        <pt x="349" y="-6" on="0"/>
        <pt x="214" y="34" on="0"/>
        <pt x="133" y="106" on="0"/>
        <pt x="100" y="204" on="0"/>
        <pt x="100" y="261" on="1"/>
        <pt x="100" y="316" on="0"/>
        <pt x="141" y="417" on="0"/>
        <pt x="237" y="495" on="0"/>
        <pt x="394" y="544" on="0"/>
        <pt x="510" y="547" on="1"/>
        <pt x="515" y="479" on="1"/>
      </contour>
    </TTGlyph>
    <TTGlyph name="cacute" xMin="100" yMin="-6" xMax="524" yMax="849">
      <component glyphName="acute" x="38" y="0" flags="0x204"/>
      <component glyphName="c" x="0" y="0" flags="0x4"/>
    </TTGlyph>
    <TTGlyph name="caron" xMin="120" yMin="616" xMax="505" yMax="820">
      <contour>
        <pt x="310" y="616" on="1"/>
        <pt x="120" y="777" on="1"/>
        <pt x="165" y="820" on="1"/>
        <pt x="316" y="688" on="1"/>
        <pt x="468" y="820" on="1"/>
        <pt x="505" y="784" on="1"/>
        <pt x="313" y="616" on="1"/>
      </contour>
    </TTGlyph>
    <TTGlyph name="caron.alt" xMin="238" yMin="614" xMax="343" yMax="890">
      <contour>
        <pt x="238" y="626" on="1"/>
        <pt x="257" y="665" on="0"/>
        <pt x="272" y="735" on="0"/>
        <pt x="272" y="768" on="1"/>
        <pt x="272" y="799" on="0"/>
        <pt x="261" y="858" on="0"/>
        <pt x="252" y="888" on="1"/>
        <pt x="336" y="890" on="1"/>
        <pt x="339" y="873" on="0"/>
        <pt x="343" y="841" on="0"/>
        <pt x="343" y="824" on="1"/>
        <pt x="343" y="774" on="0"/>
        <pt x="309" y="671" on="0"/>
        <pt x="270" y="614" on="1"/>
        <pt x="238" y="626" on="1"/>
      </contour>
    </TTGlyph>
    <TTGlyph name="caron.cap" xMin="120" yMin="616" xMax="505" yMax="820">
      <contour>
        <pt x="310" y="616" on="1"/>
        <pt x="120" y="777" on="1"/>
        <pt x="165" y="820" on="1"/>
        <pt x="316" y="688" on="1"/>
        <pt x="468" y="820" on="1"/>
        <pt x="505" y="784" on="1"/>
        <pt x="313" y="616" on="1"/>
      </contour>
    </TTGlyph>
    <TTGlyph name="ccaron" xMin="100" yMin="-6" xMax="544" yMax="820">
      <component glyphName="caron" x="39" y="0" flags="0x204"/>
      <component glyphName="c" x="0" y="0" flags="0x4"/>
    </TTGlyph>
    <TTGlyph name="ccedilla" xMin="100" yMin="-238" xMax="524" yMax="547">
      <contour>
        <pt x="515" y="479" on="1"/>
        <pt x="409" y="478" on="0"/>
        <pt x="275" y="446" on="0"/>
        <pt x="199" y="391" on="0"/>
        <pt x="171" y="316" on="0"/>
        <pt x="171" y="271" on="1"/>
        <pt x="171" y="220" on="0"/>
        <pt x="199" y="140" on="0"/>
        <pt x="268" y="84" on="0"/>
        <pt x="385" y="55" on="0"/>
        <pt x="473" y="55" on="1"/>
        <pt x="485" y="55" on="0"/>
        <pt x="510" y="55" on="0"/>
        <pt x="524" y="56" on="1"/>
        <pt x="515" y="-4" on="1"/>
        <pt x="498" y="-5" on="0"/>
        <pt x="465" y="-6" on="0"/>
        <pt x="449" y="-6" on="1"/>
        <pt x="418" y="-6" on="0"/>
        <pt x="362" y="-2" on="0"/>
        <pt x="337" y="2" on="1"/>
        <pt x="394" y="-33" on="0"/>
        <pt x="447" y="-99" on="0"/>
        <pt x="447" y="-128" on="1"/>
        <pt x="447" y="-168" on="0"/>
        <pt x="352" y="-224" on="0"/>
        <pt x="255" y="-238" on="1"/>
        <pt x="249" y="-180" on="1"/>
        <pt x="321" y="-169" on="0"/>
        <pt x="384" y="-142" on="0"/>
        <pt x="384" y="-122" on="1"/>
        <pt x="384" y="-103" on="0"/>
        <pt x="334" y="-49" on="0"/>
        <pt x="276" y="-14" on="1"/>
        <pt x="290" y="12" on="1"/>
        <pt x="236" y="26" on="0"/>
        <pt x="164" y="75" on="0"/>
        <pt x="119" y="139" on="0"/>
        <pt x="100" y="217" on="0"/>
        <pt x="100" y="261" on="1"/>
        <pt x="100" y="316" on="0"/>
        <pt x="141" y="417" on="0"/>
        <pt x="237" y="495" on="0"/>
        <pt x="394" y="544" on="0"/>
        <pt x="510" y="547" on="1"/>
        <pt x="515" y="479" on="1"/>
      </contour>
    </TTGlyph>
    <TTGlyph name="cdotaccent" xMin="100" yMin="-6" xMax="524" yMax="777">
      <component glyphName="c" x="0" y="0" flags="0x204"/>
      <component glyphName="dotaccent" x="35" y="0" flags="0x4"/>
    </TTGlyph>
    <TTGlyph name="cedilla" xMin="239" yMin="-232" xMax="437" yMax="32">
      <contour>
        <pt x="287" y="32" on="1"/>
        <pt x="365" y="-11" on="0"/>
        <pt x="437" y="-87" on="0"/>
        <pt x="437" y="-122" on="1"/>
        <pt x="437" y="-162" on="0"/>
        <pt x="342" y="-218" on="0"/>
        <pt x="245" y="-232" on="1"/>
        <pt x="239" y="-174" on="1"/>
        <pt x="311" y="-163" on="0"/>
        <pt x="374" y="-136" on="0"/>
        <pt x="374" y="-116" on="1"/>
        <pt x="374" y="-97" on="0"/>
        <pt x="324" y="-43" on="0"/>
        <pt x="266" y="-8" on="1"/>
      </contour>
    </TTGlyph>
    <TTGlyph name="cedilla.cap" xMin="239" yMin="-232" xMax="437" yMax="32">
      <contour>
        <pt x="287" y="32" on="1"/>
        <pt x="365" y="-11" on="0"/>
        <pt x="437" y="-87" on="0"/>
        <pt x="437" y="-122" on="1"/>
        <pt x="437" y="-162" on="0"/>
        <pt x="342" y="-218" on="0"/>
        <pt x="245" y="-232" on="1"/>
        <pt x="239" y="-174" on="1"/>
        <pt x="311" y="-163" on="0"/>
        <pt x="374" y="-136" on="0"/>
        <pt x="374" y="-116" on="1"/>
        <pt x="374" y="-97" on="0"/>
        <pt x="324" y="-43" on="0"/>
        <pt x="266" y="-8" on="1"/>
      </contour>
    </TTGlyph>
    <TTGlyph name="cent" xMin="96" yMin="-95" xMax="530" yMax="688">
      <contour>
        <pt x="163" y="297" on="1"/>
        <pt x="163" y="240" on="0"/>
        <pt x="227" y="156" on="0"/>
        <pt x="306" y="131" on="1"/>
        <pt x="349" y="463" on="1"/>
        <pt x="294" y="455" on="0"/>
        <pt x="222" y="423" on="0"/>
        <pt x="180" y="379" on="0"/>
        <pt x="163" y="326" on="0"/>
      </contour>
      <contour>
        <pt x="497" y="41" on="1"/>
        <pt x="455" y="43" on="0"/>
        <pt x="384" y="49" on="0"/>
        <pt x="352" y="55" on="1"/>
        <pt x="334" y="-95" on="1"/>
        <pt x="271" y="-95" on="1"/>
        <pt x="293" y="68" on="1"/>
        <pt x="238" y="83" on="0"/>
        <pt x="163" y="128" on="0"/>
        <pt x="116" y="185" on="0"/>
        <pt x="96" y="251" on="0"/>
        <pt x="96" y="288" on="1"/>
        <pt x="96" y="327" on="0"/>
        <pt x="121" y="403" on="0"/>
        <pt x="180" y="466" on="0"/>
        <pt x="278" y="513" on="0"/>
        <pt x="351" y="525" on="1"/>
        <pt x="371" y="688" on="1"/>
        <pt x="434" y="688" on="1"/>
        <pt x="413" y="532" on="1"/>
        <pt x="439" y="534" on="0"/>
        <pt x="498" y="536" on="0"/>
        <pt x="530" y="534" on="1"/>
        <pt x="521" y="468" on="1"/>
        <pt x="453" y="471" on="0"/>
        <pt x="401" y="468" on="1"/>
        <pt x="358" y="118" on="1"/>
        <pt x="389" y="112" on="0"/>
        <pt x="462" y="104" on="0"/>
        <pt x="505" y="102" on="1"/>
      </contour>
    </TTGlyph>
    <TTGlyph name="check.1" xMin="92" yMin="-30" xMax="566" yMax="755">
      <contour>
        <pt x="566" y="731" on="1"/>
        <pt x="491" y="557" on="0"/>
        <pt x="367" y="180" on="0"/>
        <pt x="319" y="-24" on="1"/>
        <pt x="255" y="-30" on="1"/>
        <pt x="92" y="357" on="1"/>
        <pt x="154" y="385" on="1"/>
        <pt x="283" y="69" on="1"/>
        <pt x="286" y="69" on="1"/>
        <pt x="368" y="445" on="0"/>
        <pt x="493" y="755" on="1"/>
        <pt x="566" y="731" on="1"/>
      </contour>
    </TTGlyph>
    <TTGlyph name="check.2" xMin="109" yMin="-12" xMax="547" yMax="758">
      <contour>
        <pt x="191" y="553" on="1"/>
        <pt x="289" y="356" on="1"/>
        <pt x="476" y="758" on="1"/>
        <pt x="547" y="730" on="1"/>
        <pt x="326" y="302" on="1"/>
        <pt x="479" y="10" on="1"/>
        <pt x="410" y="-6" on="1"/>
        <pt x="286" y="242" on="1"/>
        <pt x="156" y="-12" on="1"/>
        <pt x="109" y="5" on="1"/>
        <pt x="250" y="293" on="1"/>
        <pt x="125" y="529" on="1"/>
      </contour>
    </TTGlyph>
    <TTGlyph name="circumflex" xMin="120" yMin="622" xMax="505" yMax="827">
      <contour>
        <pt x="308" y="754" on="1"/>
        <pt x="157" y="623" on="1"/>
        <pt x="120" y="658" on="1"/>
        <pt x="311" y="827" on="1"/>
        <pt x="314" y="827" on="1"/>
        <pt x="505" y="665" on="1"/>
        <pt x="459" y="622" on="1"/>
      </contour>
    </TTGlyph>
    <TTGlyph name="circumflex.cap" xMin="120" yMin="622" xMax="505" yMax="827">
      <contour>
        <pt x="308" y="754" on="1"/>
        <pt x="157" y="623" on="1"/>
        <pt x="120" y="658" on="1"/>
        <pt x="311" y="827" on="1"/>
        <pt x="314" y="827" on="1"/>
        <pt x="505" y="665" on="1"/>
        <pt x="459" y="622" on="1"/>
      </contour>
    </TTGlyph>
    <TTGlyph name="colon" xMin="251" yMin="0" xMax="374" yMax="485">
      <contour>
        <pt x="261" y="371" on="1"/>
        <pt x="262" y="485" on="1"/>
        <pt x="374" y="485" on="1"/>
        <pt x="372" y="371" on="1"/>
      </contour>
      <contour>
        <pt x="251" y="0" on="1"/>
        <pt x="255" y="113" on="1"/>
        <pt x="367" y="113" on="1"/>
        <pt x="363" y="0" on="1"/>
      </contour>
    </TTGlyph>
    <TTGlyph name="colon.alt" xMin="258" yMin="101" xMax="374" yMax="587">
      <contour>
        <pt x="261" y="473" on="1"/>
        <pt x="262" y="587" on="1"/>
        <pt x="374" y="587" on="1"/>
        <pt x="372" y="473" on="1"/>
      </contour>
      <contour>
        <pt x="258" y="101" on="1"/>
        <pt x="259" y="215" on="1"/>
        <pt x="370" y="215" on="1"/>
        <pt x="369" y="101" on="1"/>
      </contour>
    </TTGlyph>
    <TTGlyph name="colonmonetary" xMin="83" yMin="-82" xMax="562" yMax="769">
      <contour>
        <pt x="422" y="586" on="1"/>
        <pt x="369" y="577" on="0"/>
        <pt x="328" y="565" on="1"/>
        <pt x="289" y="134" on="1"/>
        <pt x="309" y="126" on="0"/>
        <pt x="353" y="113" on="0"/>
        <pt x="379" y="107" on="1"/>
      </contour>
      <contour>
        <pt x="147" y="344" on="1"/>
        <pt x="147" y="278" on="0"/>
        <pt x="194" y="186" on="0"/>
        <pt x="246" y="155" on="1"/>
        <pt x="281" y="548" on="1"/>
        <pt x="207" y="515" on="0"/>
        <pt x="147" y="412" on="0"/>
      </contour>
      <contour>
        <pt x="371" y="45" on="1"/>
        <pt x="347" y="50" on="0"/>
        <pt x="303" y="61" on="0"/>
        <pt x="283" y="68" on="1"/>
        <pt x="270" y="-82" on="1"/>
        <pt x="215" y="-82" on="1"/>
        <pt x="232" y="89" on="1"/>
        <pt x="154" y="127" on="0"/>
        <pt x="83" y="247" on="0"/>
        <pt x="83" y="333" on="1"/>
        <pt x="83" y="422" on="0"/>
        <pt x="172" y="566" on="0"/>
        <pt x="278" y="610" on="1"/>
        <pt x="291" y="769" on="1"/>
        <pt x="346" y="769" on="1"/>
        <pt x="334" y="630" on="1"/>
        <pt x="354" y="636" on="0"/>
        <pt x="399" y="646" on="0"/>
        <pt x="424" y="650" on="1"/>
        <pt x="434" y="769" on="1"/>
        <pt x="488" y="769" on="1"/>
        <pt x="478" y="657" on="1"/>
        <pt x="515" y="661" on="0"/>
        <pt x="558" y="663" on="1"/>
        <pt x="562" y="598" on="1"/>
        <pt x="510" y="596" on="0"/>
        <pt x="467" y="592" on="1"/>
        <pt x="424" y="99" on="1"/>
        <pt x="477" y="91" on="0"/>
        <pt x="539" y="87" on="1"/>
        <pt x="526" y="26" on="1"/>
        <pt x="498" y="28" on="0"/>
        <pt x="447" y="33" on="0"/>
        <pt x="423" y="36" on="1"/>
        <pt x="413" y="-82" on="1"/>
        <pt x="359" y="-82" on="1"/>
      </contour>
    </TTGlyph>
    <TTGlyph name="comma" xMin="224" yMin="-214" xMax="370" yMax="119">
      <contour>
        <pt x="224" y="-201" on="1"/>
        <pt x="289" y="-127" on="0"/>
        <pt x="289" y="-39" on="1"/>
        <pt x="289" y="29" on="0"/>
        <pt x="250" y="113" on="1"/>
        <pt x="356" y="119" on="1"/>
        <pt x="364" y="94" on="0"/>
        <pt x="370" y="46" on="0"/>
        <pt x="370" y="23" on="1"/>
        <pt x="370" y="-44" on="0"/>
        <pt x="315" y="-163" on="0"/>
        <pt x="261" y="-214" on="1"/>
        <pt x="224" y="-201" on="1"/>
      </contour>
    </TTGlyph>
    <TTGlyph name="commaaccent" xMin="249" yMin="-303" xMax="351" yMax="-76">
      <contour>
        <pt x="249" y="-292" on="1"/>
        <pt x="264" y="-262" on="0"/>
        <pt x="277" y="-207" on="0"/>
        <pt x="277" y="-181" on="1"/>
        <pt x="277" y="-155" on="0"/>
        <pt x="266" y="-104" on="0"/>
        <pt x="256" y="-80" on="1"/>
        <pt x="258" y="-80" on="0"/>
        <pt x="285" y="-79" on="0"/>
        <pt x="317" y="-77" on="0"/>
        <pt x="344" y="-76" on="0"/>
        <pt x="347" y="-76" on="1"/>
        <pt x="351" y="-96" on="0"/>
        <pt x="351" y="-122" on="1"/>
        <pt x="351" y="-166" on="0"/>
        <pt x="319" y="-259" on="0"/>
        <pt x="284" y="-303" on="1"/>
        <pt x="249" y="-292" on="1"/>
      </contour>
    </TTGlyph>
    <TTGlyph name="commaaccent.cap" xMin="249" yMin="-303" xMax="351" yMax="-76">
      <contour>
        <pt x="249" y="-292" on="1"/>
        <pt x="264" y="-262" on="0"/>
        <pt x="277" y="-207" on="0"/>
        <pt x="277" y="-181" on="1"/>
        <pt x="277" y="-155" on="0"/>
        <pt x="266" y="-104" on="0"/>
        <pt x="256" y="-80" on="1"/>
        <pt x="258" y="-80" on="0"/>
        <pt x="285" y="-79" on="0"/>
        <pt x="317" y="-77" on="0"/>
        <pt x="344" y="-76" on="0"/>
        <pt x="347" y="-76" on="1"/>
        <pt x="351" y="-96" on="0"/>
        <pt x="351" y="-122" on="1"/>
        <pt x="351" y="-166" on="0"/>
        <pt x="319" y="-259" on="0"/>
        <pt x="284" y="-303" on="1"/>
        <pt x="249" y="-292" on="1"/>
      </contour>
    </TTGlyph>
    <TTGlyph name="commaaccent.rot" xMin="258" yMin="626" xMax="367" yMax="852">
      <contour>
        <pt x="367" y="841" on="1"/>
        <pt x="336" y="781" on="0"/>
        <pt x="340" y="678" on="0"/>
        <pt x="359" y="630" on="1"/>
        <pt x="268" y="626" on="1"/>
        <pt x="258" y="678" on="0"/>
        <pt x="286" y="797" on="0"/>
        <pt x="332" y="852" on="1"/>
        <pt x="367" y="841" on="1"/>
      </contour>
    </TTGlyph>
    <TTGlyph name="copyright" xMin="58" yMin="8" xMax="567" yMax="680">
      <contour>
        <pt x="567" y="349" on="1"/>
        <pt x="567" y="268" on="0"/>
        <pt x="528" y="141" on="0"/>
        <pt x="461" y="54" on="0"/>
        <pt x="369" y="8" on="0"/>
        <pt x="316" y="8" on="1"/>
        <pt x="260" y="8" on="0"/>
        <pt x="166" y="53" on="0"/>
        <pt x="97" y="138" on="0"/>
        <pt x="58" y="261" on="0"/>
        <pt x="58" y="340" on="1"/>
        <pt x="58" y="416" on="0"/>
        <pt x="99" y="542" on="0"/>
        <pt x="171" y="631" on="0"/>
        <pt x="267" y="680" on="0"/>
        <pt x="322" y="680" on="1"/>
        <pt x="375" y="680" on="0"/>
        <pt x="465" y="635" on="0"/>
        <pt x="530" y="549" on="0"/>
        <pt x="567" y="427" on="0"/>
      </contour>
      <contour>
        <pt x="103" y="343" on="1"/>
        <pt x="103" y="274" on="0"/>
        <pt x="136" y="165" on="0"/>
        <pt x="194" y="90" on="0"/>
        <pt x="273" y="50" on="0"/>
        <pt x="319" y="50" on="1"/>
        <pt x="362" y="50" on="0"/>
        <pt x="436" y="90" on="0"/>
        <pt x="490" y="165" on="0"/>
        <pt x="521" y="275" on="0"/>
        <pt x="521" y="345" on="1"/>
        <pt x="521" y="413" on="0"/>
        <pt x="491" y="521" on="0"/>
        <pt x="438" y="597" on="0"/>
        <pt x="364" y="638" on="0"/>
        <pt x="320" y="638" on="1"/>
        <pt x="274" y="638" on="0"/>
        <pt x="195" y="596" on="0"/>
        <pt x="136" y="519" on="0"/>
        <pt x="103" y="410" on="0"/>
      </contour>
      <contour>
        <pt x="390" y="154" on="1"/>
        <pt x="384" y="153" on="0"/>
        <pt x="373" y="153" on="0"/>
        <pt x="368" y="153" on="1"/>
        <pt x="322" y="153" on="0"/>
        <pt x="259" y="181" on="0"/>
        <pt x="221" y="232" on="0"/>
        <pt x="204" y="302" on="0"/>
        <pt x="204" y="343" on="1"/>
        <pt x="204" y="381" on="0"/>
        <pt x="223" y="450" on="0"/>
        <pt x="267" y="503" on="0"/>
        <pt x="337" y="537" on="0"/>
        <pt x="388" y="541" on="1"/>
        <pt x="393" y="487" on="1"/>
        <pt x="349" y="485" on="0"/>
        <pt x="297" y="464" on="0"/>
        <pt x="268" y="428" on="0"/>
        <pt x="259" y="377" on="0"/>
        <pt x="259" y="347" on="1"/>
        <pt x="259" y="313" on="0"/>
        <pt x="270" y="260" on="0"/>
        <pt x="297" y="224" on="0"/>
        <pt x="344" y="205" on="0"/>
        <pt x="380" y="205" on="1"/>
        <pt x="396" y="205" on="1"/>
      </contour>
    </TTGlyph>
    <TTGlyph name="d" xMin="73" yMin="-13" xMax="516" yMax="781">
      <contour>
        <pt x="305" y="47" on="1"/>
        <pt x="343" y="47" on="0"/>
        <pt x="412" y="77" on="0"/>
        <pt x="440" y="100" on="1"/>
        <pt x="439" y="138" on="0"/>
        <pt x="438" y="218" on="0"/>
        <pt x="437" y="309" on="0"/>
        <pt x="436" y="412" on="0"/>
        <pt x="436" y="474" on="1"/>
        <pt x="411" y="482" on="0"/>
        <pt x="365" y="490" on="0"/>
        <pt x="341" y="490" on="1"/>
        <pt x="300" y="490" on="0"/>
        <pt x="228" y="460" on="0"/>
        <pt x="175" y="402" on="0"/>
        <pt x="144" y="316" on="0"/>
        <pt x="144" y="261" on="1"/>
        <pt x="144" y="154" on="0"/>
        <pt x="234" y="47" on="0"/>
      </contour>
      <contour>
        <pt x="444" y="55" on="1"/>
        <pt x="414" y="28" on="0"/>
        <pt x="330" y="-13" on="0"/>
        <pt x="279" y="-13" on="1"/>
        <pt x="235" y="-13" on="0"/>
        <pt x="160" y="22" on="0"/>
        <pt x="104" y="88" on="0"/>
        <pt x="73" y="183" on="0"/>
        <pt x="73" y="243" on="1"/>
        <pt x="73" y="316" on="0"/>
        <pt x="122" y="431" on="0"/>
        <pt x="205" y="510" on="0"/>
        <pt x="314" y="551" on="0"/>
        <pt x="374" y="551" on="1"/>
        <pt x="391" y="551" on="0"/>
        <pt x="421" y="548" on="0"/>
        <pt x="436" y="546" on="1"/>
        <pt x="436" y="775" on="1"/>
        <pt x="508" y="781" on="1"/>
        <pt x="508" y="535" on="1"/>
        <pt x="508" y="357" on="0"/>
        <pt x="511" y="96" on="0"/>
        <pt x="516" y="2" on="1"/>
        <pt x="448" y="-2" on="1"/>
      </contour>
    </TTGlyph>
    <TTGlyph name="dagger" xMin="82" yMin="111" xMax="550" yMax="771">
      <contour>
        <pt x="289" y="111" on="1"/>
        <pt x="278" y="119" on="1"/>
        <pt x="279" y="532" on="1"/>
        <pt x="82" y="535" on="1"/>
        <pt x="85" y="592" on="1"/>
        <pt x="279" y="589" on="1"/>
        <pt x="280" y="771" on="1"/>
        <pt x="350" y="770" on="1"/>
        <pt x="348" y="587" on="1"/>
        <pt x="550" y="584" on="1"/>
        <pt x="546" y="527" on="1"/>
        <pt x="347" y="530" on="1"/>
        <pt x="332" y="135" on="1"/>
      </contour>
    </TTGlyph>
    <TTGlyph name="daggerdbl" xMin="75" yMin="55" xMax="550" yMax="771">
      <contour>
        <pt x="290" y="55" on="1"/>
        <pt x="279" y="62" on="1"/>
        <pt x="279" y="310" on="1"/>
        <pt x="75" y="313" on="1"/>
        <pt x="78" y="369" on="1"/>
        <pt x="279" y="366" on="1"/>
        <pt x="280" y="533" on="1"/>
        <pt x="82" y="536" on="1"/>
        <pt x="85" y="592" on="1"/>
        <pt x="280" y="589" on="1"/>
        <pt x="280" y="771" on="1"/>
        <pt x="350" y="770" on="1"/>
        <pt x="348" y="587" on="1"/>
        <pt x="550" y="584" on="1"/>
        <pt x="546" y="528" on="1"/>
        <pt x="347" y="531" on="1"/>
        <pt x="342" y="365" on="1"/>
        <pt x="543" y="362" on="1"/>
        <pt x="540" y="306" on="1"/>
        <pt x="340" y="309" on="1"/>
        <pt x="333" y="79" on="1"/>
      </contour>
    </TTGlyph>
    <TTGlyph name="dcaron" xMin="73" yMin="-13" xMax="687" yMax="890">
      <component glyphName="caron.alt" x="344" y="0" flags="0x204"/>
      <component glyphName="d" x="0" y="0" flags="0x4"/>
    </TTGlyph>
    <TTGlyph name="dcroat" xMin="73" yMin="-13" xMax="589" yMax="779">
      <contour>
        <pt x="305" y="47" on="1"/>
        <pt x="343" y="47" on="0"/>
        <pt x="412" y="77" on="0"/>
        <pt x="440" y="100" on="1"/>
        <pt x="439" y="138" on="0"/>
        <pt x="438" y="218" on="0"/>
        <pt x="437" y="308" on="0"/>
        <pt x="436" y="412" on="0"/>
        <pt x="436" y="473" on="1"/>
        <pt x="411" y="481" on="0"/>
        <pt x="365" y="489" on="0"/>
        <pt x="341" y="489" on="1"/>
        <pt x="300" y="489" on="0"/>
        <pt x="228" y="459" on="0"/>
        <pt x="175" y="401" on="0"/>
        <pt x="144" y="316" on="0"/>
        <pt x="144" y="261" on="1"/>
        <pt x="144" y="154" on="0"/>
        <pt x="234" y="47" on="0"/>
      </contour>
      <contour>
        <pt x="444" y="55" on="1"/>
        <pt x="414" y="28" on="0"/>
        <pt x="330" y="-13" on="0"/>
        <pt x="279" y="-13" on="1"/>
        <pt x="235" y="-13" on="0"/>
        <pt x="160" y="22" on="0"/>
        <pt x="104" y="88" on="0"/>
        <pt x="73" y="183" on="0"/>
        <pt x="73" y="243" on="1"/>
        <pt x="73" y="316" on="0"/>
        <pt x="122" y="430" on="0"/>
        <pt x="205" y="508" on="0"/>
        <pt x="314" y="549" on="0"/>
        <pt x="374" y="549" on="1"/>
        <pt x="390" y="549" on="0"/>
        <pt x="421" y="546" on="0"/>
        <pt x="436" y="544" on="1"/>
        <pt x="436" y="647" on="1"/>
        <pt x="284" y="647" on="1"/>
        <pt x="284" y="695" on="1"/>
        <pt x="436" y="695" on="1"/>
        <pt x="436" y="773" on="1"/>
        <pt x="508" y="779" on="1"/>
        <pt x="508" y="695" on="1"/>
        <pt x="589" y="695" on="1"/>
        <pt x="589" y="647" on="1"/>
        <pt x="508" y="647" on="1"/>
        <pt x="508" y="535" on="1"/>
        <pt x="508" y="357" on="0"/>
        <pt x="511" y="96" on="0"/>
        <pt x="516" y="2" on="1"/>
        <pt x="448" y="-2" on="1"/>
      </contour>
    </TTGlyph>
    <TTGlyph name="degree" xMin="124" yMin="355" xMax="501" yMax="746">
      <contour>
        <pt x="501" y="555" on="1"/>
        <pt x="501" y="509" on="0"/>
        <pt x="469" y="435" on="0"/>
        <pt x="415" y="383" on="0"/>
        <pt x="344" y="355" on="0"/>
        <pt x="305" y="355" on="1"/>
        <pt x="266" y="355" on="0"/>
        <pt x="200" y="382" on="0"/>
        <pt x="152" y="431" on="0"/>
        <pt x="124" y="502" on="0"/>
        <pt x="124" y="546" on="1"/>
        <pt x="124" y="592" on="0"/>
        <pt x="156" y="666" on="0"/>
        <pt x="210" y="718" on="0"/>
        <pt x="280" y="746" on="0"/>
        <pt x="319" y="746" on="1"/>
        <pt x="358" y="746" on="0"/>
        <pt x="424" y="719" on="0"/>
        <pt x="473" y="670" on="0"/>
        <pt x="501" y="599" on="0"/>
      </contour>
      <contour>
        <pt x="441" y="555" on="1"/>
        <pt x="441" y="584" on="0"/>
        <pt x="423" y="634" on="0"/>
        <pt x="389" y="670" on="0"/>
        <pt x="342" y="691" on="0"/>
        <pt x="314" y="691" on="1"/>
        <pt x="286" y="691" on="0"/>
        <pt x="239" y="671" on="0"/>
        <pt x="204" y="634" on="0"/>
        <pt x="184" y="582" on="0"/>
        <pt x="184" y="550" on="1"/>
        <pt x="184" y="520" on="0"/>
        <pt x="202" y="469" on="0"/>
        <pt x="236" y="431" on="0"/>
        <pt x="282" y="410" on="0"/>
        <pt x="311" y="410" on="1"/>
        <pt x="338" y="410" on="0"/>
        <pt x="386" y="430" on="0"/>
        <pt x="421" y="468" on="0"/>
        <pt x="441" y="522" on="0"/>
      </contour>
    </TTGlyph>
    <TTGlyph name="dieresis" xMin="156" yMin="630" xMax="473" yMax="777">
      <contour>
        <pt x="399" y="630" on="1"/>
        <pt x="399" y="777" on="1"/>
        <pt x="473" y="777" on="1"/>
        <pt x="471" y="630" on="1"/>
      </contour>
      <contour>
        <pt x="157" y="630" on="1"/>
        <pt x="156" y="777" on="1"/>
        <pt x="231" y="777" on="1"/>
        <pt x="228" y="630" on="1"/>
      </contour>
    </TTGlyph>
    <TTGlyph name="dieresis.cap" xMin="156" yMin="630" xMax="473" yMax="777">
      <contour>
        <pt x="399" y="630" on="1"/>
        <pt x="399" y="777" on="1"/>
        <pt x="473" y="777" on="1"/>
        <pt x="471" y="630" on="1"/>
      </contour>
      <contour>
        <pt x="157" y="630" on="1"/>
        <pt x="156" y="777" on="1"/>
        <pt x="231" y="777" on="1"/>
        <pt x="228" y="630" on="1"/>
      </contour>
    </TTGlyph>
    <TTGlyph name="divide" xMin="77" yMin="76" xMax="547" yMax="568">
      <contour>
        <pt x="269" y="475" on="1"/>
        <pt x="270" y="568" on="1"/>
        <pt x="355" y="568" on="1"/>
        <pt x="354" y="475" on="1"/>
      </contour>
      <contour>
        <pt x="546" y="292" on="1"/>
        <pt x="77" y="292" on="1"/>
        <pt x="77" y="352" on="1"/>
        <pt x="547" y="352" on="1"/>
      </contour>
      <contour>
        <pt x="269" y="76" on="1"/>
        <pt x="270" y="169" on="1"/>
        <pt x="355" y="169" on="1"/>
        <pt x="354" y="76" on="1"/>
      </contour>
    </TTGlyph>
    <TTGlyph name="dollar" xMin="94" yMin="-96" xMax="525" yMax="784">
      <contour>
        <pt x="189" y="520" on="1"/>
        <pt x="189" y="487" on="0"/>
        <pt x="259" y="428" on="0"/>
        <pt x="307" y="398" on="1"/>
        <pt x="343" y="598" on="1"/>
        <pt x="260" y="596" on="0"/>
        <pt x="189" y="552" on="0"/>
      </contour>
      <contour>
        <pt x="452" y="179" on="1"/>
        <pt x="452" y="197" on="0"/>
        <pt x="433" y="229" on="0"/>
        <pt x="401" y="259" on="0"/>
        <pt x="358" y="289" on="0"/>
        <pt x="334" y="304" on="1"/>
        <pt x="296" y="89" on="1"/>
        <pt x="378" y="94" on="0"/>
        <pt x="452" y="144" on="0"/>
      </contour>
      <contour>
        <pt x="206" y="-96" on="1"/>
        <pt x="229" y="25" on="1"/>
        <pt x="199" y="26" on="0"/>
        <pt x="132" y="30" on="0"/>
        <pt x="94" y="35" on="1"/>
        <pt x="107" y="103" on="1"/>
        <pt x="188" y="89" on="0"/>
        <pt x="247" y="88" on="1"/>
        <pt x="291" y="330" on="1"/>
        <pt x="259" y="349" on="0"/>
        <pt x="196" y="390" on="0"/>
        <pt x="146" y="434" on="0"/>
        <pt x="116" y="483" on="0"/>
        <pt x="116" y="511" on="1"/>
        <pt x="116" y="538" on="0"/>
        <pt x="142" y="589" on="0"/>
        <pt x="198" y="629" on="0"/>
        <pt x="287" y="656" on="0"/>
        <pt x="349" y="659" on="1"/>
        <pt x="370" y="784" on="1"/>
        <pt x="435" y="783" on="1"/>
        <pt x="411" y="660" on="1"/>
        <pt x="460" y="658" on="0"/>
        <pt x="522" y="651" on="1"/>
        <pt x="515" y="584" on="1"/>
        <pt x="480" y="589" on="0"/>
        <pt x="418" y="595" on="0"/>
        <pt x="391" y="597" on="1"/>
        <pt x="350" y="372" on="1"/>
        <pt x="382" y="352" on="0"/>
        <pt x="445" y="311" on="0"/>
        <pt x="494" y="265" on="0"/>
        <pt x="525" y="215" on="0"/>
        <pt x="525" y="187" on="1"/>
        <pt x="525" y="159" on="0"/>
        <pt x="499" y="106" on="0"/>
        <pt x="442" y="63" on="0"/>
        <pt x="353" y="33" on="0"/>
        <pt x="291" y="28" on="1"/>
        <pt x="270" y="-96" on="1"/>
      </contour>
    </TTGlyph>
    <TTGlyph name="dotaccent" xMin="273" yMin="630" xMax="351" yMax="777">
      <contour>
        <pt x="273" y="630" on="1"/>
        <pt x="276" y="777" on="1"/>
        <pt x="351" y="777" on="1"/>
        <pt x="345" y="630" on="1"/>
      </contour>
    </TTGlyph>
    <TTGlyph name="dotaccent.cap" xMin="273" yMin="630" xMax="351" yMax="777">
      <contour>
        <pt x="273" y="630" on="1"/>
        <pt x="276" y="777" on="1"/>
        <pt x="351" y="777" on="1"/>
        <pt x="345" y="630" on="1"/>
      </contour>
    </TTGlyph>
    <TTGlyph name="dotlessi" xMin="89" yMin="0" xMax="580" yMax="539">
      <contour>
        <pt x="89" y="0" on="1"/>
        <pt x="89" y="55" on="1"/>
        <pt x="299" y="55" on="1"/>
        <pt x="299" y="480" on="1"/>
        <pt x="90" y="489" on="1"/>
        <pt x="96" y="539" on="1"/>
        <pt x="370" y="539" on="1"/>
        <pt x="370" y="55" on="1"/>
        <pt x="580" y="55" on="1"/>
        <pt x="575" y="0" on="1"/>
      </contour>
    </TTGlyph>
    <TTGlyph name="e" xMin="85" yMin="-12" xMax="539" yMax="552">
      <contour>
        <pt x="508" y="-12" on="1"/>
        <pt x="384" y="-10" on="0"/>
        <pt x="221" y="27" on="0"/>
        <pt x="124" y="96" on="0"/>
        <pt x="85" y="197" on="0"/>
        <pt x="85" y="262" on="1"/>
        <pt x="85" y="323" on="0"/>
        <pt x="124" y="429" on="0"/>
        <pt x="192" y="507" on="0"/>
        <pt x="283" y="552" on="0"/>
        <pt x="335" y="552" on="1"/>
        <pt x="383" y="552" on="0"/>
        <pt x="459" y="518" on="0"/>
        <pt x="512" y="456" on="0"/>
        <pt x="539" y="368" on="0"/>
        <pt x="539" y="315" on="1"/>
        <pt x="539" y="289" on="0"/>
        <pt x="536" y="261" on="1"/>
        <pt x="155" y="251" on="1"/>
        <pt x="158" y="200" on="0"/>
        <pt x="194" y="126" on="0"/>
        <pt x="277" y="77" on="0"/>
        <pt x="414" y="52" on="0"/>
        <pt x="516" y="49" on="1"/>
      </contour>
      <contour>
        <pt x="322" y="492" on="1"/>
        <pt x="250" y="492" on="0"/>
        <pt x="161" y="391" on="0"/>
        <pt x="156" y="298" on="1"/>
        <pt x="469" y="306" on="1"/>
        <pt x="470" y="348" on="0"/>
        <pt x="452" y="416" on="0"/>
        <pt x="416" y="465" on="0"/>
        <pt x="360" y="492" on="0"/>
      </contour>
    </TTGlyph>
    <TTGlyph name="eacute" xMin="85" yMin="-12" xMax="539" yMax="857">
      <component glyphName="acute" x="17" y="8" flags="0x204"/>
      <component glyphName="e" x="0" y="0" flags="0x4"/>
    </TTGlyph>
    <TTGlyph name="ebreve" xMin="85" yMin="-12" xMax="539" yMax="824">
      <component glyphName="e" x="0" y="0" flags="0x204"/>
      <component glyphName="breve" x="13" y="8" flags="0x4"/>
    </TTGlyph>
    <TTGlyph name="ecaron" xMin="85" yMin="-12" xMax="539" yMax="828">
      <component glyphName="caron" x="18" y="8" flags="0x204"/>
      <component glyphName="e" x="0" y="0" flags="0x4"/>
    </TTGlyph>
    <TTGlyph name="ecircumflex" xMin="85" yMin="-12" xMax="539" yMax="835">
      <component glyphName="circumflex" x="12" y="8" flags="0x204"/>
      <component glyphName="e" x="0" y="0" flags="0x4"/>
    </TTGlyph>
    <TTGlyph name="edieresis" xMin="85" yMin="-12" xMax="539" yMax="785">
      <component glyphName="dieresis" x="12" y="8" flags="0x204"/>
      <component glyphName="e" x="0" y="0" flags="0x4"/>
    </TTGlyph>
    <TTGlyph name="edotaccent" xMin="85" yMin="-12" xMax="539" yMax="785">
      <component glyphName="e" x="0" y="0" flags="0x204"/>
      <component glyphName="dotaccent" x="14" y="8" flags="0x4"/>
    </TTGlyph>
    <TTGlyph name="egrave" xMin="85" yMin="-12" xMax="539" yMax="850">
      <component glyphName="e" x="0" y="0" flags="0x204"/>
      <component glyphName="grave" x="-3" y="8" flags="0x4"/>
    </TTGlyph>
    <TTGlyph name="eight" xMin="91" yMin="-13" xMax="534" yMax="701">
      <contour>
        <pt x="300" y="-13" on="1"/>
        <pt x="254" y="-13" on="0"/>
        <pt x="177" y="10" on="0"/>
        <pt x="122" y="52" on="0"/>
        <pt x="91" y="112" on="0"/>
        <pt x="91" y="149" on="1"/>
        <pt x="91" y="213" on="0"/>
        <pt x="178" y="313" on="0"/>
        <pt x="251" y="349" on="1"/>
        <pt x="222" y="366" on="0"/>
        <pt x="168" y="404" on="0"/>
        <pt x="127" y="447" on="0"/>
        <pt x="103" y="498" on="0"/>
        <pt x="103" y="528" on="1"/>
        <pt x="103" y="560" on="0"/>
        <pt x="132" y="622" on="0"/>
        <pt x="188" y="671" on="0"/>
        <pt x="269" y="701" on="0"/>
        <pt x="321" y="701" on="1"/>
        <pt x="364" y="701" on="0"/>
        <pt x="437" y="679" on="0"/>
        <pt x="491" y="638" on="0"/>
        <pt x="522" y="580" on="0"/>
        <pt x="522" y="544" on="1"/>
        <pt x="522" y="479" on="0"/>
        <pt x="438" y="391" on="0"/>
        <pt x="366" y="356" on="1"/>
        <pt x="398" y="338" on="0"/>
        <pt x="459" y="300" on="0"/>
        <pt x="506" y="255" on="0"/>
        <pt x="534" y="202" on="0"/>
        <pt x="534" y="169" on="1"/>
        <pt x="534" y="131" on="0"/>
        <pt x="501" y="64" on="0"/>
        <pt x="440" y="15" on="0"/>
        <pt x="353" y="-13" on="0"/>
      </contour>
      <contour>
        <pt x="173" y="538" on="1"/>
        <pt x="173" y="511" on="0"/>
        <pt x="198" y="467" on="0"/>
        <pt x="240" y="429" on="0"/>
        <pt x="294" y="395" on="0"/>
        <pt x="324" y="379" on="1"/>
        <pt x="385" y="408" on="0"/>
        <pt x="454" y="482" on="0"/>
        <pt x="454" y="530" on="1"/>
        <pt x="454" y="580" on="0"/>
        <pt x="381" y="643" on="0"/>
        <pt x="314" y="643" on="1"/>
        <pt x="279" y="643" on="0"/>
        <pt x="226" y="626" on="0"/>
        <pt x="191" y="597" on="0"/>
        <pt x="173" y="559" on="0"/>
      </contour>
      <contour>
        <pt x="311" y="45" on="1"/>
        <pt x="382" y="45" on="0"/>
        <pt x="464" y="109" on="0"/>
        <pt x="464" y="158" on="1"/>
        <pt x="464" y="185" on="0"/>
        <pt x="435" y="231" on="0"/>
        <pt x="387" y="271" on="0"/>
        <pt x="326" y="307" on="0"/>
        <pt x="293" y="325" on="1"/>
        <pt x="230" y="295" on="0"/>
        <pt x="161" y="214" on="0"/>
        <pt x="161" y="166" on="1"/>
        <pt x="161" y="112" on="0"/>
        <pt x="239" y="45" on="0"/>
      </contour>
    </TTGlyph>
    <TTGlyph name="eight.den" xMin="148" yMin="-244" xMax="476" yMax="215">
      <component glyphName="eight.num" x="0" y="-705" flags="0x204"/>
    </TTGlyph>
    <TTGlyph name="eight.inf" xMin="148" yMin="-178" xMax="476" yMax="281">
      <component glyphName="eight.num" x="0" y="-639" flags="0x204"/>
    </TTGlyph>
    <TTGlyph name="eight.num" xMin="148" yMin="461" xMax="476" yMax="920">
      <contour>
        <pt x="303" y="461" on="1"/>
        <pt x="233" y="461" on="0"/>
        <pt x="148" y="520" on="0"/>
        <pt x="148" y="568" on="1"/>
        <pt x="148" y="609" on="0"/>
        <pt x="209" y="670" on="0"/>
        <pt x="263" y="691" on="1"/>
        <pt x="242" y="702" on="0"/>
        <pt x="204" y="726" on="0"/>
        <pt x="174" y="754" on="0"/>
        <pt x="157" y="786" on="0"/>
        <pt x="157" y="806" on="1"/>
        <pt x="157" y="826" on="0"/>
        <pt x="178" y="867" on="0"/>
        <pt x="220" y="900" on="0"/>
        <pt x="280" y="920" on="0"/>
        <pt x="319" y="920" on="1"/>
        <pt x="350" y="920" on="0"/>
        <pt x="405" y="905" on="0"/>
        <pt x="445" y="877" on="0"/>
        <pt x="468" y="839" on="0"/>
        <pt x="468" y="815" on="1"/>
        <pt x="468" y="775" on="0"/>
        <pt x="411" y="719" on="0"/>
        <pt x="360" y="697" on="1"/>
        <pt x="382" y="686" on="0"/>
        <pt x="424" y="662" on="0"/>
        <pt x="457" y="633" on="0"/>
        <pt x="476" y="600" on="0"/>
        <pt x="476" y="580" on="1"/>
        <pt x="476" y="556" on="0"/>
        <pt x="452" y="513" on="0"/>
        <pt x="407" y="480" on="0"/>
        <pt x="343" y="461" on="0"/>
      </contour>
      <contour>
        <pt x="217" y="811" on="1"/>
        <pt x="217" y="796" on="0"/>
        <pt x="234" y="770" on="0"/>
        <pt x="263" y="747" on="0"/>
        <pt x="301" y="725" on="0"/>
        <pt x="322" y="715" on="1"/>
        <pt x="364" y="732" on="0"/>
        <pt x="412" y="776" on="0"/>
        <pt x="412" y="805" on="1"/>
        <pt x="412" y="835" on="0"/>
        <pt x="361" y="873" on="0"/>
        <pt x="313" y="873" on="1"/>
        <pt x="265" y="873" on="0"/>
        <pt x="217" y="836" on="0"/>
      </contour>
      <contour>
        <pt x="310" y="507" on="1"/>
        <pt x="360" y="507" on="0"/>
        <pt x="416" y="546" on="0"/>
        <pt x="416" y="575" on="1"/>
        <pt x="416" y="590" on="0"/>
        <pt x="397" y="617" on="0"/>
        <pt x="364" y="640" on="0"/>
        <pt x="322" y="662" on="0"/>
        <pt x="300" y="673" on="1"/>
        <pt x="255" y="656" on="0"/>
        <pt x="206" y="609" on="0"/>
        <pt x="206" y="580" on="1"/>
        <pt x="206" y="548" on="0"/>
        <pt x="260" y="507" on="0"/>
      </contour>
    </TTGlyph>
    <TTGlyph name="eight.sup" xMin="148" yMin="350" xMax="476" yMax="809">
      <component glyphName="eight.num" x="0" y="-111" flags="0x204"/>
    </TTGlyph>
    <TTGlyph name="ellipsis" xMin="56" yMin="0" xMax="567" yMax="116">
      <contour>
        <pt x="463" y="0" on="1"/>
        <pt x="468" y="116" on="1"/>
        <pt x="567" y="116" on="1"/>
        <pt x="562" y="0" on="1"/>
      </contour>
      <contour>
        <pt x="259" y="0" on="1"/>
        <pt x="264" y="116" on="1"/>
        <pt x="364" y="116" on="1"/>
        <pt x="359" y="0" on="1"/>
      </contour>
      <contour>
        <pt x="56" y="0" on="1"/>
        <pt x="61" y="116" on="1"/>
        <pt x="161" y="116" on="1"/>
        <pt x="156" y="0" on="1"/>
      </contour>
    </TTGlyph>
    <TTGlyph name="emacron" xMin="85" yMin="-12" xMax="539" yMax="746">
      <component glyphName="e" x="0" y="0" flags="0x204"/>
      <component glyphName="macron" x="12" y="8" flags="0x4"/>
    </TTGlyph>
    <TTGlyph name="emdash" xMin="69" yMin="295" xMax="560" yMax="349">
      <contour>
        <pt x="555" y="295" on="1"/>
        <pt x="69" y="295" on="1"/>
        <pt x="69" y="349" on="1"/>
        <pt x="560" y="349" on="1"/>
      </contour>
    </TTGlyph>
    <TTGlyph name="endash" xMin="92" yMin="295" xMax="538" yMax="349">
      <contour>
        <pt x="532" y="295" on="1"/>
        <pt x="92" y="295" on="1"/>
        <pt x="92" y="349" on="1"/>
        <pt x="538" y="349" on="1"/>
      </contour>
    </TTGlyph>
    <TTGlyph name="eogonek" xMin="85" yMin="-233" xMax="539" yMax="552">
      <contour>
        <pt x="322" y="492" on="1"/>
        <pt x="250" y="492" on="0"/>
        <pt x="161" y="391" on="0"/>
        <pt x="156" y="298" on="1"/>
        <pt x="469" y="306" on="1"/>
        <pt x="470" y="348" on="0"/>
        <pt x="452" y="416" on="0"/>
        <pt x="416" y="465" on="0"/>
        <pt x="360" y="492" on="0"/>
      </contour>
      <contour>
        <pt x="431" y="-4" on="1"/>
        <pt x="332" y="0" on="0"/>
        <pt x="200" y="38" on="0"/>
        <pt x="119" y="105" on="0"/>
        <pt x="85" y="201" on="0"/>
        <pt x="85" y="262" on="1"/>
        <pt x="85" y="323" on="0"/>
        <pt x="124" y="429" on="0"/>
        <pt x="192" y="507" on="0"/>
        <pt x="283" y="552" on="0"/>
        <pt x="335" y="552" on="1"/>
        <pt x="384" y="552" on="0"/>
        <pt x="460" y="518" on="0"/>
        <pt x="512" y="455" on="0"/>
        <pt x="539" y="368" on="0"/>
        <pt x="539" y="314" on="1"/>
        <pt x="539" y="288" on="0"/>
        <pt x="536" y="261" on="1"/>
        <pt x="155" y="251" on="1"/>
        <pt x="158" y="200" on="0"/>
        <pt x="194" y="126" on="0"/>
        <pt x="277" y="77" on="0"/>
        <pt x="414" y="52" on="0"/>
        <pt x="516" y="49" on="1"/>
        <pt x="508" y="-10" on="1"/>
        <pt x="463" y="-28" on="0"/>
        <pt x="404" y="-59" on="0"/>
        <pt x="369" y="-86" on="0"/>
        <pt x="355" y="-108" on="0"/>
        <pt x="355" y="-118" on="1"/>
        <pt x="355" y="-138" on="0"/>
        <pt x="416" y="-167" on="0"/>
        <pt x="490" y="-175" on="1"/>
        <pt x="482" y="-233" on="1"/>
        <pt x="376" y="-223" on="0"/>
        <pt x="289" y="-172" on="0"/>
        <pt x="289" y="-136" on="1"/>
        <pt x="289" y="-105" on="0"/>
        <pt x="353" y="-41" on="0"/>
      </contour>
    </TTGlyph>
    <TTGlyph name="equal" xMin="98" yMin="172" xMax="527" yMax="480">
      <contour>
        <pt x="526" y="420" on="1"/>
        <pt x="98" y="420" on="1"/>
        <pt x="98" y="480" on="1"/>
        <pt x="527" y="480" on="1"/>
      </contour>
      <contour>
        <pt x="526" y="172" on="1"/>
        <pt x="98" y="172" on="1"/>
        <pt x="98" y="233" on="1"/>
        <pt x="527" y="233" on="1"/>
      </contour>
    </TTGlyph>
    <TTGlyph name="eth" xMin="73" yMin="-13" xMax="548" yMax="783">
      <contour>
        <pt x="301" y="-13" on="1"/>
        <pt x="254" y="-13" on="0"/>
        <pt x="171" y="22" on="0"/>
        <pt x="109" y="88" on="0"/>
        <pt x="73" y="182" on="0"/>
        <pt x="73" y="242" on="1"/>
        <pt x="73" y="308" on="0"/>
        <pt x="119" y="409" on="0"/>
        <pt x="196" y="476" on="0"/>
        <pt x="297" y="511" on="0"/>
        <pt x="352" y="511" on="1"/>
        <pt x="367" y="511" on="0"/>
        <pt x="397" y="509" on="0"/>
        <pt x="413" y="506" on="1"/>
        <pt x="374" y="567" on="0"/>
        <pt x="312" y="625" on="1"/>
        <pt x="166" y="546" on="1"/>
        <pt x="146" y="589" on="1"/>
        <pt x="274" y="658" on="1"/>
        <pt x="224" y="697" on="0"/>
        <pt x="160" y="736" on="1"/>
        <pt x="203" y="783" on="1"/>
        <pt x="278" y="737" on="0"/>
        <pt x="334" y="690" on="1"/>
        <pt x="465" y="760" on="1"/>
        <pt x="483" y="716" on="1"/>
        <pt x="372" y="656" on="1"/>
        <pt x="463" y="571" on="0"/>
        <pt x="548" y="381" on="0"/>
        <pt x="548" y="273" on="1"/>
        <pt x="548" y="202" on="0"/>
        <pt x="508" y="95" on="0"/>
        <pt x="440" y="23" on="0"/>
        <pt x="350" y="-13" on="0"/>
      </contour>
      <contour>
        <pt x="311" y="46" on="1"/>
        <pt x="387" y="46" on="0"/>
        <pt x="480" y="160" on="0"/>
        <pt x="480" y="268" on="1"/>
        <pt x="480" y="310" on="0"/>
        <pt x="466" y="391" on="0"/>
        <pt x="451" y="430" on="1"/>
        <pt x="386" y="453" on="0"/>
        <pt x="330" y="453" on="1"/>
        <pt x="285" y="453" on="0"/>
        <pt x="215" y="423" on="0"/>
        <pt x="167" y="369" on="0"/>
        <pt x="143" y="294" on="0"/>
        <pt x="143" y="250" on="1"/>
        <pt x="143" y="204" on="0"/>
        <pt x="168" y="129" on="0"/>
        <pt x="212" y="75" on="0"/>
        <pt x="274" y="46" on="0"/>
      </contour>
    </TTGlyph>
    <TTGlyph name="exclam" xMin="256" yMin="0" xMax="369" yMax="750">
      <contour>
        <pt x="294" y="252" on="1"/>
        <pt x="294" y="298" on="0"/>
        <pt x="290" y="429" on="0"/>
        <pt x="284" y="568" on="0"/>
        <pt x="279" y="701" on="0"/>
        <pt x="278" y="750" on="1"/>
        <pt x="369" y="750" on="1"/>
        <pt x="367" y="701" on="0"/>
        <pt x="358" y="568" on="0"/>
        <pt x="349" y="429" on="0"/>
        <pt x="341" y="298" on="0"/>
        <pt x="340" y="252" on="1"/>
      </contour>
      <contour>
        <pt x="256" y="0" on="1"/>
        <pt x="258" y="110" on="1"/>
        <pt x="366" y="110" on="1"/>
        <pt x="363" y="0" on="1"/>
      </contour>
    </TTGlyph>
    <TTGlyph name="exclamdown" xMin="256" yMin="-62" xMax="369" yMax="688">
      <contour>
        <pt x="369" y="688" on="1"/>
        <pt x="367" y="579" on="1"/>
        <pt x="260" y="579" on="1"/>
        <pt x="261" y="688" on="1"/>
      </contour>
      <contour>
        <pt x="331" y="436" on="1"/>
        <pt x="331" y="389" on="0"/>
        <pt x="335" y="259" on="0"/>
        <pt x="341" y="120" on="0"/>
        <pt x="346" y="-13" on="0"/>
        <pt x="347" y="-62" on="1"/>
        <pt x="256" y="-62" on="1"/>
        <pt x="258" y="-13" on="0"/>
        <pt x="267" y="120" on="0"/>
        <pt x="276" y="259" on="0"/>
        <pt x="283" y="389" on="0"/>
        <pt x="285" y="436" on="1"/>
      </contour>
    </TTGlyph>
    <TTGlyph name="f" xMin="93" yMin="0" xMax="577" yMax="782">
      <contour>
        <pt x="525" y="0" on="1"/>
        <pt x="99" y="0" on="1"/>
        <pt x="99" y="54" on="1"/>
        <pt x="254" y="54" on="1"/>
        <pt x="254" y="476" on="1"/>
        <pt x="93" y="476" on="1"/>
        <pt x="100" y="532" on="1"/>
        <pt x="254" y="532" on="1"/>
        <pt x="254" y="586" on="0"/>
        <pt x="285" y="674" on="0"/>
        <pt x="358" y="738" on="0"/>
        <pt x="480" y="777" on="0"/>
        <pt x="571" y="782" on="1"/>
        <pt x="577" y="712" on="1"/>
        <pt x="494" y="708" on="0"/>
        <pt x="395" y="689" on="0"/>
        <pt x="342" y="650" on="0"/>
        <pt x="325" y="588" on="0"/>
        <pt x="325" y="541" on="1"/>
        <pt x="325" y="532" on="1"/>
        <pt x="542" y="532" on="1"/>
        <pt x="542" y="476" on="1"/>
        <pt x="325" y="476" on="1"/>
        <pt x="325" y="54" on="1"/>
        <pt x="531" y="54" on="1"/>
      </contour>
    </TTGlyph>
    <TTGlyph name="five" xMin="111" yMin="-12" xMax="526" yMax="688">
      <contour>
        <pt x="526" y="226" on="1"/>
        <pt x="526" y="180" on="0"/>
        <pt x="478" y="101" on="0"/>
        <pt x="377" y="39" on="0"/>
        <pt x="222" y="-3" on="0"/>
        <pt x="115" y="-12" on="1"/>
        <pt x="111" y="54" on="1"/>
        <pt x="207" y="63" on="0"/>
        <pt x="340" y="94" on="0"/>
        <pt x="422" y="136" on="0"/>
        <pt x="459" y="191" on="0"/>
        <pt x="459" y="224" on="1"/>
        <pt x="459" y="249" on="0"/>
        <pt x="426" y="295" on="0"/>
        <pt x="349" y="332" on="0"/>
        <pt x="221" y="359" on="0"/>
        <pt x="126" y="365" on="1"/>
        <pt x="148" y="688" on="1"/>
        <pt x="505" y="688" on="1"/>
        <pt x="499" y="625" on="1"/>
        <pt x="209" y="625" on="1"/>
        <pt x="194" y="416" on="1"/>
        <pt x="290" y="407" on="0"/>
        <pt x="417" y="371" on="0"/>
        <pt x="494" y="321" on="0"/>
        <pt x="526" y="260" on="0"/>
      </contour>
    </TTGlyph>
    <TTGlyph name="five.den" xMin="163" yMin="-245" xMax="471" yMax="205">
      <component glyphName="five.num" x="0" y="-705" flags="0x204"/>
    </TTGlyph>
    <TTGlyph name="five.inf" xMin="163" yMin="-179" xMax="471" yMax="271">
      <component glyphName="five.num" x="0" y="-639" flags="0x204"/>
    </TTGlyph>
    <TTGlyph name="five.num" xMin="163" yMin="460" xMax="471" yMax="910">
      <contour>
        <pt x="471" y="614" on="1"/>
        <pt x="471" y="554" on="0"/>
        <pt x="325" y="472" on="0"/>
        <pt x="167" y="460" on="1"/>
        <pt x="163" y="516" on="1"/>
        <pt x="232" y="521" on="0"/>
        <pt x="328" y="539" on="0"/>
        <pt x="388" y="563" on="0"/>
        <pt x="415" y="594" on="0"/>
        <pt x="415" y="613" on="1"/>
        <pt x="415" y="628" on="0"/>
        <pt x="391" y="655" on="0"/>
        <pt x="335" y="676" on="0"/>
        <pt x="242" y="692" on="0"/>
        <pt x="174" y="696" on="1"/>
        <pt x="190" y="910" on="1"/>
        <pt x="457" y="910" on="1"/>
        <pt x="451" y="858" on="1"/>
        <pt x="239" y="858" on="1"/>
        <pt x="229" y="739" on="1"/>
        <pt x="298" y="733" on="0"/>
        <pt x="391" y="710" on="0"/>
        <pt x="447" y="677" on="0"/>
        <pt x="471" y="636" on="0"/>
      </contour>
    </TTGlyph>
    <TTGlyph name="five.sup" xMin="163" yMin="349" xMax="471" yMax="799">
      <component glyphName="five.num" x="0" y="-111" flags="0x204"/>
    </TTGlyph>
    <TTGlyph name="fiveeighths" xMin="76" yMin="-244" xMax="548" yMax="910">
      <component glyphName="eight.num" x="0" y="-705" flags="0x204"/>
      <component glyphName="fraction.afrc" x="0" y="0" flags="0x4"/>
      <component glyphName="five.num" x="0" y="0" flags="0x4"/>
    </TTGlyph>
    <TTGlyph name="fivesixths" xMin="76" yMin="-243" xMax="548" yMax="910">
      <component glyphName="six.num" x="0" y="-705" flags="0x204"/>
      <component glyphName="fraction.afrc" x="0" y="0" flags="0x4"/>
      <component glyphName="five.num" x="0" y="0" flags="0x4"/>
    </TTGlyph>
    <TTGlyph name="four" xMin="104" yMin="0" xMax="571" yMax="697">
      <contour>
        <pt x="484" y="149" on="1"/>
        <pt x="484" y="0" on="1"/>
        <pt x="417" y="0" on="1"/>
        <pt x="417" y="149" on="1"/>
        <pt x="104" y="149" on="1"/>
        <pt x="104" y="169" on="1"/>
        <pt x="104" y="214" on="0"/>
        <pt x="114" y="335" on="0"/>
        <pt x="133" y="473" on="0"/>
        <pt x="162" y="623" on="0"/>
        <pt x="180" y="697" on="1"/>
        <pt x="257" y="691" on="1"/>
        <pt x="249" y="658" on="0"/>
        <pt x="230" y="573" on="0"/>
        <pt x="209" y="480" on="0"/>
        <pt x="189" y="385" on="0"/>
        <pt x="173" y="301" on="0"/>
        <pt x="161" y="232" on="0"/>
        <pt x="160" y="212" on="1"/>
        <pt x="417" y="212" on="1"/>
        <pt x="417" y="460" on="1"/>
        <pt x="484" y="468" on="1"/>
        <pt x="484" y="212" on="1"/>
        <pt x="571" y="212" on="1"/>
        <pt x="564" y="149" on="1"/>
      </contour>
    </TTGlyph>
    <TTGlyph name="four.den" xMin="157" yMin="-233" xMax="503" yMax="214">
      <component glyphName="four.num" x="0" y="-705" flags="0x204"/>
    </TTGlyph>
    <TTGlyph name="four.inf" xMin="157" yMin="-167" xMax="503" yMax="280">
      <component glyphName="four.num" x="0" y="-639" flags="0x204"/>
    </TTGlyph>
    <TTGlyph name="four.num" xMin="157" yMin="472" xMax="503" yMax="919">
      <contour>
        <pt x="439" y="566" on="1"/>
        <pt x="440" y="472" on="1"/>
        <pt x="384" y="472" on="1"/>
        <pt x="385" y="566" on="1"/>
        <pt x="157" y="565" on="1"/>
        <pt x="157" y="571" on="1"/>
        <pt x="157" y="634" on="0"/>
        <pt x="186" y="820" on="0"/>
        <pt x="213" y="919" on="1"/>
        <pt x="276" y="914" on="1"/>
        <pt x="268" y="887" on="0"/>
        <pt x="245" y="799" on="0"/>
        <pt x="224" y="709" on="0"/>
        <pt x="208" y="632" on="0"/>
        <pt x="207" y="615" on="1"/>
        <pt x="385" y="615" on="1"/>
        <pt x="384" y="767" on="1"/>
        <pt x="440" y="771" on="1"/>
        <pt x="439" y="615" on="1"/>
        <pt x="503" y="615" on="1"/>
        <pt x="499" y="565" on="1"/>
      </contour>
    </TTGlyph>
    <TTGlyph name="four.sup" xMin="157" yMin="361" xMax="503" yMax="808">
      <component glyphName="four.num" x="0" y="-111" flags="0x204"/>
    </TTGlyph>
    <TTGlyph name="fourfifths" xMin="76" yMin="-245" xMax="548" yMax="919">
      <component glyphName="four.num" x="0" y="0" flags="0x204"/>
      <component glyphName="five.num" x="0" y="-705" flags="0x4"/>
      <component glyphName="fraction.afrc" x="0" y="0" flags="0x4"/>
    </TTGlyph>
    <TTGlyph name="fraction" xMin="52" yMin="-178" xMax="564" yMax="835">
      <contour>
        <pt x="52" y="-152" on="1"/>
        <pt x="504" y="835" on="1"/>
        <pt x="564" y="809" on="1"/>
        <pt x="112" y="-178" on="1"/>
      </contour>
    </TTGlyph>
    <TTGlyph name="fraction.afrc" xMin="76" yMin="313" xMax="548" yMax="363">
      <contour>
        <pt x="76" y="363" on="1"/>
        <pt x="548" y="363" on="1"/>
        <pt x="548" y="313" on="1"/>
        <pt x="76" y="313" on="1"/>
      </contour>
    </TTGlyph>
    <TTGlyph name="g" xMin="75" yMin="-191" xMax="515" yMax="550">
      <contour>
        <pt x="141" y="-125" on="1"/>
        <pt x="240" y="-118" on="0"/>
        <pt x="359" y="-92" on="0"/>
        <pt x="423" y="-43" on="0"/>
        <pt x="444" y="35" on="0"/>
        <pt x="444" y="95" on="1"/>
        <pt x="414" y="72" on="0"/>
        <pt x="333" y="38" on="0"/>
        <pt x="282" y="38" on="1"/>
        <pt x="238" y="38" on="0"/>
        <pt x="162" y="69" on="0"/>
        <pt x="106" y="129" on="0"/>
        <pt x="75" y="215" on="0"/>
        <pt x="75" y="269" on="1"/>
        <pt x="75" y="335" on="0"/>
        <pt x="122" y="439" on="0"/>
        <pt x="200" y="511" on="0"/>
        <pt x="303" y="550" on="0"/>
        <pt x="360" y="550" on="1"/>
        <pt x="399" y="550" on="0"/>
        <pt x="474" y="537" on="0"/>
        <pt x="514" y="525" on="1"/>
        <pt x="514" y="517" on="0"/>
        <pt x="515" y="456" on="0"/>
        <pt x="515" y="373" on="0"/>
        <pt x="515" y="277" on="0"/>
        <pt x="515" y="191" on="0"/>
        <pt x="515" y="125" on="0"/>
        <pt x="515" y="113" on="1"/>
        <pt x="515" y="45" on="0"/>
        <pt x="483" y="-62" on="0"/>
        <pt x="400" y="-140" on="0"/>
        <pt x="258" y="-185" on="0"/>
        <pt x="149" y="-191" on="1"/>
      </contour>
      <contour>
        <pt x="307" y="96" on="1"/>
        <pt x="344" y="96" on="0"/>
        <pt x="415" y="122" on="0"/>
        <pt x="444" y="142" on="1"/>
        <pt x="444" y="471" on="1"/>
        <pt x="416" y="480" on="0"/>
        <pt x="363" y="490" on="0"/>
        <pt x="335" y="490" on="1"/>
        <pt x="296" y="490" on="0"/>
        <pt x="227" y="463" on="0"/>
        <pt x="176" y="411" on="0"/>
        <pt x="146" y="335" on="0"/>
        <pt x="146" y="286" on="1"/>
        <pt x="146" y="239" on="0"/>
        <pt x="170" y="168" on="0"/>
        <pt x="213" y="120" on="0"/>
        <pt x="272" y="96" on="0"/>
      </contour>
    </TTGlyph>
    <TTGlyph name="gbreve" xMin="75" yMin="-191" xMax="532" yMax="823">
      <component glyphName="g" x="0" y="0" flags="0x204"/>
      <component glyphName="breve" x="14" y="7" flags="0x4"/>
    </TTGlyph>
    <TTGlyph name="gcommaaccent" xMin="75" yMin="-191" xMax="515" yMax="859">
      <component glyphName="commaaccent.rot" x="10" y="7" flags="0x204"/>
      <component glyphName="g" x="0" y="0" flags="0x4"/>
    </TTGlyph>
    <TTGlyph name="gdotaccent" xMin="75" yMin="-191" xMax="515" yMax="784">
      <component glyphName="g" x="0" y="0" flags="0x204"/>
      <component glyphName="dotaccent" x="15" y="7" flags="0x4"/>
    </TTGlyph>
    <TTGlyph name="germandbls" xMin="108" yMin="-8" xMax="573" yMax="781">
      <contour>
        <pt x="368" y="393" on="1"/>
        <pt x="368" y="373" on="0"/>
        <pt x="398" y="338" on="0"/>
        <pt x="444" y="304" on="0"/>
        <pt x="497" y="268" on="0"/>
        <pt x="543" y="227" on="0"/>
        <pt x="573" y="178" on="0"/>
        <pt x="573" y="147" on="1"/>
        <pt x="573" y="118" on="0"/>
        <pt x="549" y="63" on="0"/>
        <pt x="494" y="19" on="0"/>
        <pt x="405" y="-8" on="0"/>
        <pt x="341" y="-8" on="1"/>
        <pt x="330" y="-8" on="0"/>
        <pt x="309" y="-7" on="0"/>
        <pt x="298" y="-6" on="1"/>
        <pt x="301" y="60" on="1"/>
        <pt x="318" y="58" on="0"/>
        <pt x="347" y="56" on="0"/>
        <pt x="361" y="56" on="1"/>
        <pt x="437" y="56" on="0"/>
        <pt x="503" y="107" on="0"/>
        <pt x="503" y="141" on="1"/>
        <pt x="503" y="163" on="0"/>
        <pt x="473" y="199" on="0"/>
        <pt x="427" y="233" on="0"/>
        <pt x="375" y="268" on="0"/>
        <pt x="329" y="308" on="0"/>
        <pt x="299" y="355" on="0"/>
        <pt x="299" y="385" on="1"/>
        <pt x="299" y="417" on="0"/>
        <pt x="336" y="472" on="0"/>
        <pt x="381" y="527" on="0"/>
        <pt x="419" y="585" on="0"/>
        <pt x="419" y="620" on="1"/>
        <pt x="419" y="639" on="0"/>
        <pt x="406" y="675" on="0"/>
        <pt x="381" y="702" on="0"/>
        <pt x="341" y="719" on="0"/>
        <pt x="314" y="719" on="1"/>
        <pt x="246" y="719" on="0"/>
        <pt x="178" y="622" on="0"/>
        <pt x="178" y="530" on="1"/>
        <pt x="178" y="0" on="1"/>
        <pt x="108" y="0" on="1"/>
        <pt x="108" y="514" on="1"/>
        <pt x="108" y="572" on="0"/>
        <pt x="137" y="670" on="0"/>
        <pt x="193" y="741" on="0"/>
        <pt x="276" y="781" on="0"/>
        <pt x="329" y="781" on="1"/>
        <pt x="371" y="781" on="0"/>
        <pt x="432" y="755" on="0"/>
        <pt x="472" y="714" on="0"/>
        <pt x="491" y="661" on="0"/>
        <pt x="491" y="634" on="1"/>
        <pt x="491" y="587" on="0"/>
        <pt x="453" y="519" on="0"/>
        <pt x="406" y="464" on="0"/>
        <pt x="368" y="417" on="0"/>
      </contour>
    </TTGlyph>
    <TTGlyph name="grave" xMin="165" yMin="611" xMax="431" yMax="842">
      <contour>
        <pt x="408" y="611" on="1"/>
        <pt x="381" y="627" on="0"/>
        <pt x="316" y="669" on="0"/>
        <pt x="250" y="715" on="0"/>
        <pt x="189" y="761" on="0"/>
        <pt x="165" y="782" on="1"/>
        <pt x="222" y="842" on="1"/>
        <pt x="241" y="820" on="0"/>
        <pt x="294" y="765" on="0"/>
        <pt x="351" y="710" on="0"/>
        <pt x="408" y="660" on="0"/>
        <pt x="431" y="642" on="1"/>
      </contour>
    </TTGlyph>
    <TTGlyph name="grave.cap" xMin="165" yMin="611" xMax="431" yMax="842">
      <contour>
        <pt x="408" y="611" on="1"/>
        <pt x="381" y="627" on="0"/>
        <pt x="316" y="669" on="0"/>
        <pt x="250" y="715" on="0"/>
        <pt x="189" y="761" on="0"/>
        <pt x="165" y="782" on="1"/>
        <pt x="222" y="842" on="1"/>
        <pt x="241" y="820" on="0"/>
        <pt x="294" y="765" on="0"/>
        <pt x="351" y="710" on="0"/>
        <pt x="408" y="660" on="0"/>
        <pt x="431" y="642" on="1"/>
      </contour>
    </TTGlyph>
    <TTGlyph name="greater" xMin="107" yMin="-23" xMax="519" yMax="662">
      <contour>
        <pt x="107" y="27" on="1"/>
        <pt x="452" y="317" on="1"/>
        <pt x="452" y="327" on="1"/>
        <pt x="114" y="611" on="1"/>
        <pt x="156" y="662" on="1"/>
        <pt x="519" y="353" on="1"/>
        <pt x="519" y="291" on="1"/>
        <pt x="148" y="-23" on="1"/>
      </contour>
    </TTGlyph>
    <TTGlyph name="greaterequal" xMin="95" yMin="21" xMax="530" yMax="650">
      <contour>
        <pt x="530" y="82" on="1"/>
        <pt x="530" y="21" on="1"/>
        <pt x="95" y="21" on="1"/>
        <pt x="95" y="82" on="1"/>
      </contour>
      <contour>
        <pt x="117" y="596" on="1"/>
        <pt x="148" y="650" on="1"/>
        <pt x="519" y="412" on="1"/>
        <pt x="520" y="352" on="1"/>
        <pt x="141" y="143" on="1"/>
        <pt x="116" y="199" on="1"/>
        <pt x="447" y="381" on="1"/>
        <pt x="447" y="390" on="1"/>
      </contour>
    </TTGlyph>
    <TTGlyph name="guillemotleft" xMin="62" yMin="-17" xMax="569" yMax="555">
      <contour>
        <pt x="62" y="234" on="1"/>
        <pt x="66" y="307" on="1"/>
        <pt x="256" y="555" on="1"/>
        <pt x="308" y="510" on="1"/>
        <pt x="116" y="272" on="1"/>
        <pt x="307" y="24" on="1"/>
        <pt x="253" y="-17" on="1"/>
      </contour>
      <contour>
        <pt x="323" y="234" on="1"/>
        <pt x="327" y="307" on="1"/>
        <pt x="517" y="555" on="1"/>
        <pt x="569" y="510" on="1"/>
        <pt x="377" y="271" on="1"/>
        <pt x="568" y="24" on="1"/>
        <pt x="514" y="-17" on="1"/>
      </contour>
    </TTGlyph>
    <TTGlyph name="guillemotleft.cap" xMin="62" yMin="57" xMax="569" yMax="629">
      <component glyphName="guillemotleft" x="0" y="74" flags="0x204"/>
    </TTGlyph>
    <TTGlyph name="guillemotright" xMin="56" yMin="-17" xMax="564" yMax="555">
      <contour>
        <pt x="317" y="27" on="1"/>
        <pt x="509" y="266" on="1"/>
        <pt x="318" y="513" on="1"/>
        <pt x="373" y="555" on="1"/>
        <pt x="564" y="303" on="1"/>
        <pt x="560" y="231" on="1"/>
        <pt x="370" y="-17" on="1"/>
      </contour>
      <contour>
        <pt x="56" y="27" on="1"/>
        <pt x="248" y="266" on="1"/>
        <pt x="57" y="513" on="1"/>
        <pt x="112" y="555" on="1"/>
        <pt x="303" y="303" on="1"/>
        <pt x="299" y="231" on="1"/>
        <pt x="109" y="-17" on="1"/>
      </contour>
    </TTGlyph>
    <TTGlyph name="guillemotright.cap" xMin="56" yMin="57" xMax="564" yMax="629">
      <component glyphName="guillemotright" x="0" y="74" flags="0x204"/>
    </TTGlyph>
    <TTGlyph name="guilsinglleft" xMin="150" yMin="-17" xMax="479" yMax="556">
      <contour>
        <pt x="150" y="234" on="1"/>
        <pt x="155" y="307" on="1"/>
        <pt x="432" y="556" on="1"/>
        <pt x="479" y="506" on="1"/>
        <pt x="208" y="271" on="1"/>
        <pt x="474" y="32" on="1"/>
        <pt x="426" y="-17" on="1"/>
      </contour>
    </TTGlyph>
    <TTGlyph name="guilsinglleft.cap" xMin="150" yMin="57" xMax="479" yMax="630">
      <component glyphName="guilsinglleft" x="0" y="74" flags="0x204"/>
    </TTGlyph>
    <TTGlyph name="guilsinglright" xMin="147" yMin="-17" xMax="475" yMax="556">
      <contour>
        <pt x="147" y="33" on="1"/>
        <pt x="418" y="269" on="1"/>
        <pt x="152" y="507" on="1"/>
        <pt x="200" y="556" on="1"/>
        <pt x="475" y="305" on="1"/>
        <pt x="471" y="232" on="1"/>
        <pt x="194" y="-17" on="1"/>
      </contour>
    </TTGlyph>
    <TTGlyph name="guilsinglright.cap" xMin="147" yMin="57" xMax="475" yMax="630">
      <component glyphName="guilsinglright" x="0" y="74" flags="0x204"/>
    </TTGlyph>
    <TTGlyph name="h" xMin="112" yMin="0" xMax="524" yMax="781">
      <contour>
        <pt x="333" y="490" on="1"/>
        <pt x="291" y="490" on="0"/>
        <pt x="218" y="462" on="0"/>
        <pt x="183" y="439" on="1"/>
        <pt x="183" y="0" on="1"/>
        <pt x="112" y="0" on="1"/>
        <pt x="112" y="775" on="1"/>
        <pt x="183" y="781" on="1"/>
        <pt x="183" y="485" on="1"/>
        <pt x="218" y="511" on="0"/>
        <pt x="305" y="551" on="0"/>
        <pt x="360" y="551" on="1"/>
        <pt x="434" y="551" on="0"/>
        <pt x="524" y="463" on="0"/>
        <pt x="524" y="364" on="1"/>
        <pt x="524" y="0" on="1"/>
        <pt x="453" y="0" on="1"/>
        <pt x="453" y="342" on="1"/>
        <pt x="453" y="423" on="0"/>
        <pt x="390" y="490" on="0"/>
      </contour>
    </TTGlyph>
    <TTGlyph name="hbar" xMin="29" yMin="0" xMax="524" yMax="781">
      <contour>
        <pt x="333" y="490" on="1"/>
        <pt x="291" y="490" on="0"/>
        <pt x="218" y="462" on="0"/>
        <pt x="183" y="439" on="1"/>
        <pt x="183" y="0" on="1"/>
        <pt x="112" y="0" on="1"/>
        <pt x="112" y="647" on="1"/>
        <pt x="29" y="647" on="1"/>
        <pt x="29" y="695" on="1"/>
        <pt x="112" y="695" on="1"/>
        <pt x="112" y="775" on="1"/>
        <pt x="183" y="781" on="1"/>
        <pt x="183" y="695" on="1"/>
        <pt x="334" y="695" on="1"/>
        <pt x="334" y="647" on="1"/>
        <pt x="183" y="647" on="1"/>
        <pt x="183" y="484" on="1"/>
        <pt x="218" y="510" on="0"/>
        <pt x="305" y="550" on="0"/>
        <pt x="360" y="550" on="1"/>
        <pt x="434" y="550" on="0"/>
        <pt x="524" y="462" on="0"/>
        <pt x="524" y="364" on="1"/>
        <pt x="524" y="0" on="1"/>
        <pt x="453" y="0" on="1"/>
        <pt x="453" y="342" on="1"/>
        <pt x="453" y="423" on="0"/>
        <pt x="390" y="490" on="0"/>
      </contour>
    </TTGlyph>
    <TTGlyph name="hcoslug" xMin="50" yMin="-100" xMax="644" yMax="700">
      <contour>
        <pt x="644" y="-100" on="1"/>
        <pt x="50" y="-100" on="1"/>
        <pt x="50" y="700" on="1"/>
        <pt x="644" y="700" on="1"/>
      </contour>
      <contour>
        <pt x="247" y="428" on="1"/>
        <pt x="247" y="441" on="0"/>
        <pt x="262" y="457" on="0"/>
        <pt x="274" y="457" on="1"/>
        <pt x="287" y="457" on="0"/>
        <pt x="303" y="436" on="0"/>
        <pt x="303" y="419" on="1"/>
        <pt x="303" y="406" on="0"/>
        <pt x="293" y="382" on="0"/>
        <pt x="285" y="369" on="1"/>
        <pt x="268" y="386" on="0"/>
        <pt x="247" y="411" on="0"/>
      </contour>
      <contour>
        <pt x="312" y="342" on="1"/>
        <pt x="342" y="362" on="0"/>
        <pt x="354" y="376" on="1"/>
        <pt x="369" y="361" on="0"/>
        <pt x="369" y="342" on="1"/>
        <pt x="369" y="325" on="0"/>
        <pt x="353" y="296" on="1"/>
        <pt x="343" y="307" on="0"/>
        <pt x="324" y="330" on="0"/>
      </contour>
      <contour>
        <pt x="261" y="219" on="1"/>
        <pt x="238" y="219" on="0"/>
        <pt x="209" y="250" on="0"/>
        <pt x="209" y="273" on="1"/>
        <pt x="209" y="297" on="0"/>
        <pt x="225" y="313" on="1"/>
        <pt x="239" y="300" on="0"/>
        <pt x="278" y="257" on="0"/>
        <pt x="299" y="231" on="1"/>
        <pt x="284" y="219" on="0"/>
      </contour>
      <contour>
        <pt x="382" y="264" on="1"/>
        <pt x="393" y="279" on="0"/>
        <pt x="417" y="299" on="0"/>
        <pt x="428" y="306" on="1"/>
        <pt x="435" y="295" on="0"/>
        <pt x="457" y="281" on="0"/>
        <pt x="471" y="281" on="1"/>
        <pt x="492" y="281" on="0"/>
        <pt x="521" y="312" on="0"/>
        <pt x="521" y="335" on="1"/>
        <pt x="521" y="358" on="0"/>
        <pt x="492" y="387" on="0"/>
        <pt x="471" y="387" on="1"/>
        <pt x="436" y="387" on="0"/>
        <pt x="411" y="349" on="1"/>
        <pt x="409" y="369" on="0"/>
        <pt x="385" y="386" on="0"/>
        <pt x="365" y="386" on="1"/>
        <pt x="362" y="386" on="1"/>
        <pt x="371" y="401" on="0"/>
        <pt x="371" y="420" on="1"/>
        <pt x="371" y="433" on="0"/>
        <pt x="359" y="460" on="0"/>
        <pt x="335" y="481" on="0"/>
        <pt x="299" y="494" on="0"/>
        <pt x="276" y="494" on="1"/>
        <pt x="251" y="494" on="0"/>
        <pt x="211" y="480" on="0"/>
        <pt x="182" y="456" on="0"/>
        <pt x="167" y="425" on="0"/>
        <pt x="167" y="409" on="1"/>
        <pt x="167" y="387" on="0"/>
        <pt x="182" y="357" on="0"/>
        <pt x="198" y="340" on="1"/>
        <pt x="116" y="312" on="0"/>
        <pt x="116" y="249" on="1"/>
        <pt x="116" y="229" on="0"/>
        <pt x="133" y="195" on="0"/>
        <pt x="163" y="170" on="0"/>
        <pt x="202" y="156" on="0"/>
        <pt x="225" y="156" on="1"/>
        <pt x="288" y="156" on="0"/>
        <pt x="329" y="201" on="1"/>
        <pt x="354" y="175" on="0"/>
        <pt x="391" y="156" on="0"/>
        <pt x="414" y="156" on="1"/>
        <pt x="446" y="156" on="0"/>
        <pt x="492" y="206" on="0"/>
        <pt x="494" y="250" on="1"/>
        <pt x="487" y="252" on="1"/>
        <pt x="479" y="239" on="0"/>
        <pt x="460" y="223" on="0"/>
        <pt x="444" y="223" on="1"/>
        <pt x="429" y="223" on="0"/>
        <pt x="401" y="242" on="0"/>
      </contour>
      <contour>
        <pt x="274" y="122" on="1"/>
        <pt x="274" y="113" on="1"/>
        <pt x="267" y="113" on="1"/>
        <pt x="267" y="106" on="1"/>
        <pt x="274" y="106" on="1"/>
        <pt x="274" y="86" on="1"/>
        <pt x="274" y="73" on="0"/>
        <pt x="286" y="73" on="1"/>
        <pt x="297" y="73" on="0"/>
        <pt x="300" y="86" on="1"/>
        <pt x="295" y="88" on="1"/>
        <pt x="294" y="81" on="0"/>
        <pt x="290" y="81" on="1"/>
        <pt x="286" y="81" on="0"/>
        <pt x="286" y="86" on="1"/>
        <pt x="286" y="106" on="1"/>
        <pt x="299" y="106" on="1"/>
        <pt x="299" y="113" on="1"/>
        <pt x="286" y="113" on="1"/>
        <pt x="286" y="124" on="1"/>
      </contour>
      <contour>
        <pt x="174" y="94" on="1"/>
        <pt x="174" y="84" on="0"/>
        <pt x="186" y="73" on="0"/>
        <pt x="195" y="73" on="1"/>
        <pt x="204" y="73" on="0"/>
        <pt x="216" y="85" on="0"/>
        <pt x="216" y="94" on="1"/>
        <pt x="216" y="103" on="0"/>
        <pt x="204" y="114" on="0"/>
        <pt x="195" y="114" on="1"/>
        <pt x="186" y="114" on="0"/>
        <pt x="174" y="103" on="0"/>
      </contour>
      <contour>
        <pt x="203" y="94" on="1"/>
        <pt x="203" y="78" on="0"/>
        <pt x="195" y="78" on="1"/>
        <pt x="187" y="78" on="0"/>
        <pt x="187" y="94" on="1"/>
        <pt x="187" y="109" on="0"/>
        <pt x="195" y="109" on="1"/>
        <pt x="203" y="109" on="0"/>
      </contour>
      <contour>
        <pt x="379" y="93" on="1"/>
        <pt x="379" y="80" on="0"/>
        <pt x="372" y="80" on="1"/>
        <pt x="364" y="80" on="0"/>
        <pt x="364" y="93" on="1"/>
        <pt x="364" y="106" on="0"/>
        <pt x="372" y="106" on="1"/>
        <pt x="379" y="106" on="0"/>
      </contour>
      <contour>
        <pt x="219" y="74" on="1"/>
        <pt x="241" y="74" on="1"/>
        <pt x="241" y="81" on="1"/>
        <pt x="237" y="81" on="1"/>
        <pt x="237" y="96" on="1"/>
        <pt x="237" y="106" on="0"/>
        <pt x="244" y="106" on="1"/>
        <pt x="250" y="106" on="0"/>
        <pt x="250" y="99" on="1"/>
        <pt x="250" y="81" on="1"/>
        <pt x="246" y="81" on="1"/>
        <pt x="246" y="74" on="1"/>
        <pt x="268" y="74" on="1"/>
        <pt x="268" y="81" on="1"/>
        <pt x="262" y="81" on="1"/>
        <pt x="262" y="100" on="1"/>
        <pt x="262" y="114" on="0"/>
        <pt x="250" y="114" on="1"/>
        <pt x="241" y="114" on="0"/>
        <pt x="236" y="103" on="1"/>
        <pt x="236" y="113" on="1"/>
        <pt x="219" y="113" on="1"/>
        <pt x="219" y="106" on="1"/>
        <pt x="225" y="106" on="1"/>
        <pt x="225" y="81" on="1"/>
        <pt x="219" y="81" on="1"/>
      </contour>
      <contour>
        <pt x="125" y="74" on="1"/>
        <pt x="155" y="74" on="1"/>
        <pt x="155" y="81" on="1"/>
        <pt x="145" y="81" on="1"/>
        <pt x="145" y="97" on="1"/>
        <pt x="149" y="97" on="1"/>
        <pt x="154" y="97" on="0"/>
        <pt x="155" y="89" on="1"/>
        <pt x="162" y="89" on="1"/>
        <pt x="162" y="112" on="1"/>
        <pt x="155" y="112" on="1"/>
        <pt x="154" y="104" on="0"/>
        <pt x="149" y="104" on="1"/>
        <pt x="145" y="104" on="1"/>
        <pt x="145" y="122" on="1"/>
        <pt x="157" y="122" on="1"/>
        <pt x="162" y="122" on="0"/>
        <pt x="166" y="117" on="0"/>
        <pt x="168" y="109" on="1"/>
        <pt x="176" y="109" on="1"/>
        <pt x="176" y="129" on="1"/>
        <pt x="125" y="129" on="1"/>
        <pt x="125" y="122" on="1"/>
        <pt x="132" y="122" on="1"/>
        <pt x="132" y="81" on="1"/>
        <pt x="125" y="81" on="1"/>
      </contour>
      <contour>
        <pt x="302" y="74" on="1"/>
        <pt x="309" y="74" on="1"/>
        <pt x="310" y="78" on="1"/>
        <pt x="312" y="76" on="0"/>
        <pt x="318" y="73" on="0"/>
        <pt x="323" y="73" on="1"/>
        <pt x="337" y="73" on="0"/>
        <pt x="337" y="86" on="1"/>
        <pt x="337" y="92" on="0"/>
        <pt x="329" y="97" on="0"/>
        <pt x="320" y="99" on="0"/>
        <pt x="313" y="101" on="0"/>
        <pt x="313" y="104" on="1"/>
        <pt x="313" y="108" on="0"/>
        <pt x="318" y="108" on="1"/>
        <pt x="323" y="108" on="0"/>
        <pt x="328" y="101" on="1"/>
        <pt x="335" y="101" on="1"/>
        <pt x="335" y="114" on="1"/>
        <pt x="329" y="114" on="1"/>
        <pt x="327" y="109" on="1"/>
        <pt x="324" y="114" on="0"/>
        <pt x="316" y="114" on="1"/>
        <pt x="309" y="114" on="0"/>
        <pt x="302" y="107" on="0"/>
        <pt x="302" y="102" on="1"/>
        <pt x="302" y="96" on="0"/>
        <pt x="309" y="91" on="0"/>
        <pt x="318" y="88" on="0"/>
        <pt x="326" y="86" on="0"/>
        <pt x="326" y="83" on="1"/>
        <pt x="326" y="79" on="0"/>
        <pt x="321" y="79" on="1"/>
        <pt x="315" y="79" on="0"/>
        <pt x="309" y="88" on="1"/>
        <pt x="302" y="88" on="1"/>
      </contour>
      <contour>
        <pt x="352" y="73" on="1"/>
        <pt x="358" y="73" on="1"/>
        <pt x="362" y="81" on="1"/>
        <pt x="367" y="73" on="0"/>
        <pt x="376" y="73" on="1"/>
        <pt x="385" y="73" on="0"/>
        <pt x="392" y="87" on="0"/>
        <pt x="392" y="94" on="1"/>
        <pt x="392" y="114" on="0"/>
        <pt x="377" y="114" on="1"/>
        <pt x="367" y="114" on="0"/>
        <pt x="364" y="105" on="1"/>
        <pt x="364" y="132" on="1"/>
        <pt x="346" y="132" on="1"/>
        <pt x="346" y="125" on="1"/>
        <pt x="352" y="125" on="1"/>
      </contour>
      <contour>
        <pt x="405" y="65" on="1"/>
        <pt x="407" y="67" on="0"/>
        <pt x="407" y="69" on="1"/>
        <pt x="407" y="75" on="0"/>
        <pt x="400" y="75" on="1"/>
        <pt x="393" y="75" on="0"/>
        <pt x="393" y="68" on="1"/>
        <pt x="393" y="59" on="0"/>
        <pt x="404" y="59" on="1"/>
        <pt x="416" y="59" on="0"/>
        <pt x="422" y="75" on="1"/>
        <pt x="435" y="106" on="1"/>
        <pt x="440" y="106" on="1"/>
        <pt x="440" y="113" on="1"/>
        <pt x="423" y="113" on="1"/>
        <pt x="423" y="106" on="1"/>
        <pt x="428" y="106" on="1"/>
        <pt x="420" y="86" on="1"/>
        <pt x="411" y="106" on="1"/>
        <pt x="417" y="106" on="1"/>
        <pt x="417" y="113" on="1"/>
        <pt x="392" y="113" on="1"/>
        <pt x="392" y="106" on="1"/>
        <pt x="397" y="106" on="1"/>
        <pt x="399" y="99" on="0"/>
        <pt x="403" y="93" on="1"/>
        <pt x="405" y="88" on="0"/>
        <pt x="411" y="77" on="0"/>
        <pt x="413" y="73" on="1"/>
        <pt x="411" y="65" on="0"/>
      </contour>
      <contour>
        <pt x="446" y="33" on="1"/>
        <pt x="446" y="26" on="1"/>
        <pt x="452" y="26" on="1"/>
        <pt x="450" y="21" on="0"/>
        <pt x="446" y="17" on="1"/>
        <pt x="443" y="20" on="0"/>
        <pt x="438" y="26" on="0"/>
        <pt x="434" y="30" on="1"/>
        <pt x="445" y="35" on="0"/>
        <pt x="445" y="42" on="1"/>
        <pt x="445" y="47" on="0"/>
        <pt x="438" y="54" on="0"/>
        <pt x="431" y="54" on="1"/>
        <pt x="423" y="54" on="0"/>
        <pt x="414" y="45" on="0"/>
        <pt x="414" y="40" on="1"/>
        <pt x="414" y="34" on="0"/>
        <pt x="420" y="28" on="1"/>
        <pt x="407" y="24" on="0"/>
        <pt x="407" y="13" on="1"/>
        <pt x="407" y="-1" on="0"/>
        <pt x="425" y="-1" on="1"/>
        <pt x="434" y="-1" on="0"/>
        <pt x="440" y="5" on="1"/>
        <pt x="445" y="-1" on="0"/>
        <pt x="452" y="-1" on="1"/>
        <pt x="462" y="-1" on="0"/>
        <pt x="465" y="11" on="1"/>
        <pt x="460" y="12" on="1"/>
        <pt x="459" y="7" on="0"/>
        <pt x="456" y="7" on="1"/>
        <pt x="453" y="7" on="0"/>
        <pt x="450" y="12" on="1"/>
        <pt x="452" y="15" on="0"/>
        <pt x="457" y="21" on="0"/>
        <pt x="459" y="26" on="1"/>
        <pt x="464" y="26" on="1"/>
        <pt x="464" y="33" on="1"/>
      </contour>
      <contour>
        <pt x="294" y="42" on="1"/>
        <pt x="294" y="50" on="0"/>
        <pt x="298" y="54" on="0"/>
        <pt x="300" y="54" on="1"/>
        <pt x="301" y="54" on="0"/>
        <pt x="301" y="53" on="0"/>
        <pt x="302" y="53" on="1"/>
        <pt x="303" y="53" on="1"/>
        <pt x="302" y="52" on="1"/>
        <pt x="302" y="50" on="1"/>
        <pt x="302" y="44" on="0"/>
        <pt x="308" y="44" on="1"/>
        <pt x="308" y="39" on="1"/>
        <pt x="294" y="39" on="1"/>
      </contour>
      <contour>
        <pt x="469" y="27" on="1"/>
        <pt x="469" y="-1" on="0"/>
        <pt x="498" y="-1" on="1"/>
        <pt x="520" y="-1" on="0"/>
        <pt x="522" y="22" on="1"/>
        <pt x="514" y="22" on="1"/>
        <pt x="512" y="6" on="0"/>
        <pt x="500" y="6" on="1"/>
        <pt x="484" y="6" on="0"/>
        <pt x="484" y="28" on="1"/>
        <pt x="484" y="50" on="0"/>
        <pt x="498" y="50" on="1"/>
        <pt x="508" y="50" on="0"/>
        <pt x="513" y="34" on="1"/>
        <pt x="521" y="34" on="1"/>
        <pt x="521" y="56" on="1"/>
        <pt x="513" y="56" on="1"/>
        <pt x="512" y="50" on="1"/>
        <pt x="505" y="57" on="0"/>
        <pt x="496" y="57" on="1"/>
        <pt x="485" y="57" on="0"/>
        <pt x="469" y="41" on="0"/>
      </contour>
      <contour>
        <pt x="431" y="33" on="1"/>
        <pt x="425" y="39" on="0"/>
        <pt x="425" y="43" on="1"/>
        <pt x="425" y="48" on="0"/>
        <pt x="430" y="48" on="1"/>
        <pt x="436" y="48" on="0"/>
        <pt x="436" y="42" on="1"/>
        <pt x="436" y="36" on="0"/>
      </contour>
      <contour>
        <pt x="273" y="18" on="1"/>
        <pt x="273" y="21" on="1"/>
        <pt x="273" y="40" on="0"/>
        <pt x="254" y="40" on="1"/>
        <pt x="246" y="40" on="0"/>
        <pt x="234" y="28" on="0"/>
        <pt x="234" y="19" on="1"/>
        <pt x="234" y="-1" on="0"/>
        <pt x="255" y="-1" on="1"/>
        <pt x="269" y="-1" on="0"/>
        <pt x="273" y="13" on="1"/>
        <pt x="266" y="13" on="1"/>
        <pt x="265" y="6" on="0"/>
        <pt x="257" y="6" on="1"/>
        <pt x="247" y="6" on="0"/>
        <pt x="247" y="18" on="1"/>
      </contour>
      <contour>
        <pt x="189" y="20" on="1"/>
        <pt x="189" y="10" on="0"/>
        <pt x="201" y="-1" on="0"/>
        <pt x="210" y="-1" on="1"/>
        <pt x="219" y="-1" on="0"/>
        <pt x="231" y="11" on="0"/>
        <pt x="231" y="20" on="1"/>
        <pt x="231" y="29" on="0"/>
        <pt x="219" y="40" on="0"/>
        <pt x="210" y="40" on="1"/>
        <pt x="201" y="40" on="0"/>
        <pt x="189" y="29" on="0"/>
      </contour>
      <contour>
        <pt x="525" y="20" on="1"/>
        <pt x="525" y="10" on="0"/>
        <pt x="537" y="-1" on="0"/>
        <pt x="546" y="-1" on="1"/>
        <pt x="555" y="-1" on="0"/>
        <pt x="567" y="11" on="0"/>
        <pt x="567" y="20" on="1"/>
        <pt x="567" y="29" on="0"/>
        <pt x="555" y="40" on="0"/>
        <pt x="546" y="40" on="1"/>
        <pt x="537" y="40" on="0"/>
        <pt x="525" y="29" on="0"/>
      </contour>
      <contour>
        <pt x="366" y="18" on="1"/>
        <pt x="366" y="21" on="1"/>
        <pt x="366" y="40" on="0"/>
        <pt x="347" y="40" on="1"/>
        <pt x="339" y="40" on="0"/>
        <pt x="327" y="28" on="0"/>
        <pt x="327" y="19" on="1"/>
        <pt x="327" y="-1" on="0"/>
        <pt x="348" y="-1" on="1"/>
        <pt x="362" y="-1" on="0"/>
        <pt x="366" y="13" on="1"/>
        <pt x="359" y="13" on="1"/>
        <pt x="358" y="6" on="0"/>
        <pt x="350" y="6" on="1"/>
        <pt x="340" y="6" on="0"/>
        <pt x="340" y="18" on="1"/>
      </contour>
      <contour>
        <pt x="247" y="23" on="1"/>
        <pt x="247" y="35" on="0"/>
        <pt x="254" y="35" on="1"/>
        <pt x="261" y="35" on="0"/>
        <pt x="261" y="23" on="1"/>
      </contour>
      <contour>
        <pt x="218" y="20" on="1"/>
        <pt x="218" y="4" on="0"/>
        <pt x="210" y="4" on="1"/>
        <pt x="202" y="4" on="0"/>
        <pt x="202" y="20" on="1"/>
        <pt x="202" y="35" on="0"/>
        <pt x="210" y="35" on="1"/>
        <pt x="218" y="35" on="0"/>
      </contour>
      <contour>
        <pt x="554" y="20" on="1"/>
        <pt x="554" y="4" on="0"/>
        <pt x="546" y="4" on="1"/>
        <pt x="538" y="4" on="0"/>
        <pt x="538" y="20" on="1"/>
        <pt x="538" y="35" on="0"/>
        <pt x="546" y="35" on="1"/>
        <pt x="554" y="35" on="0"/>
      </contour>
      <contour>
        <pt x="340" y="23" on="1"/>
        <pt x="340" y="35" on="0"/>
        <pt x="347" y="35" on="1"/>
        <pt x="354" y="35" on="0"/>
        <pt x="354" y="23" on="1"/>
      </contour>
      <contour>
        <pt x="276" y="0" on="1"/>
        <pt x="299" y="0" on="1"/>
        <pt x="299" y="7" on="1"/>
        <pt x="294" y="7" on="1"/>
        <pt x="294" y="32" on="1"/>
        <pt x="308" y="32" on="1"/>
        <pt x="308" y="7" on="1"/>
        <pt x="303" y="7" on="1"/>
        <pt x="303" y="0" on="1"/>
        <pt x="326" y="0" on="1"/>
        <pt x="326" y="7" on="1"/>
        <pt x="320" y="7" on="1"/>
        <pt x="320" y="59" on="1"/>
        <pt x="310" y="57" on="1"/>
        <pt x="306" y="59" on="0"/>
        <pt x="301" y="59" on="1"/>
        <pt x="293" y="59" on="0"/>
        <pt x="282" y="50" on="0"/>
        <pt x="282" y="40" on="1"/>
        <pt x="282" y="39" on="1"/>
        <pt x="275" y="39" on="1"/>
        <pt x="275" y="32" on="1"/>
        <pt x="282" y="32" on="1"/>
        <pt x="282" y="7" on="1"/>
        <pt x="276" y="7" on="1"/>
      </contour>
      <contour>
        <pt x="368" y="0" on="1"/>
        <pt x="394" y="0" on="1"/>
        <pt x="394" y="7" on="1"/>
        <pt x="386" y="7" on="1"/>
        <pt x="386" y="23" on="1"/>
        <pt x="390" y="32" on="0"/>
        <pt x="393" y="32" on="1"/>
        <pt x="393" y="31" on="1"/>
        <pt x="393" y="25" on="0"/>
        <pt x="399" y="25" on="1"/>
        <pt x="406" y="25" on="0"/>
        <pt x="406" y="32" on="1"/>
        <pt x="406" y="40" on="0"/>
        <pt x="398" y="40" on="1"/>
        <pt x="390" y="40" on="0"/>
        <pt x="386" y="29" on="1"/>
        <pt x="386" y="39" on="1"/>
        <pt x="368" y="39" on="1"/>
        <pt x="368" y="32" on="1"/>
        <pt x="374" y="32" on="1"/>
        <pt x="374" y="7" on="1"/>
        <pt x="368" y="7" on="1"/>
      </contour>
      <contour>
        <pt x="437" y="9" on="1"/>
        <pt x="432" y="6" on="0"/>
        <pt x="429" y="6" on="1"/>
        <pt x="419" y="6" on="0"/>
        <pt x="419" y="16" on="1"/>
        <pt x="419" y="21" on="0"/>
        <pt x="423" y="25" on="1"/>
        <pt x="427" y="21" on="0"/>
        <pt x="433" y="14" on="0"/>
      </contour>
      <contour>
        <pt x="124" y="0" on="1"/>
        <pt x="153" y="0" on="1"/>
        <pt x="153" y="7" on="1"/>
        <pt x="145" y="7" on="1"/>
        <pt x="145" y="25" on="1"/>
        <pt x="167" y="25" on="1"/>
        <pt x="167" y="7" on="1"/>
        <pt x="159" y="7" on="1"/>
        <pt x="159" y="0" on="1"/>
        <pt x="188" y="0" on="1"/>
        <pt x="188" y="7" on="1"/>
        <pt x="180" y="7" on="1"/>
        <pt x="180" y="48" on="1"/>
        <pt x="188" y="48" on="1"/>
        <pt x="188" y="55" on="1"/>
        <pt x="159" y="55" on="1"/>
        <pt x="159" y="48" on="1"/>
        <pt x="167" y="48" on="1"/>
        <pt x="167" y="32" on="1"/>
        <pt x="145" y="32" on="1"/>
        <pt x="145" y="48" on="1"/>
        <pt x="153" y="48" on="1"/>
        <pt x="153" y="55" on="1"/>
        <pt x="124" y="55" on="1"/>
        <pt x="124" y="48" on="1"/>
        <pt x="132" y="48" on="1"/>
        <pt x="132" y="7" on="1"/>
        <pt x="124" y="7" on="1"/>
      </contour>
      <contour>
        <pt x="583" y="6" on="1"/>
        <pt x="583" y="13" on="0"/>
        <pt x="576" y="13" on="1"/>
        <pt x="569" y="13" on="0"/>
        <pt x="569" y="6" on="1"/>
        <pt x="569" y="-1" on="0"/>
        <pt x="576" y="-1" on="1"/>
        <pt x="583" y="-1" on="0"/>
      </contour>
    </TTGlyph>
    <TTGlyph name="hungarumlaut" xMin="152" yMin="619" xMax="576" yMax="862">
      <contour>
        <pt x="152" y="643" on="1"/>
        <pt x="168" y="666" on="0"/>
        <pt x="202" y="723" on="0"/>
        <pt x="233" y="782" on="0"/>
        <pt x="261" y="839" on="0"/>
        <pt x="271" y="862" on="1"/>
        <pt x="346" y="827" on="1"/>
        <pt x="332" y="804" on="0"/>
        <pt x="294" y="750" on="0"/>
        <pt x="252" y="694" on="0"/>
        <pt x="208" y="642" on="0"/>
        <pt x="187" y="620" on="1"/>
      </contour>
      <contour>
        <pt x="381" y="642" on="1"/>
        <pt x="397" y="665" on="0"/>
        <pt x="431" y="720" on="0"/>
        <pt x="462" y="778" on="0"/>
        <pt x="489" y="834" on="0"/>
        <pt x="499" y="858" on="1"/>
        <pt x="576" y="826" on="1"/>
        <pt x="562" y="803" on="0"/>
        <pt x="524" y="749" on="0"/>
        <pt x="482" y="694" on="0"/>
        <pt x="437" y="641" on="0"/>
        <pt x="416" y="619" on="1"/>
      </contour>
    </TTGlyph>
    <TTGlyph name="hungarumlaut.cap" xMin="152" yMin="619" xMax="576" yMax="862">
      <contour>
        <pt x="152" y="643" on="1"/>
        <pt x="168" y="666" on="0"/>
        <pt x="202" y="723" on="0"/>
        <pt x="233" y="782" on="0"/>
        <pt x="261" y="839" on="0"/>
        <pt x="271" y="862" on="1"/>
        <pt x="346" y="827" on="1"/>
        <pt x="332" y="804" on="0"/>
        <pt x="294" y="750" on="0"/>
        <pt x="252" y="694" on="0"/>
        <pt x="208" y="642" on="0"/>
        <pt x="187" y="620" on="1"/>
      </contour>
      <contour>
        <pt x="381" y="642" on="1"/>
        <pt x="397" y="665" on="0"/>
        <pt x="431" y="720" on="0"/>
        <pt x="462" y="778" on="0"/>
        <pt x="489" y="834" on="0"/>
        <pt x="499" y="858" on="1"/>
        <pt x="576" y="826" on="1"/>
        <pt x="562" y="803" on="0"/>
        <pt x="524" y="749" on="0"/>
        <pt x="482" y="694" on="0"/>
        <pt x="437" y="641" on="0"/>
        <pt x="416" y="619" on="1"/>
      </contour>
    </TTGlyph>
    <TTGlyph name="hyphen" xMin="140" yMin="292" xMax="489" yMax="353">
      <contour>
        <pt x="485" y="292" on="1"/>
        <pt x="140" y="292" on="1"/>
        <pt x="140" y="353" on="1"/>
        <pt x="489" y="353" on="1"/>
      </contour>
    </TTGlyph>
    <TTGlyph name="i" xMin="89" yMin="0" xMax="580" yMax="777">
      <contour>
        <pt x="293" y="630" on="1"/>
        <pt x="298" y="777" on="1"/>
        <pt x="374" y="777" on="1"/>
        <pt x="365" y="630" on="1"/>
      </contour>
      <contour>
        <pt x="89" y="0" on="1"/>
        <pt x="89" y="55" on="1"/>
        <pt x="299" y="55" on="1"/>
        <pt x="299" y="480" on="1"/>
        <pt x="90" y="489" on="1"/>
        <pt x="96" y="539" on="1"/>
        <pt x="370" y="539" on="1"/>
        <pt x="370" y="55" on="1"/>
        <pt x="580" y="55" on="1"/>
        <pt x="575" y="0" on="1"/>
      </contour>
    </TTGlyph>
    <TTGlyph name="iacute" xMin="89" yMin="0" xMax="580" yMax="849">
      <component glyphName="acute" x="28" y="0" flags="0x204"/>
      <component glyphName="dotlessi" x="0" y="0" flags="0x4"/>
    </TTGlyph>
    <TTGlyph name="ibreve" xMin="89" yMin="0" xMax="580" yMax="816">
      <component glyphName="dotlessi" x="0" y="0" flags="0x204"/>
      <component glyphName="breve" x="24" y="0" flags="0x4"/>
    </TTGlyph>
    <TTGlyph name="icircumflex" xMin="89" yMin="0" xMax="580" yMax="827">
      <component glyphName="circumflex" x="22" y="0" flags="0x204"/>
      <component glyphName="dotlessi" x="0" y="0" flags="0x4"/>
    </TTGlyph>
    <TTGlyph name="idieresis" xMin="89" yMin="0" xMax="580" yMax="777">
      <component glyphName="dieresis" x="22" y="0" flags="0x204"/>
      <component glyphName="dotlessi" x="0" y="0" flags="0x4"/>
    </TTGlyph>
    <TTGlyph name="igrave" xMin="89" yMin="0" xMax="580" yMax="842">
      <component glyphName="dotlessi" x="0" y="0" flags="0x204"/>
      <component glyphName="grave" x="8" y="0" flags="0x4"/>
    </TTGlyph>
    <TTGlyph name="imacron" xMin="89" yMin="0" xMax="580" yMax="738">
      <component glyphName="dotlessi" x="0" y="0" flags="0x204"/>
      <component glyphName="macron" x="22" y="0" flags="0x4"/>
    </TTGlyph>
    <TTGlyph name="iogonek" xMin="89" yMin="-234" xMax="580" yMax="777">
      <contour>
        <pt x="293" y="630" on="1"/>
        <pt x="298" y="777" on="1"/>
        <pt x="374" y="777" on="1"/>
        <pt x="365" y="630" on="1"/>
      </contour>
      <contour>
        <pt x="397" y="-234" on="1"/>
        <pt x="344" y="-229" on="0"/>
        <pt x="270" y="-211" on="0"/>
        <pt x="224" y="-186" on="0"/>
        <pt x="204" y="-152" on="0"/>
        <pt x="204" y="-132" on="1"/>
        <pt x="204" y="-101" on="0"/>
        <pt x="249" y="-39" on="0"/>
        <pt x="301" y="0" on="1"/>
        <pt x="89" y="0" on="1"/>
        <pt x="89" y="55" on="1"/>
        <pt x="299" y="55" on="1"/>
        <pt x="299" y="480" on="1"/>
        <pt x="90" y="489" on="1"/>
        <pt x="96" y="539" on="1"/>
        <pt x="370" y="539" on="1"/>
        <pt x="370" y="55" on="1"/>
        <pt x="580" y="55" on="1"/>
        <pt x="575" y="0" on="1"/>
        <pt x="366" y="0" on="1"/>
        <pt x="311" y="-43" on="0"/>
        <pt x="270" y="-96" on="0"/>
        <pt x="270" y="-116" on="1"/>
        <pt x="270" y="-139" on="0"/>
        <pt x="331" y="-167" on="0"/>
        <pt x="404" y="-175" on="1"/>
      </contour>
    </TTGlyph>
    <TTGlyph name="j" xMin="55" yMin="-194" xMax="418" yMax="777">
      <contour>
        <pt x="340" y="630" on="1"/>
        <pt x="344" y="777" on="1"/>
        <pt x="418" y="777" on="1"/>
        <pt x="411" y="630" on="1"/>
      </contour>
      <contour>
        <pt x="418" y="539" on="1"/>
        <pt x="418" y="46" on="1"/>
        <pt x="418" y="-13" on="0"/>
        <pt x="383" y="-99" on="0"/>
        <pt x="300" y="-158" on="0"/>
        <pt x="160" y="-190" on="0"/>
        <pt x="55" y="-194" on="1"/>
        <pt x="58" y="-126" on="1"/>
        <pt x="152" y="-122" on="0"/>
        <pt x="265" y="-104" on="0"/>
        <pt x="327" y="-68" on="0"/>
        <pt x="347" y="-11" on="0"/>
        <pt x="347" y="33" on="1"/>
        <pt x="347" y="480" on="1"/>
        <pt x="103" y="489" on="1"/>
        <pt x="108" y="539" on="1"/>
      </contour>
    </TTGlyph>
    <TTGlyph name="k" xMin="127" yMin="-6" xMax="572" yMax="781">
      <contour>
        <pt x="288" y="248" on="1"/>
        <pt x="198" y="245" on="1"/>
        <pt x="198" y="0" on="1"/>
        <pt x="127" y="0" on="1"/>
        <pt x="127" y="775" on="1"/>
        <pt x="198" y="781" on="1"/>
        <pt x="198" y="299" on="1"/>
        <pt x="292" y="302" on="1"/>
        <pt x="344" y="359" on="0"/>
        <pt x="440" y="477" on="0"/>
        <pt x="487" y="541" on="1"/>
        <pt x="559" y="535" on="1"/>
        <pt x="510" y="468" on="0"/>
        <pt x="407" y="339" on="0"/>
        <pt x="351" y="278" on="1"/>
        <pt x="572" y="6" on="1"/>
        <pt x="496" y="-6" on="1"/>
      </contour>
    </TTGlyph>
    <TTGlyph name="kcommaaccent" xMin="127" yMin="-309" xMax="572" yMax="781">
      <component glyphName="commaaccent" x="28" y="-6" flags="0x204"/>
      <component glyphName="k" x="0" y="0" flags="0x4"/>
    </TTGlyph>
    <TTGlyph name="l" xMin="99" yMin="0" xMax="532" yMax="774">
      <contour>
        <pt x="99" y="0" on="1"/>
        <pt x="99" y="55" on="1"/>
        <pt x="279" y="55" on="1"/>
        <pt x="279" y="715" on="1"/>
        <pt x="110" y="723" on="1"/>
        <pt x="116" y="774" on="1"/>
        <pt x="351" y="774" on="1"/>
        <pt x="351" y="55" on="1"/>
        <pt x="532" y="55" on="1"/>
        <pt x="526" y="0" on="1"/>
      </contour>
    </TTGlyph>
    <TTGlyph name="lacute" xMin="99" yMin="0" xMax="532" yMax="1084">
      <component glyphName="acute" x="9" y="235" flags="0x204"/>
      <component glyphName="l" x="0" y="0" flags="0x4"/>
    </TTGlyph>
    <TTGlyph name="lcaron" xMin="99" yMin="0" xMax="600" yMax="890">
      <component glyphName="caron.alt" x="257" y="0" flags="0x204"/>
      <component glyphName="l" x="0" y="0" flags="0x4"/>
    </TTGlyph>
    <TTGlyph name="lcommaaccent" xMin="99" yMin="-303" xMax="532" yMax="774">
      <component glyphName="commaaccent" x="10" y="0" flags="0x204"/>
      <component glyphName="l" x="0" y="0" flags="0x4"/>
    </TTGlyph>
    <TTGlyph name="ldot" xMin="99" yMin="0" xMax="668" yMax="774">
      <contour>
        <pt x="99" y="0" on="1"/>
        <pt x="99" y="55" on="1"/>
        <pt x="279" y="55" on="1"/>
        <pt x="279" y="715" on="1"/>
        <pt x="110" y="723" on="1"/>
        <pt x="116" y="774" on="1"/>
        <pt x="351" y="774" on="1"/>
        <pt x="351" y="55" on="1"/>
        <pt x="532" y="55" on="1"/>
        <pt x="526" y="0" on="1"/>
      </contour>
      <contour>
        <pt x="572" y="298" on="1"/>
        <pt x="578" y="407" on="1"/>
        <pt x="668" y="407" on="1"/>
        <pt x="662" y="298" on="1"/>
      </contour>
    </TTGlyph>
    <TTGlyph name="less" xMin="107" yMin="-23" xMax="518" yMax="662">
      <contour>
        <pt x="512" y="612" on="1"/>
        <pt x="173" y="327" on="1"/>
        <pt x="173" y="317" on="1"/>
        <pt x="518" y="27" on="1"/>
        <pt x="476" y="-23" on="1"/>
        <pt x="107" y="291" on="1"/>
        <pt x="107" y="353" on="1"/>
        <pt x="471" y="662" on="1"/>
      </contour>
    </TTGlyph>
    <TTGlyph name="lessequal" xMin="95" yMin="21" xMax="530" yMax="650">
      <contour>
        <pt x="530" y="21" on="1"/>
        <pt x="95" y="21" on="1"/>
        <pt x="95" y="82" on="1"/>
        <pt x="530" y="82" on="1"/>
      </contour>
      <contour>
        <pt x="178" y="381" on="1"/>
        <pt x="509" y="199" on="1"/>
        <pt x="484" y="143" on="1"/>
        <pt x="104" y="352" on="1"/>
        <pt x="106" y="412" on="1"/>
        <pt x="477" y="650" on="1"/>
        <pt x="507" y="596" on="1"/>
        <pt x="178" y="390" on="1"/>
      </contour>
    </TTGlyph>
    <TTGlyph name="lslash" xMin="99" yMin="0" xMax="532" yMax="774">
      <contour>
        <pt x="99" y="0" on="1"/>
        <pt x="99" y="55" on="1"/>
        <pt x="279" y="55" on="1"/>
        <pt x="279" y="357" on="1"/>
        <pt x="146" y="287" on="1"/>
        <pt x="133" y="338" on="1"/>
        <pt x="279" y="415" on="1"/>
        <pt x="279" y="715" on="1"/>
        <pt x="110" y="723" on="1"/>
        <pt x="116" y="774" on="1"/>
        <pt x="351" y="774" on="1"/>
        <pt x="351" y="452" on="1"/>
        <pt x="478" y="519" on="1"/>
        <pt x="491" y="468" on="1"/>
        <pt x="351" y="395" on="1"/>
        <pt x="351" y="55" on="1"/>
        <pt x="532" y="55" on="1"/>
        <pt x="526" y="0" on="1"/>
      </contour>
    </TTGlyph>
    <TTGlyph name="m" xMin="69" yMin="0" xMax="556" yMax="551">
      <contour>
        <pt x="230" y="490" on="1"/>
        <pt x="210" y="490" on="0"/>
        <pt x="162" y="465" on="0"/>
        <pt x="139" y="442" on="1"/>
        <pt x="141" y="370" on="0"/>
        <pt x="144" y="149" on="0"/>
        <pt x="144" y="0" on="1"/>
        <pt x="76" y="0" on="1"/>
        <pt x="76" y="175" on="0"/>
        <pt x="73" y="442" on="0"/>
        <pt x="69" y="536" on="1"/>
        <pt x="132" y="540" on="1"/>
        <pt x="137" y="489" on="1"/>
        <pt x="160" y="515" on="0"/>
        <pt x="222" y="551" on="0"/>
        <pt x="256" y="551" on="1"/>
        <pt x="320" y="551" on="0"/>
        <pt x="340" y="494" on="1"/>
        <pt x="364" y="517" on="0"/>
        <pt x="426" y="551" on="0"/>
        <pt x="461" y="551" on="1"/>
        <pt x="506" y="551" on="0"/>
        <pt x="556" y="492" on="0"/>
        <pt x="556" y="431" on="1"/>
        <pt x="556" y="0" on="1"/>
        <pt x="488" y="0" on="1"/>
        <pt x="488" y="404" on="1"/>
        <pt x="488" y="451" on="0"/>
        <pt x="462" y="490" on="0"/>
        <pt x="430" y="490" on="1"/>
        <pt x="387" y="490" on="0"/>
        <pt x="346" y="452" on="1"/>
        <pt x="347" y="447" on="0"/>
        <pt x="347" y="438" on="0"/>
        <pt x="347" y="433" on="1"/>
        <pt x="347" y="0" on="1"/>
        <pt x="287" y="0" on="1"/>
        <pt x="287" y="406" on="1"/>
        <pt x="287" y="451" on="0"/>
        <pt x="262" y="490" on="0"/>
      </contour>
    </TTGlyph>
    <TTGlyph name="macron" xMin="131" yMin="676" xMax="494" yMax="738">
      <contour>
        <pt x="494" y="676" on="1"/>
        <pt x="131" y="676" on="1"/>
        <pt x="131" y="738" on="1"/>
        <pt x="494" y="738" on="1"/>
      </contour>
    </TTGlyph>
    <TTGlyph name="macron.cap" xMin="131" yMin="676" xMax="494" yMax="738">
      <contour>
        <pt x="494" y="676" on="1"/>
        <pt x="131" y="676" on="1"/>
        <pt x="131" y="738" on="1"/>
        <pt x="494" y="738" on="1"/>
      </contour>
    </TTGlyph>
    <TTGlyph name="minus" xMin="98" yMin="292" xMax="527" yMax="352">
      <contour>
        <pt x="526" y="292" on="1"/>
        <pt x="98" y="292" on="1"/>
        <pt x="98" y="352" on="1"/>
        <pt x="527" y="352" on="1"/>
      </contour>
    </TTGlyph>
    <TTGlyph name="mu" xMin="104" yMin="-189" xMax="520" yMax="541">
      <contour>
        <pt x="104" y="-189" on="1"/>
        <pt x="104" y="536" on="1"/>
        <pt x="176" y="541" on="1"/>
        <pt x="176" y="188" on="1"/>
        <pt x="176" y="112" on="0"/>
        <pt x="237" y="49" on="0"/>
        <pt x="292" y="49" on="1"/>
        <pt x="336" y="49" on="0"/>
        <pt x="411" y="78" on="0"/>
        <pt x="447" y="102" on="1"/>
        <pt x="445" y="174" on="0"/>
        <pt x="442" y="389" on="0"/>
        <pt x="442" y="539" on="1"/>
        <pt x="513" y="539" on="1"/>
        <pt x="513" y="364" on="0"/>
        <pt x="516" y="97" on="0"/>
        <pt x="520" y="3" on="1"/>
        <pt x="455" y="-2" on="1"/>
        <pt x="450" y="59" on="1"/>
        <pt x="418" y="31" on="0"/>
        <pt x="333" y="-13" on="0"/>
        <pt x="279" y="-13" on="1"/>
        <pt x="208" y="-13" on="0"/>
        <pt x="170" y="29" on="1"/>
        <pt x="175" y="-182" on="1"/>
      </contour>
    </TTGlyph>
    <TTGlyph name="multiply" xMin="101" yMin="107" xMax="523" yMax="536">
      <contour>
        <pt x="311" y="277" on="1"/>
        <pt x="149" y="112" on="1"/>
        <pt x="105" y="155" on="1"/>
        <pt x="268" y="321" on="1"/>
        <pt x="101" y="491" on="1"/>
        <pt x="146" y="536" on="1"/>
        <pt x="312" y="366" on="1"/>
        <pt x="476" y="533" on="1"/>
        <pt x="520" y="488" on="1"/>
        <pt x="356" y="322" on="1"/>
        <pt x="523" y="152" on="1"/>
        <pt x="478" y="107" on="1"/>
      </contour>
    </TTGlyph>
    <TTGlyph name="n" xMin="105" yMin="0" xMax="524" yMax="551">
      <contour>
        <pt x="333" y="490" on="1"/>
        <pt x="289" y="490" on="0"/>
        <pt x="213" y="460" on="0"/>
        <pt x="178" y="436" on="1"/>
        <pt x="180" y="364" on="0"/>
        <pt x="183" y="149" on="0"/>
        <pt x="183" y="0" on="1"/>
        <pt x="112" y="0" on="1"/>
        <pt x="112" y="175" on="0"/>
        <pt x="109" y="442" on="0"/>
        <pt x="105" y="536" on="1"/>
        <pt x="170" y="540" on="1"/>
        <pt x="175" y="479" on="1"/>
        <pt x="210" y="507" on="0"/>
        <pt x="301" y="551" on="0"/>
        <pt x="360" y="551" on="1"/>
        <pt x="434" y="551" on="0"/>
        <pt x="524" y="463" on="0"/>
        <pt x="524" y="364" on="1"/>
        <pt x="524" y="0" on="1"/>
        <pt x="453" y="0" on="1"/>
        <pt x="453" y="342" on="1"/>
        <pt x="453" y="423" on="0"/>
        <pt x="390" y="490" on="0"/>
      </contour>
    </TTGlyph>
    <TTGlyph name="nacute" xMin="105" yMin="0" xMax="524" yMax="861">
      <component glyphName="acute" x="7" y="12" flags="0x204"/>
      <component glyphName="n" x="0" y="0" flags="0x4"/>
    </TTGlyph>
    <TTGlyph name="naira" xMin="36" yMin="0" xMax="594" yMax="688">
      <contour>
        <pt x="176" y="469" on="1"/>
        <pt x="230" y="469" on="1"/>
        <pt x="182" y="578" on="1"/>
        <pt x="176" y="578" on="1"/>
      </contour>
      <contour>
        <pt x="320" y="266" on="1"/>
        <pt x="254" y="415" on="1"/>
        <pt x="176" y="415" on="1"/>
        <pt x="177" y="266" on="1"/>
      </contour>
      <contour>
        <pt x="456" y="266" on="1"/>
        <pt x="456" y="415" on="1"/>
        <pt x="312" y="415" on="1"/>
        <pt x="378" y="266" on="1"/>
      </contour>
      <contour>
        <pt x="344" y="212" on="1"/>
        <pt x="177" y="212" on="1"/>
        <pt x="177" y="0" on="1"/>
        <pt x="117" y="0" on="1"/>
        <pt x="117" y="208" on="1"/>
        <pt x="36" y="208" on="1"/>
        <pt x="36" y="267" on="1"/>
        <pt x="117" y="267" on="1"/>
        <pt x="117" y="413" on="1"/>
        <pt x="36" y="413" on="1"/>
        <pt x="36" y="472" on="1"/>
        <pt x="117" y="472" on="1"/>
        <pt x="117" y="688" on="1"/>
        <pt x="192" y="688" on="1"/>
        <pt x="288" y="469" on="1"/>
        <pt x="456" y="469" on="1"/>
        <pt x="455" y="688" on="1"/>
        <pt x="515" y="688" on="1"/>
        <pt x="515" y="472" on="1"/>
        <pt x="594" y="472" on="1"/>
        <pt x="594" y="413" on="1"/>
        <pt x="515" y="413" on="1"/>
        <pt x="515" y="267" on="1"/>
        <pt x="594" y="267" on="1"/>
        <pt x="594" y="208" on="1"/>
        <pt x="515" y="208" on="1"/>
        <pt x="515" y="0" on="1"/>
        <pt x="438" y="0" on="1"/>
      </contour>
      <contour>
        <pt x="457" y="100" on="1"/>
        <pt x="457" y="212" on="1"/>
        <pt x="402" y="212" on="1"/>
        <pt x="451" y="100" on="1"/>
      </contour>
    </TTGlyph>
</ttFont>
